<?xml version="1.0" encoding="UTF-8" standalone="no"?><!DOCTYPE svg PUBLIC "-//W3C//DTD SVG 1.1//EN" "http://www.w3.org/Graphics/SVG/1.1/DTD/svg11.dtd"><svg width="100%" height="100%" viewBox="0 0 4167 4167" version="1.1" xmlns="http://www.w3.org/2000/svg" xmlns:xlink="http://www.w3.org/1999/xlink" xml:space="preserve" xmlns:serif="http://www.serif.com/" style="fill-rule:evenodd;clip-rule:evenodd;stroke-linecap:round;stroke-linejoin:round;stroke-miterlimit:3.8637;"><rect id="kumamoto" x="0" y="-0" width="4166.67" height="4166.67" style="fill:none;"/><path id="path1575" d="M3244.47,1559.18l-11.912,-6.671l-0.952,5.718l-12.865,-5.718l-0.953,13.818l-28.111,6.194l-1.43,-13.818l4.289,-6.67l-2.383,-7.147c-7.194,4.097 -11.816,10.101 -13.817,18.105l-7.624,2.383l-4.288,-22.394l-5.241,8.1l-5.241,-7.099l0,12.864l-3.812,1.906l-12.388,-13.818l-2.858,5.718l-9.53,-3.812l2.383,-2.858l-5.241,-3.336l-1.906,8.577l-13.341,12.912l4.764,8.1l-20.964,-1.906l26.682,-24.3l0.476,-11.435l-6.67,-5.718l-3.335,5.242c-8.386,-5.813 -14.58,-13.961 -19.535,-22.871l7.623,-12.864l0,10.006l3.335,1.905l4.765,-11.911l-1.906,-11.912l13.341,-13.817l2.382,-22.441l16.2,-7.1l41.452,4.765l4.765,-7.624l19.535,-0.952l7.147,-6.671l-8.576,-0.524c-3.145,-7.862 -6.48,-15.628 -10.006,-23.299l2.382,-16.247l-11.911,5.241l-1.906,24.776l-14.771,6.718l-1.905,-10.482l-6.671,-1.43l-12.388,6.194c-6.146,-10.53 -10.053,-22.584 -8.1,-34.782l-9.529,9.53l3.335,5.241l-1.906,9.529l-6.194,4.288l1.43,7.624l-5.718,-5.241l-5.717,5.241l-3.336,-17.153l-12.864,5.241l-10.482,-6.718l-1.906,4.812l4.288,5.718l-25.729,-3.812l5.241,-7.147l-7.147,-0.953l-2.859,-7.147l13.341,0.477l10.006,-11.912l-1.429,-6.194l16.199,-2.382l3.812,-8.577l13.341,-6.241l-0.476,-6.671l-9.053,1.43l-2.859,-10.959l-9.053,12.436l-12.388,-0.524l-8.1,-7.624l-23.823,16.248l-5.717,-6.194c-12.198,0.476 -24.062,3.192 -34.782,-3.812l25.252,-27.635l0.953,-10.959l-3.811,4.813l-0.953,-4.336c9.291,-19.392 17.105,-26.063 33.829,-39.022l10.482,2.858l4.288,-11.435l-9.529,-7.575l11.435,-14.818c-3.145,-8.005 -3.193,-16.105 -0,-23.824l14.294,-1.905l9.529,-22.823c-9.958,-2.906 -20.774,-1.858 -30.017,2.859l-0,13.341l-15.247,-6.194c-28.969,14.961 -61.226,3.335 -87.669,17.105c-22.346,-7.29 -34.925,-13.484 -53.364,-28.112l-2.859,4.289l6.194,17.152l-4.288,2.383l-7.147,-20.012l-14.294,-10.911l-4.764,13.293l-3.812,-8.576l-28.111,1.906l-4.289,7.147l-17.629,0.953l-6.194,-10.482l-3.335,0.953l-8.576,12.912l5.241,6.67l-10.959,2.859c-28.445,-11.006 -53.316,-15.199 -80.522,-30.017c-0.477,-29.541 -18.63,-68.516 -2.859,-95.293l32.4,-9.005l6.194,2.382l-4.765,3.336l11.912,16.199l4.288,0.477l1.429,-4.765l21.441,6.194l3.335,-6.194l3.812,6.671l9.053,-3.336l5.241,-24.299l36.687,-6.194l7.147,-9.529l-14.294,-25.729l-6.67,-3.288l5.241,-4.812l-1.429,-11.435l30.97,1.429l2.859,9.529l-10.006,7.147l4.288,1.858c12.483,-4.764 24.157,-2.144 37.164,-0.953c4.241,-18.153 4.955,-37.021 20.964,-49.075c0.048,-8.767 3.336,-16.438 9.53,-22.823c-2.716,-31.97 -0.286,-48.122 10.005,-78.616l-3.811,-5.194l-0,-14.341c-7.29,-8.767 -11.34,-20.059 -10.959,-31.447l-8.1,-5.67l-5.241,-13.817l-10.958,-6.718l-9.53,-32.828l-17.152,-8.1l-12.388,-25.253l-11.436,8.577l-3.811,-5.194l1.429,-6.242l-4.764,0l-4.765,-9.481l-7.147,-3.335l-2.859,11.911l-7.147,-9.529l-8.1,0.476l-2.858,-7.575c-9.387,-3.717 -19.25,-6.147 -29.065,-4.336l-4.288,7.147l1.43,15.723l-14.771,-19.535l-12.864,9.053l-22.394,-2.907l5.241,8.1l-9.529,5.718l-10.482,-5.718l-4.765,2.907l-3.812,10.482l3.336,5.241l-3.812,4.288l3.812,6.194l-3.336,3.812l-8.576,-2.907l-6.194,6.242l5.241,4.765c-8.767,5.574 -13.77,14.58 -16.2,24.776l-10.958,-1.382c-10.34,7.957 -13.008,19.773 -17.629,31.447l-10.959,-6.242l-3.812,4.812l8.1,20.917l-15.723,15.723l-0,-7.099l7.147,-3.335l0.953,-5.718c-14.866,2.43 -27.492,-2.859 -41.453,-7.099l-10.482,8.1l-4.764,-5.718l-20.012,4.765c-10.482,-17.725 -31.685,-9.339 -48.123,-7.1l-32.875,-14.341l2.382,-4.765c-4.098,-5.431 -9.529,-9.577 -15.723,-11.911l-1.906,4.764c-13.532,0.382 -26.063,-6.622 -33.353,-18.105l-22.87,17.152l5.241,-17.629c-18.772,-8.481 -48.456,-5.098 -69.087,-5.717l-3.812,7.147l-22.393,-20.965l-7.624,-0.953l-0.953,-19.058c-11.911,-9.339 -15.866,-25.538 -21.917,-39.07l-14.294,-7.099c-5.956,-9.148 -8.052,-20.441 -5.241,-30.97l-7.623,-5.194l-1.906,-7.623c6.051,-18.582 7.385,-30.113 6.67,-49.552l-11.435,-2.383c-2.811,-10.577 -4.383,-21.869 -0.953,-32.447l-4.288,-6.67l-19.058,0.476l-0.477,8.577l-8.1,4.335c-6.527,-10.911 -13.198,-21.679 -20.011,-32.447l1.429,-6.67l4.288,-1.43l13.818,7.147l8.1,-14.294l-6.671,-30.97c6.194,-10.387 8.291,-22.822 10.482,-33.829l15.724,4.289l-5.718,-7.1l1.906,-6.241l10.006,-5.67l-14.771,-5.241l9.53,-6.194l2.858,-11.435l9.53,-4.289l-2.383,-7.623l4.765,-11.912l-35.258,4.765l-2.859,-3.812l-19.535,-0.953l-0.477,16.2c-21.917,14.675 -29.921,35.878 -42.405,58.605l-23.346,4.765l-1.43,-4.765l-8.1,2.859l-1.906,-6.671l-8.099,1.382l-6.671,-5.67l6.671,-10.005l8.099,-1.001l3.812,6.67l7.624,-1.381l7.147,6.194l2.858,-5.718l-33.829,-47.646c-9.434,10.673 -17.2,22.822 -31.446,27.158c-1.477,20.202 -21.441,37.26 -27.158,57.652l-6.671,-12.435l-35.258,10.529l-8.1,-2.906c21.965,-5.384 49.981,-12.055 63.846,-31.447l0.953,-11.911l5.717,-6.194l-3.335,-9.482l-6.67,-4.336l13.341,-5.717l8.1,-23.299l-6.194,-4.288c-22.347,5.288 -40.405,16.247 -60.511,27.11l-4.288,8.1l4.764,6.718l15.247,-1.905l-1.429,10.005l-4.765,3.288l-10.482,0.524c-23.395,-16.629 -35.83,-25.681 -63.846,-30.017l-12.388,5.193l-2.859,12.912l-13.817,6.194l-5.242,19.535c-17.819,22.204 -61.94,33.496 -87.669,20.488l-2.858,-10.482c-11.769,0.762 -23.49,1.763 -35.259,2.859l-1.906,4.288l4.289,6.194l-10.006,21.917l-25.253,9.53l-12.864,-7.1c1.334,6.671 2.62,13.294 3.812,20.012l-10.006,26.205l-16.2,5.718l-9.053,-3.336c4.622,10.483 5.003,22.442 0.477,32.876l18.105,3.812l6.671,10.911c-7.624,21.536 -9.815,40.833 -27.158,57.176l-16.2,3.335c-13.389,34.543 -57.938,66.609 -96.246,63.846l11.435,11.911c8.91,0.382 16.391,3.86 22.394,10.483l4.765,-3.812l-0,-14.294l9.053,-10.006l26.681,-6.194l8.1,-10.958l10.483,-2.383l7.623,4.289l-1.906,5.717l7.147,20.964l-13.341,7.1l-5.241,34.353l-4.288,-1.001l-0.477,11.912l-10.005,7.147l-0,7.099l-4.765,-1.382l-12.864,7.576l-2.383,-2.859l4.288,-4.764l-4.764,-3.812l-23.347,12.864l-39.07,-8.576l1.906,5.193l-3.812,8.1c-12.912,6.766 -24.252,2.001 -37.64,-0.953l-1.906,-4.288l9.053,-16.199l-4.765,-9.053c-11.721,3.335 -21.06,-0.191 -32.876,-2.859l-7.147,-19.059l7.147,-16.676c-6.099,-12.102 -17.534,-15.342 -29.064,-20.964l-1.43,6.194l4.765,11.435c-7.242,12.054 -20.107,16.867 -31.923,23.347l-10.959,-1.906l-8.099,7.099l-1.43,4.812l5.718,12.388l-9.053,14.771l-20.011,9.529l-17.63,-10.911l-4.764,10.911l-15.247,8.624l6.67,7.099l2.859,12.388l23.823,-9.481l10.006,5.717l-3.335,8.1l-11.912,3.288l-1.906,11.911l17.153,-9.529l8.576,7.147l18.106,-14.294l13.341,5.718l-10.006,3.811c-16.39,27.111 -51.648,26.206 -68.134,50.505l-41.929,10.483c-5.241,14.293 -12.245,27.825 -11.435,43.358l-14.294,11.435l-36.211,-1.43l7.624,12.436l-0.477,10.006l-13.341,-20.059l0,-6.194c-5.622,-1.716 -11.34,-2.24 -17.152,-1.382l-7.624,-9.529l-10.482,-2.383c-1.62,-11.292 1.001,-22.441 5.717,-32.876l14.294,-6.194l-10.482,-11.435l-1.906,-15.199l-14.77,-10.958l-0.953,-19.059l-13.341,8.624l-10.006,-6.194l-3.335,5.193l-6.67,-3.287l-10.006,9.481l3.812,8.624l-8.577,-1.905l-3.811,18.582l-0,-13.818c-9.72,-6.337 -14.532,-16.009 -18.582,-26.682l-7.147,-2.906l-2.859,14.294c6.289,6.766 9.481,14.913 9.529,24.347l-14.77,-4.812l7.147,6.194l-2.383,4.336l11.436,7.575l0.952,6.718l-2.858,5.194l-9.53,-10.911l-8.576,-1.906l-0.953,23.347l6.194,8.1l-7.147,5.717l5.241,5.194l8.1,-4.289c4.527,4.479 7.147,9.958 7.624,16.2l-7.624,10.53l0.953,4.765l-11.435,1.905l-0.953,-19.535l-11.435,-7.623l-2.859,-13.817l-11.911,-2.383l-12.388,17.629l10.005,12.865l-5.717,2.906l-6.194,-3.335l-6.671,7.147l3.812,9.005l20.011,12.912l4.289,8.577l9.052,2.382l0.953,10.53l23.823,9.481l8.1,-7.575l6.194,5.193c-2.144,11.531 -1.62,24.061 1.906,35.258l-14.294,14.294l-0.476,0l2.859,-19.535l-14.294,-8.1l-2.859,6.194l-3.335,-2.858l-3.812,-24.3l-30.97,-5.718l11.435,9.006c-4.574,12.864 -0.238,25.347 1.906,38.641l-6.671,7.623l6.194,14.294l10.483,-8.1l-0,-10.482l8.099,4.765l5.718,-5.241l7.147,2.382c1.858,5.384 2.811,10.958 2.859,16.724l-5.241,2.858l4.288,12.913l-8.1,3.811l6.67,4.765l-8.099,17.153l-7.147,3.811c17.295,8.005 24.585,18.344 35.734,33.305l-10.482,-1.858l-4.765,-8.148l-11.435,-0.476c-13.007,-7.29 -24.156,-22.203 -24.299,-37.164l-17.153,-18.106l-2.382,-34.305l-8.1,-7.147l-9.053,7.623l-3.812,14.342l-9.529,-12.912l-10.958,-3.812c-11.912,10.768 -22.156,21.25 -37.641,26.73l-15.723,-10.53l-9.53,2.382l-8.099,-13.293l5.717,-20.536l3.812,0l-5.718,-18.105l-11.911,10.005l2.859,9.053l-10.006,12.865l-7.147,-0.953l-2.382,5.241l-5.718,0.476l-6.194,-3.335l-1.429,7.623l-12.388,-12.388l-10.006,4.765l-12.388,-1.906l1.429,-8.576l-15.723,-1.43l-6.671,7.624c5.003,16.914 4.098,30.684 2.859,48.123l-9.529,-2.383l-1.429,8.1l14.77,21.917l4.288,-3.335l6.671,5.241l16.199,-10.482l8.1,4.765l-10.006,-0c-6.098,6.765 -12.34,13.388 -18.582,20.011l3.812,19.535l-10.482,5.241l0.953,-10.005l-5.241,2.382l1.429,8.1l-10.006,17.629l1.906,5.241l-9.053,9.005l8.1,3.812l1.906,6.67l-1.429,4.336l-9.053,-2.43l2.859,6.718l-1.906,11.912l21.917,-1.43l5.718,6.671l9.053,0.524l4.764,-10.006l5.241,-1l-1.906,20.011l9.053,-4.765l4.288,2.859l0.953,10.006l10.483,1.001l5.717,-7.624l-3.335,-24.824l5.717,-12.864l6.671,40.499l7.623,4.288l-13.817,27.635l6.67,-4.288l5.241,4.288l6.671,-2.858l3.812,7.146l15.723,5.194l-1.43,10.959l14.771,14.293l-8.577,1.906l-8.099,10.482l-20.965,-1.905l10.482,32.399l7.147,-7.576l0,-13.817l9.053,6.194l25.729,-3.335l-3.335,-5.718l1.429,-19.535l-3.335,-2.859l3.335,-6.67l-8.576,-12.436l0.476,-7.099l21.918,-2.382l2.382,12.864l-2.859,5.241l3.336,4.765l-6.671,10.006l11.435,13.817c7.528,-5.575 12.626,-13.055 14.77,-21.917l9.53,5.717l5.717,-4.288l20.965,3.288l-14.294,1l-9.053,9.005l9.529,7.147l-13.341,1.906l3.336,7.624l-4.289,3.335l-4.764,-8.148l-6.194,-0.953l-1.906,4.765l6.194,20.011l-18.106,-1.381c5.908,14.103 14.294,27.539 11.912,43.358l2.859,-0l-0,-0.524l12.864,-0.953l1.43,11.911l5.717,4.765l2.382,-6.194l9.53,-4.288l-0.953,-6.194l-16.676,-16.724l2.382,-14.77l5.717,-4.765l0.477,21.393l23.823,-7.099l9.053,9.005l-3.335,11.912l8.099,-1.906l6.671,6.718l5.241,-5.718l10.959,9.005l-11.435,17.153l3.335,8.576l12.864,-20.488l4.765,6.671l15.247,-16.676c24.061,-3.097 26.3,18.058 41.785,28.206c28.112,18.439 34.782,24.014 38.737,57.557c-11.673,24.395 -14.818,43.596 -17.629,70.517c9.624,8.481 19.678,15.103 24.776,27.11l-6.194,6.718l1.906,2.859l20.011,6.194l-7.623,8.1l1.906,9.053c10.815,4.86 19.63,13.627 24.776,24.299l16.199,2.907l-9.529,13.817l-14.77,-7.623l-4.288,-8.576l-16.2,1.381l-0.477,-7.623l-9.052,-10.006l-17.63,3.812l-2.382,-6.194l-18.105,-4.765l-7.624,-11.911l-4.288,-0l-2.859,9.005l-13.341,-9.482l0,13.77c-7.099,7.814 -9.91,17.963 -10.482,28.635l-3.335,0l-10.006,-21.917c-3.097,8.434 -3.24,17.057 -0.476,25.729l-5.241,8.576c-17.82,-18.01 -30.446,-35.21 -55.27,-41.928l1.906,-16.676l4.764,-2.43l0.953,5.241l5.718,-0l7.147,-13.818l-4.288,-2.382l-0.953,-13.341l-10.006,-0.477l-1.429,7.147l-6.671,-1.429l5.718,-12.388l-6.194,-31.971l7.147,-11.387l5.717,0.476l-5.241,20.012l4.288,-2.859c1.668,6.146 2.001,12.674 0.953,19.011l5.718,2.906l8.1,-6.194l-0,-16.724l4.288,-4.764l-3.336,-15.247l-7.146,-5.241l14.77,-14.77l-5.718,-13.341l-4.288,0.476c-0.572,-13.198 -7.099,-25.634 -20.488,-29.016l-5.717,4.764l-20.488,-18.105l-9.529,18.105l12.388,4.812l-7.147,5.718l-5.718,-4.812l-13.341,9.052l-4.764,-7.623l3.811,-5.241l-2.859,-11.912c6.957,-13.198 11.912,-27.158 25.253,-35.258l-14.294,-16.2l-7.147,5.718l1.43,4.288l-9.53,4.812l-4.288,-7.623l8.1,-10.959l-2.859,-11.911l-12.388,6.718l-1.906,-5.718l3.812,-7.147c-14.866,-1.429 -23.823,-11.149 -35.258,-20.011l-8.1,3.812l1.906,8.576l-11.435,12.436l8.1,-1.001l-0.953,4.288l-9.053,6.194l8.576,0l2.859,5.241l-9.529,0.477l-2.859,22.87l-6.671,0.477l-4.764,6.67l-1.43,17.629l11.436,20.012l-8.577,15.246l-7.147,-2.382l-9.529,8.576c-3.478,12.15 -2.906,24.634 -3.335,37.165l7.147,5.717l-0,11.912l7.147,1.905l15.246,18.583l-1.429,7.146c4.431,12.817 7.195,25.92 17.153,35.735c-2.764,17.058 7.337,37.117 21.441,46.646l1.429,6.718l15.247,1.382c2.858,11.959 10.958,17.915 19.535,26.729l5.717,-17.152l9.53,1.905l7.146,-4.764l6.194,3.287l4.765,-6.67l7.147,-0l-14.294,30.97c10.625,9.577 24.014,18.344 30.494,30.922l-4.288,11.436l15.723,3.335l-4.765,15.723l5.241,5.67l8.577,-7.099l5.717,3.335l3.812,17.581l-3.812,7.624l9.529,-5.718l6.671,4.336c8.29,-7.719 14.008,-18.63 18.106,-29.064l-1.43,-15.247l9.529,18.63c-13.769,21.965 -20.63,40.023 -29.54,63.846l-10.482,2.382c-6.242,-1.858 -11.197,-5.527 -14.771,-10.959l-11.911,1.001l-3.336,4.765l0.477,8.099c9.339,-0.333 17.82,2.24 25.252,7.624l-4.764,21.917c-15.533,8.958 -25.205,29.303 -27.635,46.694c-11.006,8.957 -24.967,16.676 -31.447,29.54l-3.335,-4.812c-6.289,3.859 -11.911,8.957 -16.2,14.818l4.289,10.911l26.205,-15.199l14.294,10.005l-0.477,-10.005c20.631,-8.624 31.971,-17.82 48.6,-32.876l9.052,-30.017l6.671,1.906c29.255,-10.578 67.658,-36.736 56.699,-74.376l2.859,-4.765l7.147,3.812l7.147,-13.818l4.764,1.43l6.671,-7.624l-0,-7.623l11.911,-8.576l-6.67,-19.535l7.147,-14.818l35.734,17.152l11.912,-5.717l10.482,3.811c37.021,-24.204 58.7,-48.742 102.916,-36.211l15.723,-8.624l32.4,1.906l13.341,12.436l-8.576,19.535l23.346,14.77c4.05,23.966 -13.15,46.932 -36.687,52.411l-23.824,26.73l-16.676,-5.718c10.006,14.818 5.146,34.734 12.388,51.458l33.353,25.729l1.906,6.194l-7.147,11.912l3.811,10.482c9.434,-4.812 19.154,-8.767 26.682,-15.723l-6.67,-8.577l15.723,8.1l20.011,-8.576c5.384,-10.054 14.628,-17.772 25.253,-21.918l8.1,-23.346l32.876,-0c18.868,-10.959 43.167,-18.963 51.458,-40.976l-0.477,-26.205c18.868,-30.923 21.346,-46.551 23.823,-83.381c-22.107,-40.023 -35.448,-73.947 -69.563,-103.869c-20.917,-6.48 -37.355,9.434 -59.558,4.288c-21.536,19.392 -43.93,40.023 -74.328,39.546l-9.529,23.347l0.476,-25.729l-12.388,-5.241l-12.388,9.053l-19.535,-24.824l-14.294,-0l-3.812,8.576l-10.958,4.336l47.646,-49.552l20.964,-2.43l19.535,-18.582l14.294,0.476l3.335,-10.005l12.865,-10.482l8.91,-23.824l19.154,-10.958c-9.911,-10.006 -20.345,-20.059 -33.353,-25.729c-1.667,-21.06 -15.008,-42.405 -22.727,-62.369c-9.243,-24.014 -25.062,-49.266 -47.36,-62.941l-0.477,-7.576l7.147,-2.906l0.953,-7.624l-6.194,-9.529l8.576,-1.382l-0.953,-11.435l10.959,23.347l10.006,4.765c6.098,-6.576 9.624,-15.295 9.529,-24.3l18.582,-3.812c5.67,-14.818 9.339,-13.722 17.153,-26.825l-3.812,-7.099l15.628,-16.104l-3.335,-8.624l-18.106,-6.671l14.77,-6.67c7.862,3.192 15.819,6.241 23.824,9.005l0.476,-10.006l8.576,3.335l-2.382,11.436c6.242,3.954 18.773,5.622 20.393,12.816c6.48,3.907 17.629,8.196 23.537,12.913l4.765,14.293c8.766,0.143 8.576,6.242 16.295,10.53l4.383,-2.477l10.053,-2.049l0.62,-16.581l-5.956,-12.674l14.913,9.672l3.86,18.249l7.671,-1.096l8.195,4.479l6.718,2.239l-2.239,9.672l-0,12.674l6.718,3.002l8.957,3.716l10.435,-3.001l-3.002,11.149l5.194,8.957l6.718,0l4.478,-6.718l9.673,1.477l-5.194,11.912l-3.002,10.434l5.194,9.673l9.672,-0.763l6.718,10.435l5.194,14.913l-1.477,11.912l-9.673,5.955l-2.239,11.15l-6.718,9.672l11.149,4.479l-8.195,9.672l11.244,13.245l-2.382,6.242c4.098,19.869 14.771,46.455 10.006,66.228c25.824,17.344 51.506,34.83 77.187,52.411l10.006,-3.287l10.005,-17.153l-12.388,36.688l37.164,16.723l10.959,-5.717l-6.194,19.535l24.776,22.822l-2.382,10.006l5.717,1.906c1.906,8.958 6.671,16.009 14.294,20.964l-8.576,8.577l11.911,3.811l1.906,5.242l-16.199,-2.383l-4.765,14.294l7.623,25.729l-4.288,10.006l3.335,4.764l-1.905,5.718c8.576,3.764 17.152,7.576 25.729,11.435l4.288,13.817l-7.147,-9.529l-24.3,-5.717l-36.687,15.723c-27.588,37.212 -65.466,55.508 -104.822,79.569l-2.383,4.813c2.812,3.049 5.67,6.051 8.577,9.005l1.429,9.529c29.874,-2.859 47.742,-5.527 74.328,-19.059l16.676,3.336l5.242,-3.812c31.97,-0 53.078,-7.528 83.381,-18.582l6.67,9.481c-0.476,13.77 -7.719,26.111 -13.817,38.165l12.388,14.771l-0,5.241l-24.3,-22.442l-13.341,11.912l-8.1,-3.288l-1.906,1.43l11.912,11.387l-1.906,2.382l-13.817,-7.575l-7.624,8.576l9.053,5.241l-19.535,4.288l-18.105,30.017l-13.818,0.477l-5.717,22.87c14.341,5.718 31.16,9.625 42.881,20.011l-5.717,0.953l0.476,3.812l10.959,3.812l-6.671,2.859c-16.485,-4.717 -26.968,-1.382 -42.881,3.335l2.382,14.818l3.335,1.906l24.776,-3.336l-10.482,32.829l7.147,14.341c-23.156,21.012 -72.804,53.936 -78.14,86.669l14.77,1l-2.382,8.1c-7.862,1.525 -14.675,5.432 -19.535,11.435l-2.382,18.582l-5.718,-4.764l-2.382,5.193l-2.859,-1.382l-1.429,9.006l3.812,1.905l4.288,19.535l14.294,5.241l-11.436,9.006l-8.099,-6.671l-3.812,2.382l2.859,14.771l-7.147,-12.388l-6.194,-0.953l-5.718,20.488l-9.053,7.623l-6.194,-2.382l-1.429,3.812l3.812,5.669l-5.718,13.818l10.006,3.812l4.764,6.194l-2.858,2.906l-16.677,-2.382l-9.052,4.764l-10.006,-0.953l-7.623,16.677l-9.053,4.764l-4.288,8.624l6.67,5.194l-12.864,24.823l-10.006,-0.476l7.147,7.099l-6.671,8.577l0.477,19.058c-7.338,11.53 -13.198,25.157 -24.776,32.876l-1.906,-6.718c-9.911,14.103 -23.537,16.104 -39.07,20.535l-11.912,14.294l4.765,-16.199l-14.294,-22.442l-2.382,1.43l4.288,12.388l-3.812,1.905l-7.623,-9.529c-8.576,-3.192 -17.105,-6.384 -25.729,-9.481c-32.828,10.815 -44.264,17.772 -55.746,50.933l4.288,12.436l7.623,4.765l0,-9.053l5.718,-0.953l9.529,8.576c6.337,11.864 5.575,25.491 1.906,38.117l-7.147,5.241l-2.859,16.2l-13.817,10.959l1.906,16.676l-5.718,6.194l11.912,0.524l12.388,11.388c8.481,28.063 6.575,61.463 17.629,87.669c-4.241,15.056 -5.384,32.161 -18.106,42.453l-2.382,13.341l4.765,6.67l12.388,1.906l10.005,14.77l16.2,2.43l-14.77,4.765l-33.353,-15.247c-10.434,20.869 -16.39,35.735 -20.011,58.605c6.67,16.438 13.579,32.733 20.488,49.028l19.535,-5.194l21.917,24.777c7.814,1.048 14.866,4.288 20.488,9.529l2.859,15.723l20.011,13.341l15.723,35.735l16.677,5.193c20.44,31.351 16.866,86.907 11.959,121.975c-2.954,21.25 -7.671,40.69 -14.866,61.034c-6.194,17.63 -21.393,36.45 -19.535,55.223l3.335,2.906l-10.005,-1.906c-11.149,20.536 -31.399,21.774 -44.311,39.546l-10.482,1.43c-3.955,7.671 -5.194,16.057 -3.812,24.776l-13.341,-6.671c-8.386,-13.483 -18.63,-25.157 -17.629,-41.928l-4.765,6.67l2.859,7.1l-2.859,3.811l-7.147,-11.387l-6.194,-0.524l-1.429,-8.1l-9.529,-10.006l-23.347,20.964l-17.153,-5.717l-14.294,10.911l2.383,5.717l5.717,-7.099l14.294,2.382c20.726,19.535 29.541,40.643 54.317,57.176l3.335,7.099l7.623,1.43l9.53,12.912l-8.1,13.817l-23.823,6.671l19.535,12.864l9.529,-0.953l3.335,-7.623l7.624,12.388l5.717,1.429l1.906,4.288l-24.3,18.106l3.336,6.718l12.864,-3.812l8.576,7.624l-8.099,9.481l7.623,5.718l-10.482,6.194l5.241,10.006l10.006,0.524l8.099,-6.718l8.1,4.812l12.865,-3.812l17.629,8.1l8.1,-20.011l9.529,6.194l8.576,-1.43l13.341,11.912c9.53,-2.192 19.678,-0.667 28.112,4.288l13.341,-4.288c27.539,6.956 60.463,9.1 88.622,3.812c17.867,14.103 46.741,32.351 50.505,56.699l-6.671,9.481c-0.238,9.625 3.717,18.582 9.053,26.73l14.77,3.335l25.729,-12.912l26.682,18.106l6.671,-7.624l-6.194,-6.67l8.576,-9.053l35.258,-8.1c4.336,-7.576 5.956,-16.057 4.288,-24.3l-2.858,3.812l-4.765,-2.382l3.335,-6.194l19.059,-5.718l-3.812,-23.823l13.818,-27.635l-8.577,-8.1l-31.923,-4.288l-8.1,-15.723l-13.341,-5.241c-7.957,-13.96 -20.202,-22.775 -32.399,-32.828c-5.67,-21.155 -16.39,-44.502 -11.435,-66.705l8.576,-10.482c-0.429,-7.386 -2.335,-14.39 -5.717,-20.965l-4.289,-2.859l-10.005,4.765c-41.691,-32.495 -32.209,-143.415 19.058,-163.427l-3.811,-11.911l4.288,-6.718l-3.812,-8.1l6.67,-2.382l-2.382,-15.724c10.482,-13.055 19.583,-29.54 35.735,-36.211c2.382,-14.294 7.528,-25.348 17.153,-36.211c-2.669,-6.337 -5.194,-12.674 -7.624,-19.059l6.194,-25.252c22.203,-20.964 39.499,-39.832 72.899,-34.305c31.018,5.098 64.418,24.823 93.863,36.211l2.382,12.435l8.577,3.812l10.005,32.4c-19.916,27.396 -26.824,52.125 -36.687,84.81l-26.682,22.394c-11.578,-0.477 -23.204,-0.906 -34.782,-1.43l6.671,-3.335l0.476,-4.765l-6.67,-3.335l2.382,-5.717l-8.1,-13.294l3.812,-20.535c-7.195,-5.908 -11.959,-13.484 -13.818,-22.394l-9.052,0l-4.289,-4.765l-57.652,8.577c-5.145,14.389 -17.2,23.632 -27.634,34.305l-2.383,9.529c13.675,14.294 26.634,32.829 45.264,40.976l27.635,-7.623l16.2,10.005l6.194,-8.576l9.529,2.382c1.572,5.241 3.145,10.53 4.765,15.724l-11.435,17.629l4.288,56.651c50.695,46.455 67.753,89.718 94.816,152.945c-9.005,40.451 -1.001,80.617 -28.112,113.398l-1.905,17.153l3.811,6.67l-7.623,-0.953l-4.288,-7.147c-3.24,3.717 -5.337,8.052 -6.194,12.912l9.053,21.441c-8.148,25.348 -13.437,56.27 -32.876,76.234c-19.44,19.964 -49.838,26.587 -64.323,51.935l14.294,6.194l3.812,30.017c-7.576,14.198 -17.248,28.254 -21.441,43.834l3.812,6.242l15.246,-11.912l6.671,2.859l5.717,-4.764l0.477,-16.724l17.153,-8.577l11.911,1.43l-2.859,-8.624l5.241,-9.482l25.729,-14.341l12.865,1.429l2.382,-8.1l22.394,-8.1l8.1,-10.958l7.623,1l9.053,-9.053c33.686,-6.051 60.701,-13.865 92.434,-26.681l8.1,-12.388c19.821,-9.387 36.783,-15.819 51.458,-32.448l-5.241,-10.482l2.858,-5.241l10.006,-1.382l3.335,-15.723l12.865,-11.911c3.764,-14.199 5.05,-27.826 17.629,-37.165l37.64,-1.429l31.923,-33.829l9.53,-1.382c7.861,-7.861 16.962,-14.865 21.917,-24.823l-4.288,-6.194l-20.964,10.482l-25.729,-4.765l0.952,-12.388l27.159,-20.964l0.953,-24.776c-20.917,-7.576 -41.881,-15.199 -62.798,-22.823c-16.914,-6.146 -36.307,4.193 -53.888,-3.907l31.447,-5.241c3.764,-53.84 41.595,-108.872 95.292,-123.404l19.535,10.959l10.006,-2.906c7.051,5.955 14.055,11.959 20.964,18.105c11.531,-5.289 23.156,-1.62 35.258,0l7.147,-4.764l1.43,9.529l-8.1,2.859l15.247,16.199l7.623,-0.953l9.053,7.624l-5.718,13.341c0.048,10.482 4.003,20.774 10.959,28.588l29.064,4.764l9.529,-7.576l17.153,-0.524l14.77,29.064l17.63,-4.288l2.382,-9.052l-11.435,-5.194l-3.812,-11.911c6.813,-7.004 12.102,-15.724 14.294,-25.253l20.488,-14.294l3.812,-10.006l-5.242,-20.011l-4.764,-4.336l-0.477,-15.199l26.206,-19.059l-1.906,-11.911c-7.338,-6.814 -11.578,-15.914 -13.817,-25.729l7.146,-4.765l4.765,8.1l2.382,-8.1l-5.717,-6.718l6.67,-14.77l-6.194,-9.529l0.953,-6.194l13.341,-2.859l6.194,-24.824l5.241,9.053l8.1,-3.812l-3.335,-16.2l8.576,-17.629l35.259,-22.441l-5.242,-11.912l9.53,-11.911l-6.194,-20.917l-6.194,-2.906l3.335,-8.1l9.053,-5.194l1.429,-10.958l-10.482,-7.1c6.766,-18.963 10.149,-36.306 12.388,-56.27c8.815,-11.911 17.629,-21.012 17.629,-36.687l-4.288,-10.959l-6.671,-2.859c-4.86,-12.769 -15.485,-21.631 -27.634,-27.158l-2.859,-18.106l5.241,-6.67c4.622,-36.259 7.48,-78.188 16.2,-113.398c9.91,-40.119 30.541,-77.712 40.975,-118.163c-14.198,2.573 -29.54,-0.143 -37.64,-12.865l26.205,6.671c7.957,-6.29 12.912,-15.104 16.2,-24.824l-4.765,22.441c20.107,-56.889 32.686,-113.35 50.363,-170.621c16.39,-53.125 21.869,-102.106 49.218,-152.42l-3.335,-7.624l9.053,4.288l8.1,-4.288l-1.43,-25.252l7.147,-12.388c-3.43,-13.151 2.907,-24.157 7.147,-36.688c9.1,-6.385 20.44,-9.196 31.447,-8.1l-3.336,-10.005l10.959,-17.153l-1.906,-9.529l-19.535,5.241l7.147,-9.53l-0.953,-4.764l-8.1,10.911l-6.194,-0.477l5.718,-9.052l-3.335,-11.388c2.954,-8.481 6.813,-16.628 11.435,-24.347l4.288,5.717l10.959,-0.476l-2.383,5.241l8.1,5.193l10.482,0l28.112,-28.111l-10.959,-9.529l-4.288,-17.105l-20.965,8.576l-6.194,-3.335l4.765,-5.718c-8.29,-32.447 3.907,-45.788 20.011,-74.757l-0.476,-4.288l-14.77,12.388l-11.912,-8.1l16.676,-5.717l-7.147,-20.964l10.006,-8.577l11.435,28.111l6.671,4.765l20.488,-1.858l1.905,-7.623l14.294,-11.436l-4.288,-2.906l5.718,-3.288l3.811,-18.105l5.718,-5.718l-5.718,-10.958l2.383,-6.671l-3.336,-7.623l6.671,-0.953l2.382,-10.006l8.577,-5.717l1.429,10.005l5.241,2.859l0,-12.864l26.205,-22.871l0.953,-10.911l16.2,14.771l15.723,-6.671l-9.052,-19.535l5.717,-9.053l9.529,2.43l-5.717,-10.053l19.535,-8.576l7.623,-14.294l-10.958,-4.288l5.717,-10.483l-1.906,-4.812l20.012,1.906c-5.765,-15.628 -13.913,-29.398 -7.624,-46.217l9.53,12.388l-1.906,6.194l10.005,-0.953l8.577,6.194l0.953,-7.147l16.199,7.624l10.483,-13.341l0.476,-9.482l14.294,2.859l-4.288,10.482l10.482,2.907l3.335,-3.336l-3.811,-8.576l2.858,-6.194l24.776,-13.341l7.624,-17.629l-21.918,-11.435l-7.623,2.382l7.147,13.818l-1.906,4.812l-12.864,-6.718l-3.812,-6.671l-1.429,21.441l-3.812,-15.723l-14.77,-0.477l10.482,-8.624l-2.383,-13.293l10.006,8.576l12.865,-14.294l-0,-10.005l8.576,4.764c7.385,-12.388 12.34,-24.633 25.252,-31.923l-9.529,0l-5.717,-6.67l-2.383,6.67l-8.576,2.383c2.192,-11.864 1.62,-24.3 -5.718,-34.306l11.912,-1.429l4.765,11.435l11.911,7.147l1.43,-22.441l5.241,3.811l2.382,-9.005l9.053,-5.717l8.1,-0l1.906,9.529l4.288,-0l10.958,-13.341l14.294,8.1l13.818,-1.43l-12.865,-17.105l-11.435,0.906" style="fill:none;fill-rule:nonzero;stroke:#999;stroke-width:7.62px;"/><g id="logo"><g><path d="M2271.26,2139.24c44.474,7.279 73.727,19.621 73.727,33.622c-0,22.377 -74.712,40.515 -166.873,40.515c-92.16,0 -166.872,-18.138 -166.872,-40.515c0,-14.001 29.253,-26.343 73.727,-33.622c-61.759,8.067 -103.745,23.906 -103.745,42.126c-0,26.402 88.15,47.805 196.89,47.805c108.741,-0 196.891,-21.403 196.891,-47.805c-0,-18.22 -41.986,-34.059 -103.745,-42.126Z" style="fill:url(#_Linear1);"/><path d="M2234.33,2139.24c26.843,4.393 44.5,11.843 44.5,20.293c-0,13.506 -45.094,24.454 -100.72,24.454c-55.625,0 -100.719,-10.948 -100.719,-24.454c0,-8.45 17.657,-15.9 44.499,-20.293c-37.276,4.87 -62.616,14.429 -62.616,25.425c-0,15.936 53.205,28.855 118.836,28.855c65.632,-0 118.837,-12.919 118.837,-28.855c0,-10.996 -25.34,-20.555 -62.617,-25.425Z" style="fill:url(#_Linear2);"/><path d="M2199.08,2139.24c10.013,1.64 16.6,4.419 16.6,7.571c0,5.038 -16.822,9.122 -37.573,9.122c-20.75,-0 -37.572,-4.084 -37.572,-9.122c-0,-3.152 6.587,-5.931 16.6,-7.571c-13.906,1.817 -23.359,5.383 -23.359,9.486c0,5.944 19.848,10.763 44.331,10.763c24.484,0 44.332,-4.819 44.332,-10.763c-0,-4.103 -9.455,-7.669 -23.359,-9.486Z" style="fill:url(#_Linear3);"/></g><path d="M2279.54,1796.97l-174.665,199.283c-13.949,-18.731 -23.82,-41.357 -27.605,-63.633c-5.47,-32.206 -1.863,-64.794 6.325,-96.601c5.382,-20.907 12.744,-41.477 20.807,-61.378c17.257,-42.593 37.895,-83.943 51.243,-127.92c8.732,-28.764 14.208,-59.14 13.282,-89.039c-0,-0 -16.112,54.858 -23.194,69.5c-18.571,38.383 -27.973,62.138 -48.388,99.574c-25.141,46.099 -47.7,89.434 -58.544,140.908c-8.855,42.026 -13.649,87.566 -3.678,130.18c9.062,38.737 36.728,73.138 70.89,92.917c28.124,16.286 61.137,23.064 92.971,19.513c21.383,-2.387 42.232,-9.432 60.71,-21.389c40.58,-26.252 63.045,-71.31 68.34,-118.445c6.247,-55.626 -7.955,-114.272 -35.589,-162.65c-11.685,-20.454 -25.911,-39.436 -42.157,-56.488c9.612,13.146 21.267,31.431 29.252,45.668Zm0,0l-169.261,206.101c3.86,4.574 7.976,8.854 12.314,12.765c51.9,46.787 129.03,29.041 164.861,-28.143c22.514,-35.926 26.762,-81.31 17.854,-122.762c-4.921,-22.9 -14.798,-47.229 -25.768,-67.961Zm-33.717,141.81c-0,9.559 -2.58,16.972 -7.739,22.24c-5.159,5.268 -11.812,7.902 -19.958,7.902c-8.147,-0 -14.786,-2.634 -19.918,-7.902c-5.132,-5.268 -7.698,-12.681 -7.698,-22.24c-0,-9.015 2.512,-16.292 7.535,-21.832c5.024,-5.539 11.744,-8.309 20.162,-8.309c8.309,0 14.989,2.77 20.04,8.309c5.051,5.54 7.576,12.817 7.576,21.832Zm-13.767,0c-0,-7.06 -1.168,-12.844 -3.503,-17.351c-2.335,-4.508 -5.784,-6.762 -10.346,-6.762c-4.67,0 -8.16,2.254 -10.468,6.762c-2.308,4.507 -3.462,10.291 -3.462,17.351c-0,7.223 1.168,13.048 3.503,17.474c2.335,4.426 5.784,6.639 10.346,6.639c4.562,0 8.024,-2.213 10.386,-6.639c2.363,-4.426 3.544,-10.251 3.544,-17.474Zm-49.53,-60.689c0,9.558 -2.579,16.971 -7.739,22.239c-5.159,5.268 -11.812,7.902 -19.958,7.902c-8.146,-0 -14.785,-2.634 -19.918,-7.902c-5.132,-5.268 -7.698,-12.681 -7.698,-22.239c0,-9.015 2.512,-16.293 7.536,-21.832c5.023,-5.54 11.744,-8.309 20.162,-8.309c8.309,-0 14.989,2.769 20.039,8.309c5.051,5.539 7.576,12.817 7.576,21.832Zm-13.767,-0c0,-7.06 -1.167,-12.844 -3.503,-17.352c-2.335,-4.507 -5.784,-6.761 -10.345,-6.761c-4.671,-0 -8.16,2.254 -10.468,6.761c-2.308,4.508 -3.463,10.292 -3.463,17.352c0,7.223 1.168,13.047 3.503,17.473c2.336,4.427 5.784,6.64 10.346,6.64c4.562,-0 8.024,-2.213 10.387,-6.64c2.362,-4.426 3.543,-10.25 3.543,-17.473Z" style="fill:url(#_Linear4);"/></g><defs><linearGradient id="_Linear1" x1="0" y1="0" x2="1" y2="0" gradientUnits="userSpaceOnUse" gradientTransform="matrix(4.70615e-15,76.8572,-76.8572,4.70615e-15,2178.11,2152.31)"><stop offset="0" style="stop-color:#ff00e3;stop-opacity:1"/><stop offset="1" style="stop-color:#f37273;stop-opacity:1"/></linearGradient><linearGradient id="_Linear2" x1="0" y1="0" x2="1" y2="0" gradientUnits="userSpaceOnUse" gradientTransform="matrix(4.70615e-15,76.8572,-76.8572,4.70615e-15,2178.11,2152.31)"><stop offset="0" style="stop-color:#ff00e3;stop-opacity:1"/><stop offset="1" style="stop-color:#f37273;stop-opacity:1"/></linearGradient><linearGradient id="_Linear3" x1="0" y1="0" x2="1" y2="0" gradientUnits="userSpaceOnUse" gradientTransform="matrix(4.70615e-15,76.8572,-76.8572,4.70615e-15,2178.11,2152.31)"><stop offset="0" style="stop-color:#ff00e3;stop-opacity:1"/><stop offset="1" style="stop-color:#f37273;stop-opacity:1"/></linearGradient><linearGradient id="_Linear4" x1="0" y1="0" x2="1" y2="0" gradientUnits="userSpaceOnUse" gradientTransform="matrix(1.8399e-14,300.478,-300.478,1.8399e-14,2178.11,1772.76)"><stop offset="0" style="stop-color:#f37273;stop-opacity:1"/><stop offset="1" style="stop-color:#ff00e3;stop-opacity:1"/></linearGradient></defs></svg>