<?xml version="1.0" encoding="UTF-8" standalone="no"?><!DOCTYPE svg PUBLIC "-//W3C//DTD SVG 1.1//EN" "http://www.w3.org/Graphics/SVG/1.1/DTD/svg11.dtd"><svg width="100%" height="100%" viewBox="0 0 2084 2084" version="1.1" xmlns="http://www.w3.org/2000/svg" xmlns:xlink="http://www.w3.org/1999/xlink" xml:space="preserve" xmlns:serif="http://www.serif.com/" style="fill-rule:evenodd;clip-rule:evenodd;stroke-linejoin:round;stroke-miterlimit:2;"><rect id="img" x="-0" y="-0" width="2083.33" height="2083.33" style="fill:url(#_Linear1);"/><clipPath id="_clip2"><rect x="-0" y="-0" width="2083.33" height="2083.33"/></clipPath><g clip-path="url(#_clip2)"><g><path d="M175.972,1181.9c-0.475,-0 -0.858,-8.875 -0.858,-19.818c-0,-10.947 0.383,-19.818 0.858,-19.818c0.476,-0 0.859,8.871 0.859,19.818c0,10.943 -0.383,19.818 -0.859,19.818" style="fill:#e1e1e1;fill-rule:nonzero;"/><path d="M175.972,1261.17c-0.475,0 -0.858,-8.875 -0.858,-19.818c-0,-10.946 0.383,-19.818 0.858,-19.818c0.476,0 0.859,8.872 0.859,19.818c0,10.943 -0.383,19.818 -0.859,19.818" style="fill:#e1e1e1;fill-rule:nonzero;"/><path d="M175.972,1340.45c-0.475,-0 -0.858,-8.875 -0.858,-19.818c-0,-10.947 0.383,-19.818 0.858,-19.818c0.476,-0 0.859,8.871 0.859,19.818c0,10.943 -0.383,19.818 -0.859,19.818" style="fill:#e1e1e1;fill-rule:nonzero;"/><path d="M175.972,1419.72c-0.475,0 -0.858,-8.875 -0.858,-19.818c-0,-10.946 0.383,-19.818 0.858,-19.818c0.476,0 0.859,8.872 0.859,19.818c0,10.943 -0.383,19.818 -0.859,19.818" style="fill:#e1e1e1;fill-rule:nonzero;"/><path d="M175.972,1498.99c-0.475,-0 -0.858,-8.875 -0.858,-19.818c-0,-10.946 0.383,-19.818 0.858,-19.818c0.476,-0 0.859,8.872 0.859,19.818c0,10.943 -0.383,19.818 -0.859,19.818" style="fill:#e1e1e1;fill-rule:nonzero;"/><path d="M207.866,1546.37c-0,0.476 -8.872,0.863 -19.818,0.863c-4.568,-0 -8.777,-0.07 -12.076,-0.182l-0.043,-0.003c-0.364,-0.014 -0.651,-0.318 -0.638,-0.678c0.159,-4.733 0.403,-7.742 0.681,-7.742c0.277,0 0.522,3.009 0.68,7.742l-0.68,-0.68c3.299,-0.112 7.508,-0.182 12.076,-0.182c10.946,0 19.818,0.387 19.818,0.862" style="fill:#e1e1e1;fill-rule:nonzero;"/><path d="M287.138,1546.37c0,0.476 -8.872,0.863 -19.818,0.863c-10.946,-0 -19.818,-0.387 -19.818,-0.863c-0,-0.475 8.872,-0.862 19.818,-0.862c10.946,0 19.818,0.387 19.818,0.862" style="fill:#e1e1e1;fill-rule:nonzero;"/><path d="M366.411,1546.37c-0,0.476 -8.872,0.863 -19.818,0.863c-10.947,-0 -19.818,-0.387 -19.818,-0.863c-0,-0.475 8.871,-0.862 19.818,-0.862c10.946,0 19.818,0.387 19.818,0.862" style="fill:#e1e1e1;fill-rule:nonzero;"/><path d="M430.536,1546.37c-0,0.476 -5.483,0.863 -12.245,0.863c-6.761,-0 -12.244,-0.387 -12.244,-0.863c0,-0.475 5.483,-0.862 12.244,-0.862c6.762,0 12.245,0.387 12.245,0.862" style="fill:#e1e1e1;fill-rule:nonzero;"/><path d="M964.475,410.186c0,-0.476 4.436,-0.859 9.909,-0.859c5.474,-0 9.91,0.383 9.91,0.859c-0,0.475 -4.436,0.859 -9.91,0.859c-5.473,-0 -9.909,-0.384 -9.909,-0.859" style="fill:#e1e1e1;fill-rule:nonzero;"/><path d="M896.131,410.186c0,-0.476 7.65,-0.859 17.083,-0.859c9.44,-0 17.09,0.383 17.09,0.859c0,0.475 -7.65,0.859 -17.09,0.859c-9.433,-0 -17.083,-0.384 -17.083,-0.859" style="fill:#e1e1e1;fill-rule:nonzero;"/><path d="M827.787,410.186c0,-0.476 7.65,-0.859 17.087,-0.859c9.436,-0 17.086,0.383 17.086,0.859c0,0.475 -7.65,0.859 -17.086,0.859c-9.437,-0 -17.087,-0.384 -17.087,-0.859" style="fill:#e1e1e1;fill-rule:nonzero;"/><path d="M773.797,430.004c-0.476,-0 -0.859,-8.875 -0.859,-19.818c1.718,-1.721 0.479,-0.476 0.865,-0.859l1.015,-0l1.004,0.003c0.664,0.004 1.321,0.01 1.968,0.014c1.265,0.016 2.501,0.033 3.719,0.049c2.171,0.063 4.261,0.126 6.303,0.185c3.587,0.155 5.803,0.37 5.803,0.608c0,0.238 -2.216,0.452 -5.803,0.608c-2.042,0.059 -4.132,0.122 -6.303,0.185c-1.218,0.016 -2.454,0.033 -3.719,0.049c-0.647,0.003 -1.304,0.01 -1.968,0.013l-1.004,0.004l-1.015,-0c0.384,-0.38 -0.865,0.858 0.853,-0.859c-0,10.943 -0.383,19.818 -0.859,19.818" style="fill:#e1e1e1;fill-rule:nonzero;"/><path d="M773.797,506.832c-0.476,-0 -0.859,-8.602 -0.859,-19.208c0,-10.609 0.383,-19.207 0.859,-19.207c0.476,0 0.859,8.598 0.859,19.207c-0,10.606 -0.383,19.208 -0.859,19.208" style="fill:#e1e1e1;fill-rule:nonzero;"/><path d="M773.797,565.063c-0.476,0 -0.859,-4.435 -0.859,-9.909c0,-5.473 0.383,-9.909 0.859,-9.909c0.476,0 0.859,4.436 0.859,9.909c-0,5.474 -0.383,9.909 -0.859,9.909" style="fill:#e1e1e1;fill-rule:nonzero;"/><path d="M1779.3,697.278c0,0.475 -8.875,0.859 -19.818,0.859c-10.946,-0 -19.818,-0.384 -19.818,-0.859c0,-0.476 8.872,-0.862 19.818,-0.862c10.943,-0 19.818,0.386 19.818,0.862" style="fill:#e1e1e1;fill-rule:nonzero;"/><path d="M1858.57,697.278c0,0.475 -8.875,0.859 -19.818,0.859c-10.946,-0 -19.818,-0.384 -19.818,-0.859c-0,-0.476 8.872,-0.862 19.818,-0.862c10.943,-0 19.818,0.386 19.818,0.862" style="fill:#e1e1e1;fill-rule:nonzero;"/><path d="M1937.84,697.278c-0,0.475 -8.876,0.859 -19.819,0.859c-10.946,-0 -19.818,-0.384 -19.818,-0.859c0,-0.476 8.872,-0.862 19.818,-0.862c10.943,-0 19.819,0.386 19.819,0.862" style="fill:#e1e1e1;fill-rule:nonzero;"/><path d="M2017.12,697.278c0,0.475 -8.875,0.859 -19.818,0.859c-10.946,-0 -19.818,-0.384 -19.818,-0.859c-0,-0.476 8.872,-0.862 19.818,-0.862c10.943,-0 19.818,0.386 19.818,0.862" style="fill:#e1e1e1;fill-rule:nonzero;"/><path d="M2096.39,697.278c-0,0.475 -8.876,0.859 -19.819,0.859c-10.946,-0 -19.818,-0.384 -19.818,-0.859c0,-0.476 8.872,-0.862 19.818,-0.862c10.943,-0 19.819,0.386 19.819,0.862" style="fill:#e1e1e1;fill-rule:nonzero;"/><path d="M2056.95,1136.54c0,-0.475 8.875,-0.858 19.818,-0.858c10.947,-0 19.818,0.383 19.818,0.858c0,0.479 -8.871,0.862 -19.818,0.862c-10.943,0 -19.818,-0.383 -19.818,-0.862" style="fill:#e1e1e1;fill-rule:nonzero;"/><path d="M1973.41,610.735l8.04,130.238c0.287,4.637 4.132,8.254 8.779,8.254l234.462,0c4.859,0 8.796,-3.937 8.796,-8.796l0,-101.422c0,-4.882 -3.97,-8.829 -8.849,-8.8l-144.196,0.932c-2.329,0.013 -4.569,-0.895 -6.227,-2.53l-25.063,-24.687c-1.645,-1.622 -3.861,-2.53 -6.173,-2.53l-60.789,-0c-5.07,-0 -9.093,4.277 -8.78,9.341" style="fill:#ececec;fill-rule:nonzero;"/><rect x="1977.31" y="614.818" width="256.179" height="153.082" style="fill:#f5f5f5;"/><path d="M1956.93,628.554l19.56,159.636c0.344,2.837 2.755,4.967 5.616,4.967l249.662,0.004c2.953,-0.004 5.407,-2.273 5.638,-5.216l12.571,-159.635c0.258,-3.286 -2.341,-6.101 -5.638,-6.101l-281.797,0c-3.396,0 -6.025,2.973 -5.612,6.345" style="fill:#ececec;fill-rule:nonzero;"/><path d="M127.684,501.119c21.34,-8.955 36.518,-30.963 36.643,-56.895c0.139,-33.971 -25.568,-61.631 -57.426,-61.779c-31.844,-0.146 -57.786,27.273 -57.925,61.244c-0.106,26.177 15.177,48.446 36.753,57.43c-88.759,13.371 -84.733,109.835 -84.733,109.835l209.884,0.968c0,0 4.789,-97.515 -83.196,-110.803" style="fill:#ececec;fill-rule:nonzero;"/><path d="M1873.79,421.13c15.841,-6.645 27.108,-22.982 27.2,-42.235c0.102,-25.216 -18.982,-45.747 -42.629,-45.856c-23.636,-0.113 -42.893,20.244 -42.999,45.459c-0.079,19.432 11.267,35.964 27.28,42.632c-65.885,9.926 -62.896,81.535 -62.896,81.535l155.8,0.717c0,0 3.554,-72.389 -61.756,-82.252" style="fill:#f5f5f5;fill-rule:nonzero;"/><path d="M431.568,396.559c10.067,-4.224 17.232,-14.609 17.288,-26.843c0.066,-16.03 -12.063,-29.084 -27.095,-29.153c-15.025,-0.069 -27.266,12.869 -27.332,28.898c-0.05,12.35 7.161,22.86 17.341,27.098c-41.879,6.309 -39.98,51.825 -39.98,51.825l99.034,0.459c0,-0 2.256,-46.015 -39.256,-52.284" style="fill:#f5f5f5;fill-rule:nonzero;"/><path d="M1290.7,1663.81c12.987,-5.446 22.226,-18.843 22.302,-34.625c0.082,-20.677 -15.564,-37.513 -34.953,-37.602c-19.379,-0.089 -35.171,16.598 -35.253,37.275c-0.063,15.93 9.238,29.486 22.368,34.952c-54.021,8.139 -51.57,66.847 -51.57,66.847l127.741,0.591c-0,0 2.913,-59.352 -50.635,-67.438" style="fill:#f5f5f5;fill-rule:nonzero;"/><rect x="1889.86" y="1428.67" width="309.87" height="299.795" style="fill:#f5f5f5;"/><path d="M1913.89,1702.81l85.72,-154.267l70.114,98.601l42.599,-52.362l63.388,108.028l-261.821,0Z" style="fill:#e1e1e1;fill-rule:nonzero;"/><path d="M2099.59,1518.54c-0,12.317 -9.982,22.299 -22.299,22.299c-12.317,-0 -22.302,-9.982 -22.302,-22.299c-0,-12.317 9.985,-22.302 22.302,-22.302c12.317,-0 22.299,9.985 22.299,22.302" style="fill:#e1e1e1;fill-rule:nonzero;"/><g opacity="0.3"><path d="M2175.71,1703.64c-0.023,-0.023 -0.05,-0.44 -0.073,-1.229c-0.013,-0.902 -0.04,-2.041 -0.069,-3.495c-0.037,-3.19 -0.083,-7.692 -0.149,-13.492c-0.076,-11.888 -0.188,-29.08 -0.327,-50.913c-0.159,-43.788 -0.383,-106.143 -0.651,-181.012l1.269,1.261c-75.831,0.066 -165.716,0.136 -261.795,0.215c-0.353,0.311 2.772,-2.778 1.45,-1.437l0,16.998c0,5.668 -0.003,11.309 -0.003,16.924c0,11.234 -0.003,22.365 -0.01,33.381c-0.013,22.031 -0.023,43.6 -0.036,64.6c-0.05,41.985 -0.096,81.681 -0.142,118.195l-1.285,-1.284c78.146,0.27 143.414,0.498 189.303,0.657c22.88,0.142 40.924,0.254 53.393,0.334c6.094,0.066 10.818,0.115 14.164,0.151c1.532,0.03 2.731,0.057 3.669,0.073c0.833,0.023 1.269,0.046 1.292,0.073c0.026,0.023 -0.36,0.049 -1.147,0.069c-0.905,0.02 -2.057,0.046 -3.53,0.076c-3.284,0.036 -7.928,0.086 -13.916,0.149c-12.403,0.079 -30.345,0.191 -53.099,0.337c-46.091,0.158 -111.646,0.386 -190.129,0.654l-1.285,0.006l0,-1.295c-0.043,-36.514 -0.092,-76.21 -0.139,-118.195c-0.013,-21 -0.026,-42.569 -0.039,-64.6c-0.004,-11.016 -0.007,-22.147 -0.007,-33.381c-0.003,-5.615 -0.003,-11.256 -0.003,-16.924l-0,-8.512l-0.003,-4.271l-0,-4.215c-1.315,1.295 1.793,-1.846 1.502,-1.519c96.079,0.079 185.964,0.149 261.795,0.208l1.271,0.003l-0.003,1.269c-0.271,75.2 -0.495,137.831 -0.651,181.818c-0.138,21.711 -0.254,38.807 -0.33,50.629c-0.066,5.694 -0.112,10.113 -0.145,13.245c-0.03,1.4 -0.053,2.497 -0.073,3.362c-0.02,0.743 -0.043,1.11 -0.069,1.087" style="fill:#e1e1e1;fill-rule:nonzero;"/></g><rect x="-41.667" y="1214.55" width="131.86" height="127.573" style="fill:#ececec;"/><path d="M-31.444,1331.2l36.475,-65.648l29.837,41.959l18.13,-22.282l26.969,45.971l-111.411,0Z" style="fill:#e1e1e1;fill-rule:nonzero;"/><path d="M47.579,1252.79c-0,5.238 -4.251,9.489 -9.49,9.489c-5.242,0 -9.489,-4.251 -9.489,-9.489c-0,-5.242 4.247,-9.49 9.489,-9.49c5.239,0 9.49,4.248 9.49,9.49" style="fill:#e1e1e1;fill-rule:nonzero;"/><g opacity="0.3"><path d="M79.969,1331.56c-0.007,-0.01 -0.017,-0.188 -0.03,-0.522c-0.007,-0.383 -0.016,-0.868 -0.03,-1.486c-0.013,-1.361 -0.036,-3.277 -0.062,-5.744c-0.033,-5.057 -0.08,-12.377 -0.139,-21.665c-0.07,-18.635 -0.162,-45.168 -0.278,-77.029l0.539,0.541c-32.267,0.023 -70.516,0.056 -111.401,0.089c-0.149,0.133 1.179,-1.185 0.614,-0.611l0,14.435c0,4.782 -0.003,9.516 -0.003,14.203c-0.003,9.377 -0.01,18.553 -0.017,27.491c-0.02,17.866 -0.039,34.757 -0.059,50.298l-0.545,-0.548c33.251,0.115 61.026,0.211 80.554,0.281c9.734,0.062 17.413,0.105 22.721,0.142c2.59,0.026 4.605,0.049 6.025,0.062c0.654,0.014 1.163,0.023 1.562,0.03c0.354,0.013 0.542,0.023 0.549,0.033c0.013,0.01 -0.152,0.02 -0.486,0.033c-0.386,0.007 -0.875,0.017 -1.503,0.03c-1.397,0.013 -3.375,0.036 -5.922,0.063c-5.278,0.033 -12.911,0.079 -22.596,0.145c-19.613,0.069 -47.507,0.162 -80.904,0.277l-0.548,0l-0,-0.548c-0.02,-15.541 -0.04,-32.432 -0.06,-50.298c-0.007,-8.938 -0.01,-18.114 -0.016,-27.491c-0,-4.687 -0.004,-9.421 -0.004,-14.203l0,-10.824l-0.003,-1.82l-0,-1.791c-0.558,0.549 0.763,-0.786 0.641,-0.647c40.885,0.033 79.134,0.066 111.401,0.089l0.541,0l0,0.539c-0.115,32.003 -0.211,58.655 -0.277,77.373c-0.059,9.235 -0.109,16.512 -0.139,21.545c-0.029,2.422 -0.049,4.301 -0.062,5.635c-0.014,0.595 -0.024,1.064 -0.034,1.431c-0.009,0.317 -0.016,0.472 -0.029,0.462" style="fill:#e1e1e1;fill-rule:nonzero;"/></g><path d="M24.278,1447.93l7.429,120.359c0.264,4.287 3.818,7.627 8.116,7.63l216.678,-0c4.489,-0 8.128,-3.643 8.128,-8.132l0,-93.73c0,-4.509 -3.672,-8.158 -8.181,-8.129l-133.257,0.859c-2.154,0.013 -4.221,-0.826 -5.754,-2.338l-23.164,-22.811c-1.52,-1.5 -3.567,-2.339 -5.704,-2.339l-56.175,0c-4.687,0 -8.403,3.951 -8.116,8.631" style="fill:#f5f5f5;fill-rule:nonzero;"/><rect x="27.882" y="1451.7" width="236.747" height="141.468" style="fill:#fafafa;"/><path d="M9.049,1464.39l18.077,147.53c0.321,2.619 2.547,4.591 5.186,4.591l230.726,-0c2.732,-0 4.998,-2.098 5.212,-4.816l11.617,-147.53c0.238,-3.038 -2.164,-5.635 -5.212,-5.635l-260.417,0c-3.138,0 -5.572,2.745 -5.189,5.86" style="fill:#f5f5f5;fill-rule:nonzero;"/><path d="M1155.32,1043.66c-0.195,-0.007 -0.443,-2.25 -0.737,-6.487c-0.092,-2.124 -0.291,-4.737 -0.869,-7.789c-0.475,-3.065 -0.911,-6.606 -2.044,-10.467c-1.718,-7.828 -5.262,-17.093 -10.87,-26.926c-5.655,-9.797 -13.84,-20.06 -25.041,-28.842c-11.164,-8.701 -25.281,-16.192 -41.667,-19.429c-16.277,-3.134 -34.708,-3.015 -52.373,3.267c-8.888,2.867 -17.496,7.306 -25.436,12.977c-4.103,2.679 -7.706,6.071 -11.482,9.322c-3.422,3.626 -7.019,7.157 -9.988,11.289c-12.598,15.961 -19.97,36.671 -20.697,58.183c-0.324,21.529 6.035,42.579 17.84,59.141c2.768,4.27 6.186,7.976 9.43,11.762c3.613,3.432 7.049,6.999 11.015,9.872c7.66,6.052 16.043,10.904 24.783,14.2c17.341,7.131 35.749,8.142 52.158,5.804c16.525,-2.441 30.989,-9.239 42.563,-17.388c11.61,-8.231 20.284,-18.084 26.407,-27.593c6.075,-9.549 10.068,-18.626 12.159,-26.365c1.324,-3.801 1.929,-7.319 2.553,-10.351c0.727,-3.023 1.05,-5.622 1.245,-7.739c0.499,-4.215 0.856,-6.448 1.051,-6.441c0.195,0.003 0.214,2.246 0.076,6.54c-0.017,2.157 -0.162,4.812 -0.727,7.91c-0.459,3.112 -0.908,6.732 -2.091,10.666c-1.816,7.99 -5.598,17.44 -11.613,27.451c-6.058,9.969 -14.814,20.367 -26.732,29.133c-11.877,8.684 -26.883,16.003 -44.148,18.768c-17.142,2.665 -36.462,1.777 -54.78,-5.579c-9.222,-3.412 -18.088,-8.459 -26.193,-14.788c-4.192,-3.015 -7.845,-6.741 -11.663,-10.355c-3.445,-3.967 -7.056,-7.874 -9.999,-12.363c-12.515,-17.423 -19.306,-39.692 -18.939,-62.42c0.746,-22.719 8.608,-44.618 21.952,-61.41c3.161,-4.34 6.956,-8.066 10.589,-11.861c3.987,-3.422 7.815,-6.963 12.145,-9.771c8.407,-5.925 17.503,-10.54 26.877,-13.492c18.652,-6.464 37.988,-6.412 54.982,-2.92c17.11,3.6 31.742,11.636 43.184,20.885c11.478,9.334 19.722,20.148 25.291,30.397c5.523,10.289 8.839,19.911 10.266,27.984c0.994,3.983 1.268,7.623 1.576,10.754c0.412,3.125 0.429,5.787 0.34,7.937c-0.07,4.301 -0.198,6.537 -0.393,6.534" style="fill:#ececec;fill-rule:nonzero;"/><path d="M1134.9,979.917c0.225,0.314 -1.612,1.915 -5.166,4.555c-1.949,1.4 -4.125,2.962 -6.566,4.713c-1.302,0.892 -2.663,1.899 -4.179,2.847c-1.605,0.839 -3.283,1.714 -5.024,2.626c-13.651,7.891 -35.282,15.947 -59.982,15.108c-3.066,-0.139 -6.094,-0.271 -9.08,-0.406c-2.947,-0.463 -5.853,-0.915 -8.714,-1.364c-1.423,-0.238 -2.847,-0.43 -4.234,-0.71c-1.368,-0.364 -2.725,-0.724 -4.066,-1.084c-2.676,-0.743 -5.325,-1.371 -7.845,-2.18c-10.011,-3.478 -18.659,-7.537 -25.45,-11.722c-13.671,-8.268 -20.327,-15.789 -19.811,-16.274c0.551,-0.631 7.983,5.664 21.757,12.815c6.844,3.634 15.359,7.168 25.053,10.25c2.438,0.71 4.994,1.248 7.567,1.909c1.289,0.317 2.593,0.644 3.908,0.968c1.341,0.204 2.692,0.409 4.056,0.614c2.735,0.403 5.509,0.809 8.327,1.225c2.847,0.116 5.734,0.232 8.657,0.347c23.481,0.81 44.284,-6.226 58.08,-13.04c1.764,-0.766 3.459,-1.5 5.08,-2.206c1.55,-0.81 2.957,-1.678 4.308,-2.425c2.586,-1.423 4.895,-2.698 6.962,-3.838c3.872,-2.048 6.141,-3.042 6.362,-2.728" style="fill:#ececec;fill-rule:nonzero;"/><path d="M971.683,1103.97c-0.225,-0.317 1.615,-1.916 5.166,-4.558c1.949,-1.401 4.129,-2.963 6.566,-4.714c1.302,-0.888 2.662,-1.899 4.179,-2.847c1.605,-0.839 3.283,-1.714 5.023,-2.626c13.652,-7.891 35.283,-15.944 59.983,-15.105c3.066,0.136 6.094,0.271 9.08,0.403c2.947,0.463 5.857,0.915 8.714,1.364c1.423,0.238 2.847,0.43 4.234,0.711c1.371,0.363 2.725,0.726 4.066,1.083c2.676,0.743 5.325,1.371 7.845,2.18c10.011,3.481 18.659,7.537 25.45,11.726c13.671,8.267 20.326,15.785 19.811,16.27c-0.551,0.631 -7.983,-5.664 -21.754,-12.812c-6.843,-3.633 -15.362,-7.171 -25.053,-10.253c-2.441,-0.71 -4.994,-1.245 -7.567,-1.906c-1.292,-0.32 -2.593,-0.644 -3.911,-0.971c-1.341,-0.201 -2.692,-0.406 -4.056,-0.611c-2.735,-0.403 -5.509,-0.812 -8.327,-1.225c-2.847,-0.119 -5.734,-0.235 -8.654,-0.35c-23.481,-0.809 -44.283,6.226 -58.084,13.04c-1.763,0.77 -3.454,1.503 -5.08,2.207c-1.549,0.809 -2.956,1.677 -4.307,2.427c-2.586,1.421 -4.895,2.696 -6.962,3.835c-3.872,2.051 -6.137,3.045 -6.362,2.732" style="fill:#ececec;fill-rule:nonzero;"/><path d="M1155.26,1046.03c-0.04,1.553 -45.741,1.698 -102.067,0.331c-56.346,-1.368 -101.978,-3.733 -101.941,-5.285c0.039,-1.546 45.733,-1.695 102.076,-0.324c56.327,1.364 101.971,3.729 101.932,5.278" style="fill:#ececec;fill-rule:nonzero;"/><path d="M1048.55,1143.09c-1.549,-0.036 -1.694,-45.724 -0.33,-102.03c1.371,-56.327 3.733,-101.945 5.285,-101.908c1.546,0.039 1.694,45.717 0.327,102.043c-1.371,56.307 -3.732,101.935 -5.282,101.895" style="fill:#ececec;fill-rule:nonzero;"/><path d="M1048.56,1142.94c-0.386,0.595 -11.626,-7.028 -24.597,-24.283c-6.415,-8.615 -13.143,-19.703 -18.233,-33.107c-5.063,-13.377 -8.238,-29.122 -7.894,-45.713c0.294,-16.638 4.479,-32.208 10.299,-45.252c5.82,-13.093 13.129,-23.785 19.924,-32.085c13.74,-16.605 25.07,-23.964 25.453,-23.373c0.548,0.638 -9.715,8.988 -22.325,25.814c-6.24,8.412 -12.971,19.002 -18.309,31.699c-5.338,12.654 -9.153,27.491 -9.434,43.302c-0.327,15.825 2.534,30.883 7.138,43.835c4.631,12.974 10.778,23.904 16.618,32.587c11.808,17.391 21.929,25.959 21.36,26.576" style="fill:#ececec;fill-rule:nonzero;"/><path d="M1055.79,939.179c0.383,-0.591 11.623,7.029 24.594,24.284c6.414,8.614 13.146,19.702 18.236,33.106c5.064,13.377 8.234,29.126 7.894,45.714c-0.294,16.64 -4.479,32.211 -10.299,45.251c-5.823,13.093 -13.132,23.782 -19.923,32.089c-13.741,16.601 -25.074,23.96 -25.454,23.369c-0.551,-0.638 9.715,-8.988 22.329,-25.813c6.233,-8.413 12.968,-19.003 18.305,-31.696c5.338,-12.654 9.153,-27.494 9.434,-43.306c0.323,-15.825 -2.537,-30.883 -7.141,-43.831c-4.628,-12.978 -10.775,-23.907 -16.615,-32.591c-11.808,-17.39 -21.928,-25.958 -21.36,-26.576" style="fill:#ececec;fill-rule:nonzero;"/><rect x="1293.18" y="1017.35" width="751.619" height="558.221" style="fill:#fff;"/><path d="M2044.8,1575.57c-0.006,-5.817 -0.277,-220.305 -0.703,-558.221l0.703,0.704c-211.644,0.046 -471.331,0.099 -751.556,0.155l-0.063,-0l0.859,-0.859c-0.03,200.523 -0.056,390.507 -0.079,558.221l-0.78,-0.776c445.03,0.459 744.756,0.769 751.619,0.776c-6.86,0.006 -306.586,0.32 -751.619,0.776l-0.776,0.003l0,-0.779c-0.026,-167.714 -0.056,-357.698 -0.083,-558.221l0,-0.859l0.922,0c280.225,0.057 539.912,0.113 751.556,0.156l0.707,-0l-0.003,0.703c-0.426,337.916 -0.697,552.407 -0.704,558.221" style="fill:#1a2e35;fill-rule:nonzero;"/><path d="M2044.8,1100.07c0,0.479 -167.899,0.862 -374.965,0.862c-207.139,-0 -375.006,-0.383 -375.006,-0.862c0,-0.476 167.867,-0.859 375.006,-0.859c207.066,0 374.965,0.383 374.965,0.859" style="fill:#e1e1e1;fill-rule:nonzero;"/><path d="M1338.83,1058.38c-0,6.253 -5.067,11.319 -11.316,11.319c-6.25,0 -11.32,-5.066 -11.32,-11.319c0,-6.249 5.07,-11.316 11.32,-11.316c6.249,-0 11.316,5.067 11.316,11.316" style="fill:#e1e1e1;fill-rule:nonzero;"/><path d="M1372.93,1058.38c0,6.253 -5.067,11.319 -11.316,11.319c-6.249,0 -11.32,-5.066 -11.32,-11.319c0,-6.249 5.071,-11.316 11.32,-11.316c6.249,-0 11.316,5.067 11.316,11.316" style="fill:#e1e1e1;fill-rule:nonzero;"/><path d="M1407.03,1058.38c0,6.253 -5.066,11.319 -11.316,11.319c-6.249,0 -11.319,-5.066 -11.319,-11.319c-0,-6.249 5.07,-11.316 11.319,-11.316c6.25,-0 11.316,5.067 11.316,11.316" style="fill:#e1e1e1;fill-rule:nonzero;"/><path d="M1698.64,975.724c-3.372,-7.379 -11.851,-12.063 -19.894,-10.996c-8.991,-7.878 -23.62,-8.327 -33.077,-1.014c-6.85,-4.535 -16.105,-5.173 -23.514,-1.619c-7.408,3.551 -12.71,11.164 -13.466,19.346c-8.142,-1.714 -17.173,2.292 -21.364,9.483c-4.192,7.187 -3.234,17.017 2.269,23.263c-9.077,2.458 -15.451,12.373 -13.922,21.652c1.532,9.281 10.758,16.62 20.145,16.029l98.133,-53.905c6.067,-5.384 8.062,-14.861 4.69,-22.239" style="fill:#e1e1e1;fill-rule:nonzero;"/><path d="M1592.9,1054.42c5.506,-42.084 42.408,-72.875 84.799,-70.77l4.211,0.211c45.284,4.908 66.417,46.113 60.254,91.246l-14.091,150.912l-0.76,7.326l-105.848,15.801l2.064,-38.543c-0,0 -43.326,-8.957 -41.694,-52.633c0.789,-21.1 5.942,-64.406 11.065,-103.55" style="fill:#ffbf9d;fill-rule:nonzero;"/><path d="M1623.17,1210.52c-0,0 27.791,3.062 58.03,-13.902c0,0 -15.015,30.751 -58.374,24.654l0.344,-10.752Z" style="fill:#ff9a6c;fill-rule:nonzero;"/><path d="M1640.28,1129.31c0.05,-0.38 -4.082,-1.308 -10.801,-2.507c-1.701,-0.261 -3.306,-0.684 -3.537,-1.866c-0.34,-1.259 0.469,-3.069 1.397,-5.021c1.817,-4.062 3.716,-8.327 5.714,-12.792c7.957,-18.22 13.807,-33.239 13.074,-33.552c-0.74,-0.317 -7.789,14.199 -15.743,32.419c-1.922,4.498 -3.758,8.786 -5.506,12.885c-0.746,1.912 -1.972,4.066 -1.222,6.675c0.396,1.305 1.609,2.299 2.689,2.646c1.083,0.39 2.044,0.459 2.89,0.548c6.784,0.704 10.999,0.945 11.045,0.565" style="fill:#1a2e35;fill-rule:nonzero;"/><path d="M1598.09,1034.61c0,0 12.872,-26.764 26.372,-32.488c16.343,-6.933 22.341,10.926 37.76,7.431c15.422,-3.497 31.025,-10.15 45.981,2.379c16.373,13.714 7.954,22.345 8.043,41.766c0.36,78.741 13.599,101.661 19.514,64.875c0.648,-4.033 12.053,-6.695 14.573,-23.736c3.264,-22.09 5.457,-49.006 1.282,-65.01c-3.515,-13.486 -10.629,-23.035 -23.706,-33.826c-20.637,-17.034 -50.064,-18.84 -70.159,-17.82c-20.093,1.018 -59.778,22.107 -59.66,56.429" style="fill:#e1e1e1;fill-rule:nonzero;"/><path d="M1733.04,1117.24c0.611,-6.725 6.678,-11.759 13.36,-10.784c8.103,1.179 16.935,6.252 15.561,23.048c-2.434,29.797 -31.851,21.206 -31.831,20.347c0.013,-0.585 1.78,-20.152 2.91,-32.611" style="fill:#ffbf9d;fill-rule:nonzero;"/><path d="M1737.53,1139.17c0.139,-0.082 0.489,0.407 1.334,0.882c0.823,0.459 2.273,0.849 3.871,0.397c3.244,-0.902 6.303,-5.682 6.887,-11.039c0.297,-2.705 -0.059,-5.335 -0.845,-7.551c-0.73,-2.256 -2.015,-3.894 -3.581,-4.304c-1.542,-0.492 -2.745,0.36 -3.177,1.173c-0.466,0.799 -0.327,1.41 -0.489,1.45c-0.089,0.069 -0.601,-0.555 -0.258,-1.764c0.172,-0.581 0.578,-1.255 1.325,-1.77c0.763,-0.526 1.839,-0.734 2.933,-0.526c2.282,0.347 4.181,2.63 5.043,5.064c0.991,2.454 1.457,5.41 1.12,8.449c-0.68,5.992 -4.214,11.359 -8.624,12.251c-2.14,0.377 -3.835,-0.4 -4.68,-1.176c-0.866,-0.812 -0.965,-1.49 -0.859,-1.536" style="fill:#ff9a6c;fill-rule:nonzero;"/><path d="M1735.33,1059.39c-4.01,2.451 -8.238,4.978 -12.931,5.206c-4.694,0.231 -9.903,-2.715 -10.458,-7.383c-0.251,-2.094 0.374,-4.482 -0.908,-6.15c-1.536,-1.998 -4.575,-1.549 -7.088,-1.407c-8.724,0.489 -17.302,-6.091 -19.092,-14.642c-2.378,3.204 -7.534,2.804 -10.778,0.479c-3.24,-2.326 -5.222,-5.969 -7.696,-9.097c-2.47,-3.134 -6.014,-6.001 -9.988,-5.635c-2.223,0.205 -4.353,1.414 -6.563,1.107c-3.901,-0.542 -5.585,-5.226 -5.985,-9.146c-0.4,-3.918 -0.638,-8.482 -3.851,-10.762c-2.98,-2.11 -7.023,-1.175 -10.656,-0.822c-3.633,0.35 -8.251,-0.727 -8.997,-4.301c-0.397,-1.876 0.495,-3.782 1.602,-5.347c5.007,-7.085 15.306,-9.833 23.18,-6.183c3.412,-9.718 13.014,-16.935 23.296,-17.506c10.279,-0.569 20.624,5.539 25.09,14.817c6.593,-5.407 15.878,-7.356 24.089,-5.047c8.208,2.305 15.121,8.802 17.932,16.855c7.353,-1.549 15.488,1.668 19.795,7.832c4.301,6.16 4.525,14.906 0.542,21.281c5.212,3.33 9.536,8.889 9.344,15.072c-0.198,6.183 -6.52,12.039 -12.399,10.117c2.166,4.931 -0.116,11.362 -4.909,13.816c-4.796,2.455 -11.349,0.552 -14.08,-4.089" style="fill:#e1e1e1;fill-rule:nonzero;"/><path d="M1755,1048.77c0.106,-0.072 0.426,2.537 -2.144,5.645c-1.268,1.47 -3.389,2.963 -6.16,3.267c-2.708,0.32 -5.972,-0.502 -8.383,-2.894l1.272,-0.125c-1.602,2.497 -3.683,5.017 -6.329,7.144c-1.701,1.358 -3.571,2.491 -5.605,3.112c-1.999,0.683 -4.231,0.647 -6.035,0.261c-3.762,-0.605 -6.963,-2.801 -8.37,-5.368c-1.47,-2.517 -1.859,-4.802 -2.104,-6.328c-0.228,-1.546 -0.214,-2.408 -0.112,-2.425c0.132,-0.02 0.344,0.809 0.766,2.283c0.433,1.45 1.021,3.623 2.474,5.813c2.616,4.419 11.726,7.062 17.916,1.308c2.454,-1.975 4.462,-4.354 6.025,-6.692l0.571,-0.852l0.704,0.726c1.952,2.015 4.736,2.834 7.081,2.649c2.378,-0.161 4.288,-1.334 5.543,-2.576c2.53,-2.599 2.635,-5.037 2.89,-4.948" style="fill:#fff;fill-rule:nonzero;"/><path d="M1701.99,977.807c0.013,0.106 -0.786,0.172 -2.147,0.671c-1.331,0.502 -3.309,1.532 -4.832,3.709l-0.383,0.552l-0.39,-0.575c-2.603,-3.881 -7.042,-8.925 -13.849,-12.403c-3.383,-1.704 -7.35,-2.956 -11.624,-3.161c-4.248,-0.231 -8.759,0.773 -12.812,2.986c-3.158,1.711 -5.857,4.069 -7.881,6.758c-1.989,2.718 -3.27,5.783 -3.729,8.832l-0.142,0.941l-0.896,-0.293c-4.419,-1.457 -9.033,-0.81 -12.475,0.895c-3.498,1.701 -5.8,4.446 -7.148,6.933c-2.669,5.133 -1.995,8.802 -2.299,8.749c-0.069,0.007 -0.274,-0.845 -0.241,-2.46c0.05,-1.599 0.37,-4.007 1.681,-6.729c1.295,-2.682 3.663,-5.734 7.406,-7.682c3.679,-1.936 8.66,-2.755 13.572,-1.213l-1.034,0.648c0.453,-3.33 1.82,-6.676 3.947,-9.622c2.164,-2.91 5.047,-5.44 8.413,-7.27c4.32,-2.362 9.186,-3.422 13.727,-3.134c4.549,0.257 8.714,1.641 12.225,3.488c7.058,3.768 11.478,9.129 13.948,13.238l-0.772,-0.023c1.8,-2.319 3.996,-3.254 5.44,-3.637c1.476,-0.37 2.295,-0.264 2.295,-0.198" style="fill:#fff;fill-rule:nonzero;"/><path d="M1669.84,1139.79c-0.483,-0.023 -0.512,-3.174 -2.924,-5.899c-2.315,-2.811 -5.423,-3.333 -5.37,-3.812c0.01,-0.215 0.859,-0.423 2.203,-0.125c1.334,0.287 3.101,1.212 4.479,2.817c1.371,1.612 2.001,3.501 2.077,4.865c0.083,1.378 -0.257,2.18 -0.465,2.154" style="fill:#ff9a6c;fill-rule:nonzero;"/><path d="M1672.89,1131.67c-0.429,0.235 -1.46,-0.858 -3.012,-1.641c-1.526,-0.833 -3.012,-1.06 -3.065,-1.546c-0.099,-0.459 1.823,-1.057 3.864,0.02c2.048,1.07 2.646,2.989 2.213,3.167" style="fill:#ff9a6c;fill-rule:nonzero;"/><path d="M1705.07,1203.27c-0.02,-0.142 0.442,-0.204 0.835,-0.746c0.39,-0.519 0.714,-1.546 0.199,-2.629c-0.427,-1.156 -1.728,-2.217 -2.56,-4.195c-0.41,-0.938 -0.483,-2.398 0.211,-3.475c0.624,-1.054 1.5,-1.724 2.041,-2.451c2.425,-2.87 -4.228,-5.215 -3.207,-8.981c0.218,-1.585 1.084,-2.616 1.757,-3.108c0.704,-0.495 1.193,-0.525 1.226,-0.433c0.181,0.192 -1.655,1.084 -1.771,3.64c-0.069,1.262 0.648,2.365 2.045,3.62c0.661,0.641 1.45,1.441 1.906,2.574c0.548,1.113 0.244,2.817 -0.588,3.729c-0.753,0.961 -1.559,1.588 -1.962,2.272c-0.413,0.641 -0.416,1.315 -0.165,2.078c0.492,1.486 1.773,2.781 2.213,4.32c0.528,1.576 -0.162,3.003 -0.872,3.518c-0.76,0.575 -1.338,0.35 -1.308,0.267" style="fill:#ff9a6c;fill-rule:nonzero;"/><path d="M1714.38,1202.3c-0.139,-0.026 -0.126,-0.449 -0.344,-1.097c-0.208,-0.657 -0.743,-1.496 -1.539,-2.576c-0.387,-0.548 -0.836,-1.166 -1.202,-1.969c-0.36,-0.782 -0.608,-1.876 -0.298,-2.936c0.598,-2.127 2.412,-3.389 3.31,-4.902c1.004,-1.486 0.228,-2.814 -0.991,-4.168c-0.561,-0.68 -1.156,-1.401 -1.509,-2.259c-0.354,-0.853 -0.42,-1.708 -0.357,-2.451c0.396,-3.102 2.523,-3.921 2.517,-3.703c0.208,0.179 -1.308,1.292 -1.305,3.756c0,1.242 0.581,2.358 1.846,3.616c0.585,0.654 1.318,1.388 1.744,2.531c0.453,1.149 0.159,2.596 -0.472,3.564c-1.252,1.932 -2.86,3.068 -3.257,4.449c-0.459,1.295 0.38,2.672 1.001,3.825c0.664,1.156 1.146,2.269 1.173,3.104c0.029,0.836 -0.232,1.242 -0.317,1.216" style="fill:#ff9a6c;fill-rule:nonzero;"/><path d="M1787.8,1443.36l39.62,38.183l-12.803,-73.033l80.419,-25.436c0,-0 21.357,100.227 25.07,123.932c6.665,42.533 -1.516,102.995 -41.152,107.249c-42.884,4.605 -75.26,-37.687 -95.867,-65.442c-15.842,-21.335 -41.407,-58.639 -41.407,-58.639l46.12,-46.814" style="fill:#e1e1e1;fill-rule:nonzero;"/><path d="M1481.44,1378.4c-12.905,40.637 -30.946,46.777 -38.071,163.172c-1.39,22.695 3.508,52.984 25.04,60.3c23.918,8.132 60.522,-6.675 72.003,-26.305l0,-80.158l-58.972,-117.009Z" style="fill:#e1e1e1;fill-rule:nonzero;"/><path d="M1534.75,1548.42c-0.433,0.132 -2.653,-8.122 -7.914,-17.107c-5.196,-9.027 -11.264,-15.045 -10.933,-15.355c0.125,-0.126 1.8,1.212 4.161,3.748c2.362,2.527 5.341,6.313 8.007,10.891c2.652,4.584 4.462,9.05 5.49,12.353c1.027,3.306 1.36,5.427 1.189,5.47" style="fill:#1a2e35;fill-rule:nonzero;"/><path d="M1462,1425.25c0.677,-2.408 40.37,-110.443 53.034,-134.089c15.147,-28.287 46.988,-40.799 66.76,-42.018c19.766,-1.219 231.301,15.64 231.301,15.64c-0,-0 59.25,14.883 71.236,68.495c15.036,67.233 27.131,133.531 27.131,133.531l-106.02,22.893l-12.476,-31.412l-199.205,44.446l-48.647,-71.95l-83.114,-5.536Z" style="fill:#e1e1e1;fill-rule:nonzero;"/><path d="M1827.07,1270.95l-82.625,-36.426l-9.258,-35.636l-96.449,45.595l-20.204,-22.322l-8.456,25.159l-21.136,6.91l-41.582,82.004l-7.663,189.996l0.717,49.347l285.047,1.9l-2.312,-80.805l3.921,-225.722Z" style="fill:#e1e1e1;fill-rule:nonzero;"/><path d="M1735.19,1198.88c0,0 -10.784,3.118 -38.477,17.899c-27.134,14.478 -57.968,27.7 -57.968,27.7l2.342,43.55l102.642,-51.527" style="fill:#e1e1e1;fill-rule:nonzero;"/><path d="M1618.54,1222.16l20.205,22.322l-10.798,46.685l-17.994,-42.196" style="fill:#e1e1e1;fill-rule:nonzero;"/><g opacity="0.3"><path d="M1638.36,1249.3c-0.895,0.667 -6.504,53.875 -6.504,53.875l102.886,-62.166l-93.663,47.025l-2.719,-38.734Z" style="fill-rule:nonzero;"/></g><path d="M1639.3,1576.23c-0,0 -2.121,-78.899 -0.241,-128.352c1.546,-40.697 -4.869,-144.52 -4.869,-144.52l-13.41,-2.164c-0,0 -25.054,100.93 -34.408,224.609l-3.788,50.051" style="fill:#ff735d;fill-rule:nonzero;"/><path d="M1802.64,1366.89c0.099,-0.016 0.436,1.48 0.958,4.202c0.539,2.983 1.242,6.87 2.091,11.554c1.718,10.008 4.02,23.375 6.556,38.15c2.597,14.896 4.81,28.416 6.263,38.222c0.73,4.899 1.295,8.869 1.648,11.62c0.354,2.748 0.506,4.274 0.41,4.291c-0.103,0.017 -0.436,-1.48 -0.958,-4.201c-0.542,-2.98 -1.249,-6.867 -2.098,-11.551c-1.75,-10.002 -4.085,-23.366 -6.675,-38.137c-2.57,-14.903 -4.687,-28.432 -6.147,-38.236c-0.664,-4.71 -1.215,-8.624 -1.638,-11.62c-0.354,-2.751 -0.506,-4.28 -0.41,-4.294" style="fill:#1a2e35;fill-rule:nonzero;"/><path d="M1833.22,1277.24c0.159,0.205 -2.787,2.497 -6.949,6.788c-4.172,4.277 -9.401,10.738 -13.734,18.757c-4.301,8.043 -6.808,15.971 -8.073,21.807c-1.281,5.84 -1.572,9.562 -1.826,9.542c-0.096,-0.006 -0.099,-0.941 -0.02,-2.629c0.053,-1.691 0.333,-4.129 0.855,-7.111c1.027,-5.962 3.422,-14.097 7.805,-22.282c4.407,-8.169 9.873,-14.656 14.279,-18.801c2.2,-2.081 4.076,-3.66 5.457,-4.634c1.367,-1.001 2.147,-1.513 2.206,-1.437" style="fill:#1a2e35;fill-rule:nonzero;"/><path d="M1639.06,1265.3l-9.186,-3.584l-8.71,14.94l-1.572,24.535l12.267,1.978l9.223,-15.141l-2.022,-22.728Z" style="fill:#ff735d;fill-rule:nonzero;"/><path d="M1539.7,1338.3c0.397,-0 0.717,53.119 0.717,118.631c0,65.532 -0.32,118.638 -0.717,118.638c-0.393,0 -0.713,-53.106 -0.713,-118.638c-0,-65.512 0.32,-118.631 0.713,-118.631" style="fill:#1a2e35;fill-rule:nonzero;"/><path d="M1639.71,1244.1c0.179,0.122 -1.981,3.422 -5.238,8.879c-3.257,5.449 -7.571,13.099 -11.68,21.872c-0.337,0.717 -0.664,1.434 -0.977,2.101l-0.638,1.381l-0.654,-1.371c-3.96,-8.33 -6.817,-16.086 -8.588,-21.747c-0.891,-2.831 -1.529,-5.137 -1.919,-6.739c-0.393,-1.601 -0.551,-2.5 -0.465,-2.523c0.201,-0.059 1.301,3.395 3.309,8.948c2.008,5.552 5.001,13.189 8.951,21.45l-1.294,0.01c0.313,-0.674 0.647,-1.394 0.981,-2.121c4.138,-8.832 8.624,-16.459 12.115,-21.8c1.747,-2.672 3.237,-4.783 4.304,-6.213c1.073,-1.427 1.714,-2.183 1.793,-2.127" style="fill:#1a2e35;fill-rule:nonzero;"/><path d="M1744.45,1234.52c0.02,0.043 -0.466,0.334 -1.41,0.846c-1.09,0.571 -2.468,1.288 -4.162,2.176c-3.792,1.965 -8.988,4.654 -15.333,7.944c-12.938,6.725 -30.652,16.314 -50.285,26.804c-11.957,6.368 -23.28,12.271 -33.129,17.202l-0.909,0.449l-0.01,-1.004c-0.125,-12.779 -0.234,-23.544 -0.307,-31.329c0.007,-3.656 0.013,-6.613 0.017,-8.832c0.026,-2.041 0.072,-3.135 0.142,-3.135c0.066,0 0.155,1.09 0.254,3.128c0.083,2.22 0.195,5.169 0.334,8.826c0.204,7.785 0.489,18.546 0.822,31.319l-0.918,-0.555c9.793,-5.017 21.08,-10.966 33.03,-17.331c19.627,-10.487 37.43,-19.937 50.497,-26.44c6.526,-3.264 11.848,-5.824 15.547,-7.545c1.747,-0.789 3.161,-1.43 4.284,-1.935c0.984,-0.43 1.513,-0.634 1.536,-0.588" style="fill:#1a2e35;fill-rule:nonzero;"/><path d="M1552.11,1268.08c0.204,0.125 -1.411,2.86 -3.488,7.514c-2.085,4.648 -4.473,11.297 -5.89,18.933c-1.393,7.637 -1.526,14.705 -1.232,19.789c0.288,5.086 0.823,8.218 0.588,8.264c-0.095,0.02 -0.32,-0.747 -0.644,-2.15c-0.34,-1.404 -0.677,-3.469 -0.951,-6.038c-0.562,-5.123 -0.585,-12.34 0.832,-20.122c1.444,-7.782 4.037,-14.514 6.385,-19.105c1.166,-2.302 2.216,-4.112 3.032,-5.301c0.803,-1.199 1.285,-1.837 1.368,-1.784" style="fill:#1a2e35;fill-rule:nonzero;"/><path d="M1629.62,1304.76c-0.208,0.337 -2.547,-0.76 -5.209,-2.445c-2.669,-1.684 -4.657,-3.319 -4.449,-3.653c0.211,-0.333 2.543,0.76 5.209,2.448c2.668,1.681 4.657,3.316 4.449,3.65" style="fill:#1a2e35;fill-rule:nonzero;"/><path d="M1634.03,1298.77c-0.36,0.159 -3.154,-5.403 -6.239,-12.422c-3.082,-7.023 -5.288,-12.839 -4.928,-12.998c0.363,-0.158 3.151,5.401 6.239,12.423c3.079,7.016 5.288,12.839 4.928,12.997" style="fill:#1a2e35;fill-rule:nonzero;"/><g opacity="0.3"><path d="M1692.14,1516.06c-0.538,-2.262 -1.228,-4.743 -3.177,-6.005c-3.412,-2.219 -7.676,0.701 -11.178,2.782c-9.189,5.476 -20.558,5.281 -31.246,4.815c-32.224,-1.403 -64.465,-3.798 -96.28,-9.139c-15.584,-2.616 -31.286,-6.018 -45.222,-13.467c-13.935,-7.445 -26.07,-19.458 -30.553,-34.609l-7.438,-4.042c5.77,12.31 5.173,47.173 7.244,60.607c2.071,13.44 8.023,23.018 20.961,27.197c5.198,1.674 10.794,1.42 16.25,1.152c53.05,-2.629 106.579,-0.241 159.632,-2.87c7.581,-0.373 16.343,-1.4 20.426,-7.798c3.435,-5.391 2.068,-12.406 0.581,-18.623" style="fill-rule:nonzero;"/></g><path d="M1891.48,1546.36c-0.017,0.006 -0.139,-0.205 -0.364,-0.621c-0.247,-0.479 -0.561,-1.094 -0.961,-1.87c-0.426,-0.852 -0.938,-1.869 -1.536,-3.065c-0.766,-1.14 -1.638,-2.444 -2.619,-3.908c-4.023,-5.843 -10.963,-13.598 -20.591,-22.374c-9.585,-8.819 -21.757,-18.742 -35.441,-30.088c-6.811,-5.717 -14.058,-11.722 -21.315,-18.404c-7.243,-6.689 -14.698,-13.859 -21.39,-22.249l1.034,0.049c-12.886,13.477 -26.851,28.079 -41.318,43.211c-1.889,1.975 -3.772,3.94 -5.519,5.763l0.076,-0.895c15.616,22.831 29.813,44.928 44.749,63.458c7.402,9.311 15.029,17.625 22.47,25.113c7.403,7.511 14.649,14.163 21.847,19.458c14.279,10.774 28.62,15.408 38.589,15.164c1.242,0 2.414,0.05 3.514,0.01c1.094,-0.119 2.118,-0.228 3.072,-0.33c0.948,-0.099 1.83,-0.195 2.636,-0.278c0.783,-0.178 1.496,-0.34 2.14,-0.485c1.229,-0.268 2.193,-0.476 2.917,-0.631c0.66,-0.136 1.001,-0.195 1.011,-0.172c0.006,0.023 -0.324,0.126 -0.972,0.307c-0.72,0.195 -1.674,0.449 -2.893,0.77c-0.644,0.168 -1.358,0.353 -2.144,0.551c-0.809,0.109 -1.691,0.225 -2.642,0.351c-0.961,0.122 -1.995,0.254 -3.095,0.396c-1.106,0.063 -2.292,0.033 -3.551,0.053c-10.077,0.423 -24.703,-4.139 -39.167,-14.91c-7.3,-5.285 -14.622,-11.931 -22.091,-19.432c-7.488,-7.468 -15.2,-15.801 -22.652,-25.119c-15.052,-18.553 -29.314,-40.674 -44.917,-63.465l-0.331,-0.482l0.403,-0.419c1.747,-1.824 3.627,-3.789 5.516,-5.767c14.484,-15.115 28.466,-29.704 41.364,-43.164l0.542,-0.565l0.489,0.614c6.592,8.304 13.991,15.465 21.182,22.147c7.204,6.682 14.424,12.707 21.195,18.451c13.622,11.408 25.741,21.426 35.277,30.361c9.575,8.885 16.459,16.779 20.389,22.745c0.951,1.496 1.8,2.827 2.54,3.993c0.562,1.222 1.044,2.266 1.444,3.138c0.356,0.799 0.64,1.43 0.862,1.926c0.185,0.432 0.27,0.657 0.251,0.664" style="fill:#1a2e35;fill-rule:nonzero;"/><g opacity="0.3"><path d="M1751.16,1505.23l-4.499,-1.364c3.881,22.309 16.115,53.839 27.171,73.601l32.217,0c-12.201,-15.266 -54.889,-72.237 -54.889,-72.237" style="fill-rule:nonzero;"/></g><path d="M1781.45,1449.65l-65.235,-71.246l-39.114,-7.422l-44.383,5.621c0,0 -1.876,7.032 5.622,10.778l-16.399,0.938c-0,0 -3.28,8.433 6.09,12.182l-11.716,2.058c0,-0 5.153,12.003 18.276,9.658c13.123,-2.342 34.675,-2.342 34.675,-2.342l22.96,12.65l-34.203,-1.407l-24.839,4.687c0,0 -3.28,6.352 2.342,7.861c5.625,1.513 27.18,0 27.18,0l31.003,9.837c-0,-0 12.115,17.195 16.333,21.882c4.215,4.687 24.36,13.374 24.36,13.374l9.925,8.885l37.123,-37.994Z" style="fill:#ffbf9d;fill-rule:nonzero;"/><path d="M1621.94,1388.32c0.04,0.347 4.905,0.142 12.743,-0.472c7.838,-0.615 18.649,-1.639 30.57,-2.92c3.977,-0.446 7.815,-0.879 11.441,-1.282l-0.469,-0.043c8.872,2.504 16.578,4.578 22.084,5.955c5.51,1.378 8.819,2.062 8.902,1.784c0.083,-0.281 -3.078,-1.48 -8.469,-3.27c-5.387,-1.79 -13.007,-4.172 -21.833,-6.817l-0.228,-0.066l-0.248,0.026c-3.633,0.377 -7.474,0.776 -11.451,1.189c-11.921,1.288 -22.702,2.59 -30.487,3.66c-7.792,1.073 -12.591,1.909 -12.555,2.256" style="fill:#ff9a6c;fill-rule:nonzero;"/><path d="M1619.11,1402.07c0.052,0.346 4.462,0.023 11.55,-0.783c7.088,-0.806 16.855,-2.094 27.617,-3.673c3.729,-0.562 7.316,-1.107 10.718,-1.619l-0.631,-0.072c15.399,6.008 26.755,10.031 26.969,9.496c0.218,-0.538 -10.777,-5.47 -26.061,-11.759l-0.297,-0.122l-0.337,0.05c-3.402,0.478 -6.995,0.987 -10.728,1.519c-10.764,1.575 -20.489,3.144 -27.511,4.406c-7.022,1.259 -11.339,2.213 -11.289,2.557" style="fill:#ff9a6c;fill-rule:nonzero;"/><path d="M1453.09,1390.99l33.07,124.92c1.829,6.926 8.158,11.699 15.319,11.561l171.235,-3.363c9.744,-0.192 16.908,-9.202 14.9,-18.738l-25.222,-119.642c-1.512,-7.191 -7.854,-12.334 -15.2,-12.334l-180.56,0c-9.196,0 -15.897,8.711 -13.542,17.596" style="fill:#1a2e35;fill-rule:nonzero;"/><path d="M1565,1423.75c4.641,2.282 6.762,7.478 4.734,11.603c-2.028,4.126 -7.432,5.619 -12.08,3.336c-4.64,-2.279 -6.761,-7.474 -4.733,-11.6c2.028,-4.125 7.435,-5.618 12.079,-3.339" style="fill:#fff;fill-rule:nonzero;"/><path d="M1440.67,1418.34c-3.343,-3.683 -3.049,-9.78 -0.07,-13.76c2.98,-3.981 8.076,-5.979 13.044,-6.164c4.968,-0.185 9.86,1.235 14.504,3.013c5.734,2.189 11.253,4.944 16.452,8.204c3.67,2.309 7.475,5.308 8.191,9.586c0.72,4.277 -3.924,9.156 -7.696,7.009c4.899,2.064 9.837,7.24 10.62,12.65c0.786,5.411 -2.104,8.317 -7.346,9.876c3.986,1.553 6.536,6.557 4.71,10.428c-1.919,4.069 -7.525,5.186 -11.729,3.577c-4.198,-1.609 -7.3,-5.156 -10.22,-8.575c2.989,5.127 4.043,11.353 2.913,17.179c-11.563,-3.953 -20.442,-14.85 -21.971,-26.979c-5.675,-4.267 -7.567,-12.839 -4.218,-19.098c-4.667,-1.46 -9.955,-8.574 -9.592,-13.45" style="fill:#ffbf9d;fill-rule:nonzero;"/><path d="M1488.26,1448.81c-0.129,0.145 -1.955,-1.443 -5.007,-3.825c-3.046,-2.319 -7.485,-5.523 -13.186,-6.748c-2.818,-0.598 -5.622,-0.598 -8.023,0.01c-2.408,0.595 -4.406,1.727 -5.853,2.923c-2.94,2.444 -3.597,4.925 -3.812,4.809c-0.066,-0.019 0.007,-0.64 0.443,-1.668c0.436,-1.024 1.305,-2.437 2.774,-3.818c1.474,-1.364 3.564,-2.665 6.154,-3.379c2.583,-0.72 5.592,-0.753 8.581,-0.119c6.041,1.305 10.553,4.776 13.49,7.293c2.946,2.593 4.545,4.41 4.439,4.522" style="fill:#ff9a6c;fill-rule:nonzero;"/><path d="M1486.99,1426.76c-0.07,0.169 -2.435,-0.749 -6.078,-2.536c-1.83,-0.869 -3.99,-1.926 -6.467,-2.824c-2.471,-0.866 -5.341,-1.622 -8.321,-2.154c-2.995,-0.515 -5.905,-0.581 -8.452,-0.086c-2.543,0.492 -4.694,1.549 -6.259,2.722c-3.201,2.378 -3.871,5.001 -4.089,4.878c-0.063,-0.019 0.013,-0.663 0.489,-1.73c0.475,-1.054 1.43,-2.507 3.045,-3.852c1.602,-1.347 3.858,-2.569 6.58,-3.157c2.715,-0.601 5.796,-0.555 8.895,-0.027c3.111,0.558 5.952,1.345 8.521,2.312c2.54,0.991 4.687,2.147 6.468,3.122c3.537,1.991 5.734,3.174 5.668,3.332" style="fill:#ff9a6c;fill-rule:nonzero;"/><path d="M1414.27,1145.94l-41.8,-0.944c-8.036,-15.436 -20.3,-28.912 -36.333,-38.494c-46.111,-27.56 -105.829,-12.522 -133.39,33.589c-27.56,46.106 -12.521,105.828 33.589,133.385c46.11,27.561 105.829,12.522 133.389,-33.588c11.508,-19.253 15.564,-40.878 13.054,-61.542l0.023,0.05l31.468,-32.456Z" style="fill:#fafafa;fill-rule:nonzero;"/><path d="M1414.27,1145.94c-1.479,1.549 -11.355,11.875 -31.253,32.664l-0.32,0.333l-0.172,-0.432l-0.02,-0.05l0.578,-0.145c0.839,6.966 1.067,14.844 0.086,23.362c-1.034,8.492 -3.201,17.642 -7.148,26.807c-1.991,4.565 -4.29,9.203 -7.233,13.622c-1.49,2.2 -2.927,4.486 -4.519,6.702c-1.737,2.111 -3.498,4.251 -5.285,6.418c-7.517,8.34 -16.888,15.867 -27.874,21.535c-10.959,5.685 -23.521,9.503 -36.822,10.633c-13.281,1.126 -27.323,-0.387 -40.7,-5.169c-13.354,-4.793 -26.047,-12.644 -36.568,-23.194c-10.464,-10.54 -19.005,-23.66 -23.649,-38.428l-1.711,-5.654c-0.595,-1.877 -0.836,-3.839 -1.265,-5.744c-0.337,-1.926 -0.892,-3.812 -1.044,-5.761l-0.598,-5.8c-0.274,-1.922 -0.264,-3.858 -0.264,-5.79c-0.017,-1.929 -0.03,-3.855 -0.043,-5.774c0.168,-1.912 0.33,-3.821 0.495,-5.721c0.205,-1.899 0.248,-3.815 0.688,-5.671c2.437,-15.009 8.336,-29.043 16.624,-40.875c8.284,-11.838 18.909,-21.552 30.691,-28.29c11.762,-6.798 24.466,-10.864 36.885,-12.439c12.436,-1.592 24.568,-0.704 35.594,1.952c11.055,2.695 20.782,7.451 29.334,12.604c8.439,5.384 15.421,11.676 21.007,18.111c5.589,6.44 9.783,13.013 12.964,19.117l-0.248,-0.155c26.696,0.786 39.742,1.169 41.79,1.232c-2.048,-0.033 -15.098,-0.234 -41.803,-0.657l-0.168,-0l-0.079,-0.155c-3.208,-6.045 -7.409,-12.552 -12.991,-18.917c-5.579,-6.355 -12.529,-12.568 -20.918,-17.872c-8.502,-5.08 -18.15,-9.758 -29.113,-12.4c-10.926,-2.593 -22.936,-3.445 -35.237,-1.84c-12.284,1.586 -24.845,5.632 -36.462,12.37c-11.64,6.679 -22.123,16.294 -30.298,28.003c-8.182,11.703 -13.999,25.572 -16.393,40.399c-0.436,1.83 -0.479,3.726 -0.677,5.599c-0.162,1.876 -0.327,3.765 -0.489,5.651c0.013,1.896 0.026,3.799 0.043,5.708c-0,1.906 -0.01,3.818 0.261,5.718l0.597,5.727c0.146,1.922 0.697,3.789 1.024,5.691c0.43,1.883 0.664,3.818 1.252,5.671l1.695,5.586c4.584,14.589 13.02,27.544 23.349,37.965c10.384,10.424 22.923,18.19 36.112,22.943c13.218,4.736 27.091,6.252 40.217,5.156c13.156,-1.097 25.589,-4.853 36.446,-10.448c10.883,-5.589 20.171,-13.01 27.64,-21.248c1.773,-2.144 3.524,-4.258 5.255,-6.342c1.578,-2.193 3.012,-4.453 4.495,-6.623c2.933,-4.369 5.225,-8.961 7.22,-13.476c3.944,-9.077 6.131,-18.14 7.198,-26.563c1.014,-8.449 0.832,-16.274 0.039,-23.207l-0.257,-2.266l0.835,2.121l0.02,0.049l-0.495,-0.095c20.168,-20.525 30.183,-30.719 31.682,-32.248" style="fill:#1a2e35;fill-rule:nonzero;"/><path d="M1257.4,1187.51c-0,5.457 -4.423,9.883 -9.879,9.883c-5.46,-0 -9.88,-4.426 -9.88,-9.883c0,-5.457 4.42,-9.879 9.88,-9.879c5.456,-0 9.879,4.422 9.879,9.879" style="fill:#1a2e35;fill-rule:nonzero;"/><path d="M1296.95,1187.51c-0,5.457 -4.423,9.883 -9.88,9.883c-5.46,-0 -9.882,-4.426 -9.882,-9.883c-0,-5.457 4.422,-9.879 9.882,-9.879c5.457,-0 9.88,4.422 9.88,9.879" style="fill:#1a2e35;fill-rule:nonzero;"/><path d="M1336.39,1182.57c2.725,4.726 1.107,10.767 -3.62,13.496c-4.723,2.728 -10.764,1.11 -13.496,-3.617c-2.728,-4.723 -1.11,-10.771 3.617,-13.499c4.727,-2.725 10.771,-1.11 13.499,3.62" style="fill:#1a2e35;fill-rule:nonzero;"/><rect x="985.59" y="355.481" width="751.622" height="549.494" style="fill:#fff;"/><path d="M1737.21,904.976c-0.007,-5.783 -0.277,-216.529 -0.704,-549.494l0.704,0.7c-210.914,0.043 -470.866,0.099 -751.56,0.159l-0.059,-0l0.859,-0.859c-0.03,197.151 -0.056,384.046 -0.08,549.494l-0.779,-0.779c444.679,0.462 744.726,0.773 751.619,0.779c-6.887,0.007 -306.94,0.317 -751.619,0.78l-0.783,-0l0,-0.78c-0.023,-165.448 -0.049,-352.343 -0.079,-549.494l-0,-0.862l0.921,0c280.694,0.059 540.646,0.116 751.56,0.159l0.7,-0l0,0.703c-0.426,332.965 -0.693,543.714 -0.7,549.494" style="fill:#1a2e35;fill-rule:nonzero;"/><path d="M1739.76,435.451c0,0.475 -167.902,0.858 -374.965,0.858c-207.143,0 -375.006,-0.383 -375.006,-0.858c0,-0.476 167.863,-0.859 375.006,-0.859c207.063,-0 374.965,0.383 374.965,0.859" style="fill:#e1e1e1;fill-rule:nonzero;"/><path d="M1033.79,393.763c-0,6.252 -5.067,11.319 -11.32,11.319c-6.249,0 -11.316,-5.067 -11.316,-11.319c0,-6.249 5.067,-11.316 11.316,-11.316c6.253,-0 11.32,5.067 11.32,11.316" style="fill:#e1e1e1;fill-rule:nonzero;"/><path d="M1067.89,393.763c0,6.252 -5.067,11.319 -11.316,11.319c-6.249,0 -11.319,-5.067 -11.319,-11.319c-0,-6.249 5.07,-11.316 11.319,-11.316c6.249,-0 11.316,5.067 11.316,11.316" style="fill:#e1e1e1;fill-rule:nonzero;"/><path d="M1102,393.763c-0,6.252 -5.067,11.319 -11.316,11.319c-6.253,0 -11.32,-5.067 -11.32,-11.319c0,-6.249 5.067,-11.316 11.32,-11.316c6.249,-0 11.316,5.067 11.316,11.316" style="fill:#e1e1e1;fill-rule:nonzero;"/><path d="M1034.45,573.005l4.74,-3.016c8.703,-5.536 20.247,-2.54 25.215,6.504c7.63,13.889 17.093,33.291 17.093,33.291l-20.023,31.706l-6.718,0.198c-7.287,4.644 -24.31,-4.74 -35.831,-11.726c-11.521,-6.989 -5.85,-14.031 -5.85,-14.031c-7.22,-9.949 2.735,-14.051 2.735,-14.051c-6.124,-9.054 2.926,-15.181 2.926,-15.181" style="fill:#ffbf9d;fill-rule:nonzero;"/><path d="M1063.33,675.538l-144.814,27.752l-38.86,-202.772l144.814,-27.752l38.86,202.772Z" style="fill:#fff;"/><path d="M918.515,703.29c-0.01,0.017 -0.086,-0.287 -0.221,-0.908c-0.142,-0.684 -0.334,-1.599 -0.578,-2.784c-0.512,-2.547 -1.245,-6.207 -2.193,-10.937c-1.906,-9.684 -4.671,-23.732 -8.162,-41.479c-6.96,-35.818 -16.819,-86.552 -28.472,-146.516l-0.149,-0.769l0.77,-0.145c43.748,-8.407 92.937,-17.863 144.778,-27.825l0.02,-0.003l0.845,-0.162l0.159,0.845c14.49,75.927 27.89,146.152 38.701,202.803l0.129,0.687l-0.684,0.128c-44.045,8.284 -80.329,15.112 -105.67,19.878c-12.532,2.322 -22.358,4.145 -29.123,5.397c-3.276,0.595 -5.813,1.054 -7.593,1.377c-1.708,0.301 -2.557,0.413 -2.557,0.413c0,0 0.928,-0.228 2.676,-0.591c1.803,-0.363 4.369,-0.882 7.692,-1.552c6.781,-1.345 16.638,-3.293 29.206,-5.781c25.208,-4.918 61.297,-11.963 105.105,-20.511l-0.551,0.815c-10.9,-56.63 -24.41,-126.836 -39.019,-202.739l1.004,0.68l-0.013,0.004c-51.854,9.909 -101.053,19.309 -144.811,27.672l0.621,-0.915c11.303,59.818 20.865,110.43 27.616,146.159c3.33,17.856 5.966,31.99 7.785,41.734c0.879,4.809 1.56,8.532 2.035,11.124c0.215,1.226 0.38,2.177 0.506,2.887c0.112,0.654 0.161,0.998 0.148,1.014" style="fill:#1a2e35;fill-rule:nonzero;"/><path d="M903.829,546.971c-0.089,-0.469 23.815,-5.44 53.387,-11.108c29.582,-5.668 53.624,-9.883 53.713,-9.417c0.093,0.466 -23.808,5.44 -53.39,11.108c-29.568,5.665 -53.621,9.883 -53.71,9.417" style="fill:#1a2e35;fill-rule:nonzero;"/><path d="M906.574,561.289c-0.089,-0.469 23.815,-5.44 53.387,-11.108c29.578,-5.668 53.624,-9.882 53.714,-9.417c0.089,0.466 -23.812,5.441 -53.39,11.109c-29.572,5.664 -53.622,9.882 -53.711,9.416" style="fill:#1a2e35;fill-rule:nonzero;"/><path d="M909.317,575.608c-0.089,-0.469 23.815,-5.44 53.387,-11.108c29.582,-5.668 53.625,-9.883 53.714,-9.417c0.089,0.466 -23.808,5.44 -53.39,11.108c-29.572,5.665 -53.622,9.883 -53.711,9.417" style="fill:#1a2e35;fill-rule:nonzero;"/><path d="M912.061,589.926c-0.089,-0.469 23.815,-5.44 53.386,-11.108c29.582,-5.668 53.625,-9.882 53.714,-9.417c0.093,0.466 -23.808,5.44 -53.39,11.108c-29.568,5.665 -53.621,9.883 -53.71,9.417" style="fill:#1a2e35;fill-rule:nonzero;"/><path d="M914.806,604.245c-0.089,-0.469 23.815,-5.44 53.387,-11.108c29.581,-5.668 53.624,-9.883 53.713,-9.417c0.09,0.466 -23.811,5.44 -53.39,11.108c-29.572,5.665 -53.621,9.883 -53.71,9.417" style="fill:#1a2e35;fill-rule:nonzero;"/><path d="M917.549,618.562c-0.089,-0.466 23.815,-5.437 53.387,-11.105c29.582,-5.671 53.624,-9.886 53.713,-9.417c0.09,0.466 -23.808,5.437 -53.39,11.105c-29.572,5.668 -53.621,9.886 -53.71,9.417" style="fill:#1a2e35;fill-rule:nonzero;"/><path d="M920.293,632.882c-0.09,-0.469 23.814,-5.44 53.386,-11.108c29.582,-5.668 53.625,-9.883 53.714,-9.417c0.092,0.466 -23.808,5.44 -53.39,11.108c-29.569,5.665 -53.621,9.883 -53.71,9.417" style="fill:#1a2e35;fill-rule:nonzero;"/><path d="M923.036,647.199c-0.089,-0.466 23.815,-5.437 53.387,-11.105c29.582,-5.671 53.624,-9.886 53.717,-9.417c0.089,0.466 -23.812,5.437 -53.394,11.105c-29.568,5.668 -53.621,9.886 -53.71,9.417" style="fill:#1a2e35;fill-rule:nonzero;"/><path d="M925.781,661.517c-0.089,-0.466 23.815,-5.44 53.387,-11.105c29.581,-5.671 53.624,-9.886 53.713,-9.42c0.089,0.469 -23.808,5.44 -53.39,11.108c-29.572,5.668 -53.621,9.886 -53.71,9.417" style="fill:#1a2e35;fill-rule:nonzero;"/><path d="M1004.53,484.07c0.116,-0.02 0.479,1.265 1.031,3.607c0.598,2.715 1.328,6.038 2.19,9.959c0.221,1.066 0.449,2.17 0.687,3.309c0.244,1.255 0.201,2.633 -0.208,3.961c-0.793,2.652 -3.237,5.047 -6.382,5.555c-3.104,0.591 -6.711,-0.935 -8.426,-3.977c-0.426,-0.749 -0.753,-1.569 -0.924,-2.431c-0.152,-0.776 -0.304,-1.555 -0.46,-2.345c-0.303,-1.569 -0.611,-3.161 -0.921,-4.773c-0.611,-3.223 -1.209,-6.368 -1.787,-9.417c-0.281,-1.519 -0.562,-3.015 -0.836,-4.482c-0.267,-1.41 -0.607,-2.992 -0.456,-4.538c0.232,-3.079 1.817,-5.79 3.924,-7.485c2.118,-1.721 4.691,-2.414 6.96,-2.371c4.69,0.148 7.643,3.144 8.756,5.265c0.608,1.09 0.859,2.031 0.978,2.662c0.099,0.641 0.116,0.974 0.053,0.988c-0.172,0.046 -0.317,-1.345 -1.602,-3.303c-1.212,-1.89 -4.046,-4.427 -8.195,-4.394c-2.015,0.037 -4.241,0.714 -6.038,2.25c-1.793,1.513 -3.098,3.878 -3.253,6.503c-0.109,1.308 0.185,2.613 0.485,4.116c0.288,1.463 0.582,2.953 0.879,4.472c0.591,3.046 1.199,6.19 1.823,9.411c0.307,1.612 0.611,3.204 0.912,4.776c0.148,0.779 0.294,1.556 0.442,2.328c0.136,0.684 0.393,1.335 0.724,1.933c1.344,2.421 4.201,3.686 6.708,3.247c2.54,-0.37 4.568,-2.263 5.278,-4.433c0.364,-1.083 0.433,-2.216 0.261,-3.273c-0.198,-1.147 -0.393,-2.256 -0.578,-3.323c-0.65,-3.961 -1.199,-7.323 -1.651,-10.065c-0.35,-2.381 -0.489,-3.709 -0.374,-3.732" style="fill:#1a2e35;fill-rule:nonzero;"/><path d="M1047.62,567.25c-1.087,0.109 -43.99,6.765 -43.99,6.765c-0.759,3.947 1.559,9.542 11.663,9.704c9.576,0.152 18.223,-0.647 18.223,-0.647c0,-0 10.619,22.137 21.054,24.594c10.431,2.458 5.304,-21.255 5.304,-21.255l-12.254,-19.161Z" style="fill:#ffbf9d;fill-rule:nonzero;"/><path d="M1539.32,427.537c3.713,-8.671 7.491,-17.602 7.841,-27.065c0.347,-9.467 -3.531,-19.723 -11.702,-24.017c-7.554,-3.97 -16.836,-2.11 -24.849,-4.961c-9.889,-3.518 -16.132,-13.486 -20.521,-23.283c-4.387,-9.793 1.71,-13.367 -5.705,-20.971c-9.84,-10.087 -16.241,-11.54 -28.7,-5.374c-8.964,-6.351 -40.095,-17.853 -49.079,-18.13c-13.321,-0.406 -28.486,0.654 -37.784,10.2c-7.217,7.408 -11.795,16.829 -20.653,22.163c-12.189,7.343 -27.716,1.1 -41.929,1.622c-2.9,0.105 -6.279,0.842 -7.475,3.488c-1.037,2.285 0.06,4.921 1.146,7.184l10.983,22.926c-5.962,2.765 -13.202,2.59 -19.022,-0.462c0.634,14.969 6.731,29.644 16.885,40.66c-2.52,-1.79 -6.319,0.056 -7.574,2.88c-1.258,2.824 -0.68,6.104 0.126,9.087c4.948,18.305 18.13,34.219 35.193,42.493c17.064,8.274 37.718,8.763 55.157,1.311l78.348,5.903c2.167,6.111 7.392,10.966 13.506,12.551c8.78,-6.493 10.18,-10.14 10.18,-10.14c5.401,4.017 1.159,1.992 5.401,4.017c9.714,4.63 24.079,-0.866 26.268,-11.686c0.919,-4.526 2.177,-8.869 5.213,-11.948c3.104,-3.147 7.531,-4.36 11.441,-6.331c6.17,-3.109 11.297,-8.36 14.352,-14.699c-6.345,0.06 -12.664,-2.692 -17.047,-7.418" style="fill:#1a2e35;fill-rule:nonzero;"/><path d="M1483.88,393.943l2.008,161.723c0.344,27.504 -4.776,67.973 -48.283,66.529c-37.651,-4.099 -47.643,-39.742 -47.93,-65.406c-0.139,-12.175 -0.281,-22.329 -0.38,-23.577c-0,-0 -41.215,-3.363 -44.697,-44.072c-1.681,-19.677 -1.846,-60.479 -1.565,-97.397c0.3,-39.646 31.048,-72.395 70.589,-75.282l3.93,-0.287c42.579,-0.621 66.886,35.193 66.328,77.769" style="fill:#ffbf9d;fill-rule:nonzero;"/><path d="M1389.3,533.212c-0,0 25.796,-0.37 51.91,-19.56c0,-0 -10.771,30.708 -51.699,30.008l-0.211,-10.448Z" style="fill:#ff9a6c;fill-rule:nonzero;"/><path d="M1395.55,455.875c0.003,-0.357 -3.937,-0.747 -10.302,-1.093c-1.612,-0.047 -3.148,-0.255 -3.498,-1.325c-0.459,-1.13 0.083,-2.9 0.72,-4.819c1.222,-3.98 2.501,-8.149 3.842,-12.519c5.301,-17.816 9.013,-32.419 8.293,-32.623c-0.72,-0.209 -5.598,14.06 -10.9,31.877c-1.271,4.39 -2.483,8.578 -3.636,12.581c-0.472,1.86 -1.364,3.997 -0.37,6.335c0.515,1.163 1.751,1.946 2.798,2.144c1.05,0.241 1.952,0.192 2.744,0.182c6.375,-0.123 10.312,-0.383 10.309,-0.74" style="fill:#1a2e35;fill-rule:nonzero;"/><path d="M1482.75,424.358c0.674,-0.35 27.396,-10.326 28.542,17.598c1.139,27.924 -27.128,23.31 -27.21,22.514c-0.08,-0.8 -1.332,-40.112 -1.332,-40.112" style="fill:#ffbf9d;fill-rule:nonzero;"/><path d="M1492.18,453.54c0.119,-0.093 0.499,0.32 1.338,0.663c0.816,0.334 2.206,0.532 3.64,-0.072c2.906,-1.206 5.195,-5.989 5.126,-11.029c-0.033,-2.543 -0.667,-4.941 -1.645,-6.907c-0.941,-2.008 -2.319,-3.382 -3.815,-3.583c-1.493,-0.281 -2.507,0.65 -2.814,1.45c-0.344,0.796 -0.142,1.344 -0.291,1.4c-0.076,0.073 -0.617,-0.442 -0.439,-1.605c0.092,-0.558 0.393,-1.232 1.027,-1.797c0.648,-0.571 1.622,-0.888 2.659,-0.819c2.164,0.059 4.182,1.962 5.258,4.122c1.199,2.164 1.972,4.856 2.005,7.713c0.053,5.635 -2.612,11.015 -6.602,12.35c-1.939,0.591 -3.601,0.066 -4.476,-0.559c-0.895,-0.654 -1.064,-1.271 -0.971,-1.327" style="fill:#ff9a6c;fill-rule:nonzero;"/><path d="M1402.14,475.209c-0.307,-0.706 5.163,-2.345 9.014,-7.478c1.923,-2.523 3.029,-5.278 3.858,-7.289c0.819,-2.028 1.434,-3.3 1.738,-3.208c0.284,0.09 0.211,1.46 -0.235,3.667c-0.469,2.183 -1.417,5.298 -3.594,8.168c-2.147,2.9 -5.02,4.628 -7.134,5.46c-2.131,0.865 -3.574,0.918 -3.647,0.68" style="fill:#1a2e35;fill-rule:nonzero;"/><path d="M1519.88,379.152c-5.819,-9.849 -7.177,-21.602 -10.355,-32.587c-3.18,-10.99 -9.301,-22.375 -20.075,-26.213l-0.241,0.106c-9.678,-3.891 -21.602,-3.948 -29.546,2.767c-1.972,-14.51 -14.692,-26.004 -28.858,-29.72c-14.164,-3.716 -36.885,-1.5 -50.471,3.97c-10.503,4.228 -20.657,12.889 -32.997,25.612c-5.202,5.361 -9.995,11.131 -14.249,17.265l-12.317,38.041c-1.331,0.971 -2.491,2.153 -3.462,3.478c-4.901,6.678 4.251,15.058 10.464,9.578c0.037,-0.033 0.07,-0.066 0.109,-0.099c1.269,2.157 2.223,4.34 3.227,6.52l-0.003,0.053l0.215,0.413c0.631,1.358 1.288,2.712 2.077,4.056l0.007,-0.092l9.516,42.034c0.598,-11.461 -0.234,-51.335 0.367,-62.8c17.691,-0.76 33.694,-7.901 45.558,-21.041c6.263,-6.936 11.184,-15.623 19.557,-19.768c10.798,-5.341 23.667,-1.453 35.042,2.497l-0.479,-0.433c5.923,2.735 11.31,6.626 15.769,11.382c-2.56,22.567 -0.208,45.681 6.88,67.257c1.07,3.253 3.98,9.948 7.174,11.184c6.273,2.421 7.957,-3.964 11.733,-7.356c2.777,-2.497 6.9,-2.821 11.405,-2.808c2.646,-6.963 5.374,-18.698 7.663,-28.974c3.785,1.15 7.825,1.46 11.722,0.783c-1.202,-2.877 -2.404,-5.757 -3.607,-8.634c1.563,0.991 3.185,2.001 5.018,2.269c1.83,0.271 3.934,-0.413 4.756,-2.071c1.064,-2.14 -0.383,-4.611 -1.599,-6.669" style="fill:#1a2e35;fill-rule:nonzero;"/><path d="M1446.85,327.902c-0.079,0.106 1.708,1.077 4.083,3.736c2.358,2.649 5.001,7.253 6.252,13.523c0.641,3.114 1.041,6.599 1.041,10.348c0.016,3.752 -0.287,7.765 -0.571,12c-0.275,4.231 -0.579,8.703 -0.304,13.354c0.135,2.322 0.413,4.687 0.915,7.045c0.512,2.322 1.123,4.839 2.873,6.834c1.397,1.629 3.729,2.349 5.747,1.932c2.038,-0.36 3.845,-1.443 5.173,-2.919c2.623,-3.059 3.273,-6.94 3.924,-10.355l-0.852,0.102c1.394,3.072 2.827,6.107 4.954,8.532c2.085,2.437 4.978,4.052 7.921,4.313c1.463,0.133 2.943,-0.102 4.198,-0.733c1.282,-0.624 2.216,-1.691 2.854,-2.811c0.608,-1.146 0.928,-2.401 0.862,-3.61c-0.066,-1.209 -0.538,-2.355 -1.305,-3.168l-0.432,0.384c3.141,3.577 6.454,5.499 8.749,6.566c1.156,0.532 2.081,0.849 2.712,1.054c0.631,0.185 0.961,0.264 0.971,0.238c0.01,-0.027 -0.31,-0.156 -0.921,-0.39c-0.605,-0.251 -1.507,-0.611 -2.626,-1.183c-2.226,-1.139 -5.434,-3.111 -8.446,-6.659l-0.429,0.384c1.367,1.453 1.446,4.003 0.267,6.051c-0.594,1.01 -1.447,1.958 -2.576,2.487c-1.123,0.551 -2.468,0.756 -3.809,0.621c-2.698,-0.268 -5.397,-1.78 -7.352,-4.099c-2.005,-2.319 -3.392,-5.272 -4.77,-8.35l-0.588,-1.305l-0.267,1.407c-0.654,3.415 -1.348,7.141 -3.739,9.896c-1.186,1.321 -2.844,2.302 -4.628,2.613c-1.783,0.343 -3.669,-0.245 -4.885,-1.639c-1.533,-1.724 -2.157,-4.109 -2.656,-6.394c-0.492,-2.299 -0.769,-4.615 -0.911,-6.897c-0.281,-4.575 -0,-9.017 0.251,-13.245c0.261,-4.231 0.535,-8.264 0.485,-12.063c-0.033,-3.798 -0.479,-7.329 -1.172,-10.484c-1.354,-6.351 -4.149,-11.015 -6.636,-13.628c-2.504,-2.629 -4.357,-3.488 -4.357,-3.488" style="fill:#375a64;fill-rule:nonzero;"/><path d="M1320.86,367.527c-0.009,0.013 0.1,0.109 0.327,0.278c0.275,0.204 0.608,0.446 1.015,0.743c0.445,0.333 1.01,0.723 1.727,1.106c0.704,0.403 1.506,0.896 2.477,1.305c3.782,1.797 9.847,3.584 17.43,3.135c7.511,-0.423 16.529,-3.082 24.578,-9.077c8.139,-5.85 15.277,-14.467 21.116,-24.337c2.963,-4.931 5.378,-9.985 8.04,-14.655c2.642,-4.671 5.562,-8.991 9.1,-12.396c3.494,-3.429 7.554,-5.962 11.735,-7.125c2.085,-0.621 4.185,-0.76 6.187,-0.71c2.011,0.105 3.914,0.512 5.668,1.086c3.511,1.18 6.342,3.119 8.489,5.114c2.157,2.011 3.603,4.135 4.597,5.962c1.853,3.742 1.956,6.146 2.101,6.103c0.017,0 0.007,-0.145 -0.033,-0.426c-0.053,-0.34 -0.115,-0.746 -0.195,-1.248c-0.195,-1.09 -0.667,-2.672 -1.542,-4.598c-0.958,-1.883 -2.392,-4.086 -4.558,-6.18c-2.167,-2.078 -5.041,-4.109 -8.641,-5.364c-1.8,-0.614 -3.762,-1.057 -5.846,-1.186c-2.075,-0.072 -4.278,0.063 -6.438,0.687c-4.347,1.17 -8.542,3.766 -12.135,7.254c-3.64,3.471 -6.626,7.864 -9.298,12.564c-2.696,4.704 -5.11,9.748 -8.047,14.633c-5.796,9.793 -12.832,18.315 -20.815,24.112c-7.898,5.942 -16.704,8.607 -24.106,9.116c-7.455,0.525 -13.45,-1.129 -17.231,-2.801c-3.819,-1.701 -5.632,-3.21 -5.702,-3.095" style="fill:#375a64;fill-rule:nonzero;"/><path d="M1317.16,349.633c-0.036,0.056 0.482,0.413 1.457,1.017c0.964,0.621 2.447,1.384 4.327,2.197c1.879,0.829 4.208,1.602 6.847,2.246c2.652,0.601 5.615,1.044 8.76,1.163c3.137,0.082 6.127,-0.169 8.812,-0.598c2.675,-0.476 5.05,-1.1 6.979,-1.807c1.929,-0.69 3.455,-1.357 4.453,-1.916c1.014,-0.538 1.552,-0.862 1.522,-0.921c-0.076,-0.159 -2.328,0.997 -6.189,2.196c-1.926,0.618 -4.271,1.16 -6.9,1.582c-2.643,0.37 -5.573,0.592 -8.651,0.512c-3.072,-0.115 -5.982,-0.525 -8.591,-1.063c-2.6,-0.591 -4.912,-1.282 -6.791,-2.018c-3.776,-1.447 -5.949,-2.745 -6.035,-2.59" style="fill:#375a64;fill-rule:nonzero;"/><path d="M1323.38,575.766l-147.311,96.402l-89.756,-70.001l-27.967,44.28c-0,0 52.264,60.472 71.629,81.01c19.372,20.542 32.281,31.504 47.541,29.546c15.256,-1.962 142.809,-51.511 142.809,-51.511l19.343,-135.222l-8.106,1.958c-2.91,0.704 -5.678,1.9 -8.182,3.538" style="fill:#375a64;fill-rule:nonzero;"/><path d="M1487.79,542.839c-32.961,20.71 -66.173,28.502 -99.814,15.088l-50.569,12.918l-24.585,42.735c-3.868,6.722 -5.625,14.447 -5.043,22.18l9.661,163.582l-29.787,103.903l291.71,2.533l-14.375,-77.204l-36.161,-277.385l-41.037,-8.35Z" style="fill:#375a64;fill-rule:nonzero;"/><path d="M1532.39,675.663l-9.13,-125.247c0,-0 68.664,6.371 91.385,54.81c19.148,40.822 76.614,159.486 82.272,176.289c16.598,49.304 -13.946,121.234 -120.858,117.31l-12.188,-67.025l-31.481,-156.137Z" style="fill:#375a64;fill-rule:nonzero;"/><path d="M1587.23,779.95c-0.099,0.04 0.528,1.932 1.711,4.928c1.172,2.999 2.923,7.089 4.938,11.564c1.958,4.36 3.735,8.307 5.149,11.455c1.315,2.933 2.134,4.746 2.246,4.704c0.099,-0.04 -0.528,-1.933 -1.711,-4.929c-1.172,-2.999 -2.923,-7.088 -4.938,-11.567c-1.958,-4.36 -3.736,-8.304 -5.149,-11.451c-1.315,-2.933 -2.134,-4.747 -2.246,-4.704" style="fill:#1a2e35;fill-rule:nonzero;"/><path d="M1549.23,681.374c0.225,0 0.41,-7.937 0.41,-17.731c-0,-9.793 -0.185,-17.73 -0.41,-17.73c-0.227,-0 -0.412,7.937 -0.412,17.73c-0,9.794 0.185,17.731 0.412,17.731" style="fill:#1a2e35;fill-rule:nonzero;"/><path d="M1559.33,628.04c0.059,0.01 0.277,-0.693 0.627,-1.978c0.341,-1.285 0.892,-3.132 1.639,-5.384c1.479,-4.509 3.967,-10.606 7.63,-16.852c3.679,-6.24 7.805,-11.376 11.025,-14.861c1.609,-1.744 2.956,-3.121 3.917,-4.042c0.948,-0.929 1.457,-1.467 1.421,-1.51c-0.04,-0.043 -0.618,0.413 -1.639,1.275c-1.03,0.849 -2.447,2.173 -4.122,3.878c-3.352,3.405 -7.593,8.538 -11.313,14.84c-3.702,6.312 -6.127,12.512 -7.474,17.097c-0.681,2.292 -1.15,4.168 -1.391,5.483c-0.258,1.311 -0.376,2.041 -0.32,2.054" style="fill:#1a2e35;fill-rule:nonzero;"/><path d="M1317.09,620.294c0.119,-0.003 0.251,1.45 0.39,4.089c0.165,2.639 0.202,6.464 0.129,11.187c-0.119,9.454 -1.097,22.471 -2.243,36.796c-1.146,14.332 -1.704,27.316 -1.456,36.716c0.105,4.694 0.277,8.502 0.488,11.125c0.179,2.623 0.225,4.086 0.106,4.102c-0.115,0.017 -0.383,-1.42 -0.773,-4.036c-0.419,-2.613 -0.773,-6.428 -1.037,-11.148c-0.561,-9.446 -0.195,-22.536 0.955,-36.891c1.152,-14.348 2.315,-27.303 2.745,-36.703c0.227,-4.7 0.376,-8.505 0.419,-11.141c0.069,-2.633 0.162,-4.093 0.277,-4.096" style="fill:#1a2e35;fill-rule:nonzero;"/><path d="M1630.98,802.978c0.059,0.119 -1.645,1.007 -4.697,2.639c-3.062,1.622 -7.435,4.046 -12.743,7.224c-5.322,3.161 -11.587,7.095 -18.904,10.876c-3.653,1.89 -7.544,3.769 -11.649,5.553c-4.129,1.708 -8.397,3.471 -12.77,5.281c-1.347,0.552 -2.682,1.1 -3.927,1.609l0.525,-0.928c2.808,17.73 5.229,33.611 6.894,45.066c0.769,5.51 1.4,10.065 1.882,13.546c0.407,3.197 0.578,4.961 0.466,4.981c-0.112,0.016 -0.495,-1.714 -1.1,-4.879c-0.621,-3.461 -1.433,-7.986 -2.411,-13.463c-1.969,-11.408 -4.591,-27.256 -7.422,-44.984l-0.112,-0.67l0.637,-0.261c1.242,-0.512 2.573,-1.057 3.914,-1.609c4.37,-1.793 8.631,-3.544 12.753,-5.235c4.083,-1.751 7.954,-3.58 11.597,-5.417c7.287,-3.67 13.602,-7.481 19.016,-10.517c5.403,-3.055 9.895,-5.331 13.053,-6.771c1.572,-0.743 2.824,-1.252 3.67,-1.599c0.845,-0.343 1.304,-0.495 1.328,-0.442" style="fill:#1a2e35;fill-rule:nonzero;"/><path d="M1646.53,781.516c0.056,0.301 -3.459,0.965 -8.81,2.956c-5.344,1.969 -12.449,5.549 -19.17,11.065c-6.696,5.55 -11.564,11.845 -14.514,16.717c-2.973,4.872 -4.29,8.198 -4.575,8.083c-0.112,-0.04 0.133,-0.902 0.671,-2.435c0.509,-1.542 1.473,-3.696 2.85,-6.256c2.739,-5.129 7.591,-11.735 14.474,-17.433c6.904,-5.675 14.312,-9.182 19.868,-10.893c2.775,-0.866 5.073,-1.401 6.682,-1.609c1.612,-0.238 2.5,-0.31 2.524,-0.195" style="fill:#1a2e35;fill-rule:nonzero;"/><path d="M1535.4,904.434l71.679,-172.933c3.27,-7.894 -0.832,-14.292 -9.163,-14.292l-14.421,0c-5.889,0 -9.899,-3.24 -10.275,-8.3l-0.476,-6.359c-0.386,-5.06 -4.4,-8.3 -10.292,-8.3l-68.525,-0c-5.341,-0 -11.375,2.669 -15.864,7.019l-5.566,5.387c-4.489,4.35 -10.52,7.022 -15.854,7.022l-87.276,0c-8.334,0 -17.665,6.398 -20.842,14.289l-71.058,176.467l257.933,0Z" style="fill:#ff735d;fill-rule:nonzero;"/><g opacity="0.3"><path d="M1535.4,904.434l71.679,-172.933c3.27,-7.894 -0.832,-14.292 -9.163,-14.292l-14.421,0c-5.889,0 -9.899,-3.24 -10.275,-8.3l-0.476,-6.359c-0.386,-5.06 -4.4,-8.3 -10.292,-8.3l-68.525,-0c-5.341,-0 -11.375,2.669 -15.864,7.019l-5.566,5.387c-4.489,4.35 -10.52,7.022 -15.854,7.022l-87.276,0c-8.334,0 -17.665,6.398 -20.842,14.289l-71.058,176.467l257.933,0Z" style="fill-rule:nonzero;"/></g><path d="M1547.25,845.702l27.035,-104.52c1.777,-6.881 -2.732,-13.784 -9.004,-13.784l-211.892,0c-4.192,0 -7.871,3.174 -9.024,7.782l-39.352,157.32c-1.728,6.91 1.033,11.052 7.316,10.972l213.197,0.066c4.128,-0.053 7.745,-3.187 8.905,-7.722l12.819,-50.114Z" style="fill:#e1e1e1;fill-rule:nonzero;"/><path d="M1532.61,899.705l11.515,-164.599c0.409,-5.836 -4.215,-10.798 -10.071,-10.798l-219.545,0l-0,175.397l218.101,0Z" style="fill:#ececec;fill-rule:nonzero;"/><path d="M1535.06,903.472l-26.12,-169.687c-1.202,-5.525 -6.18,-9.476 -11.937,-9.476l-222.099,0c-8.773,0 -14.682,8.816 -11.21,16.723l47.953,155.289l223.413,7.151Z" style="fill:#fafafa;fill-rule:nonzero;"/><path d="M1535.4,904.358l-53.866,-158.921c-2.239,-6.623 -8.244,-11.049 -14.979,-11.049l-228.962,0c-7.379,0 -12.581,7.551 -10.226,14.847l50.1,155.199l257.933,-0.076Z" style="fill:#ff735d;fill-rule:nonzero;"/><g opacity="0.3"><path d="M1424.7,877.752c-0,0 8.644,0.393 12.631,0.667c18.976,1.295 38.259,-2.127 55.632,-9.869c5.388,-2.401 11.085,-5.79 12.717,-11.458c1.823,-6.349 -2.289,-12.955 -7.3,-17.258c-5.014,-4.304 -11.108,-7.366 -15.461,-12.337c-4.35,-4.968 -6.411,-13.011 -2.124,-18.038l1.186,0.869c3.098,7.848 11.726,11.633 18.867,16.122c13.261,8.34 23.379,21.562 27.96,36.544c2.51,8.228 3.181,17.823 -1.804,24.836c-3.544,4.971 -9.337,7.798 -15.058,9.919c-17.321,6.424 -35.838,6.665 -54.308,6.685c-5.837,0.01 -23.752,-0.238 -23.752,-0.238c-5.632,-1.532 -7.488,-4.465 -10.881,-9.215c-3.111,-4.363 -2.431,-13.81 1.695,-17.229" style="fill-rule:nonzero;"/></g><path d="M1424.7,877.752l59.719,-8.977l23.183,-13.341c3.056,-1.757 5.143,-4.902 5.332,-8.423c0.003,-0.066 0.006,-0.132 0.009,-0.198c0.182,-4.396 -2.507,-8.396 -6.563,-10.104c-7.355,-3.102 -19.005,-7.224 -23.976,-15.927c-7.141,-12.512 -0,-15.108 -0,-15.108l49.865,19.933l35.303,24.027l7.102,40.062l-49.255,16.086c-0,-0 -54.883,3.095 -70.031,1.394c-15.144,-1.698 -15.144,-8.753 -15.144,-8.753c-2.811,-0.879 -8.495,-5.873 -8.495,-10.524c-7.35,-6.893 -7.049,-10.147 -7.049,-10.147" style="fill:#ffbf9d;fill-rule:nonzero;"/><path d="M1501.08,894.995c-0.02,-0.07 -0.895,0.102 -2.46,0.469c-1.563,0.38 -3.832,0.882 -6.643,1.443c-5.622,1.13 -13.476,2.299 -22.213,2.649c-8.746,0.334 -16.663,-0.224 -22.358,-0.911c-2.847,-0.341 -5.149,-0.664 -6.735,-0.919c-1.588,-0.244 -2.474,-0.346 -2.487,-0.277c-0.016,0.066 0.846,0.3 2.415,0.664c1.569,0.376 3.861,0.809 6.715,1.245c5.694,0.872 13.674,1.549 22.487,1.212c8.809,-0.35 16.713,-1.645 22.325,-2.959c2.811,-0.658 5.063,-1.269 6.596,-1.764c1.539,-0.486 2.378,-0.786 2.358,-0.852" style="fill:#ff9a6c;fill-rule:nonzero;"/><path d="M1495.63,885.761c-0.02,-0.066 -0.908,0.106 -2.497,0.479c-1.582,0.384 -3.891,0.882 -6.748,1.434c-5.711,1.113 -13.698,2.213 -22.573,2.494c-8.879,0.264 -16.918,-0.334 -22.698,-1.041c-2.89,-0.35 -5.226,-0.683 -6.834,-0.941c-1.612,-0.248 -2.514,-0.357 -2.53,-0.287c-0.014,0.069 0.862,0.307 2.454,0.677c1.592,0.379 3.92,0.822 6.814,1.261c5.783,0.896 13.876,1.612 22.824,1.348c8.944,-0.284 16.981,-1.506 22.688,-2.808c2.854,-0.644 5.15,-1.255 6.705,-1.757c1.563,-0.489 2.415,-0.789 2.395,-0.859" style="fill:#ff9a6c;fill-rule:nonzero;"/><rect x="367.231" y="1176.61" width="751.622" height="558.221" style="fill:#fff;"/><path d="M1118.85,1734.83c-0.01,-5.817 -0.277,-220.305 -0.707,-558.221l0.707,0.704c-211.644,0.046 -471.331,0.096 -751.559,0.155l-0.063,0l0.862,-0.859c-0.03,200.52 -0.059,390.503 -0.083,558.221l-0.779,-0.776c445.033,0.459 744.755,0.769 751.622,0.776c-6.86,0.007 -306.589,0.317 -751.622,0.776l-0.776,0l-0,-0.776c-0.027,-167.718 -0.053,-357.701 -0.083,-558.221l0,-0.862l0.922,0c280.228,0.06 539.915,0.116 751.559,0.159l0.704,-0l-0,0.703c-0.426,337.916 -0.697,552.408 -0.704,558.221" style="fill:#1a2e35;fill-rule:nonzero;"/><path d="M1118.85,1250.79c0,0.475 -168.299,0.858 -375.854,0.858c-207.624,0 -375.887,-0.383 -375.887,-0.858c-0,-0.479 168.263,-0.862 375.887,-0.862c207.555,-0 375.854,0.383 375.854,0.862" style="fill:#e1e1e1;fill-rule:nonzero;"/><path d="M410.105,1210.05c-0,6.108 -4.951,11.059 -11.059,11.059c-6.107,-0 -11.058,-4.951 -11.058,-11.059c-0,-6.11 4.951,-11.061 11.058,-11.061c6.108,-0 11.059,4.951 11.059,11.061" style="fill:#e1e1e1;fill-rule:nonzero;"/><path d="M443.428,1210.05c0,6.108 -4.951,11.059 -11.058,11.059c-6.107,-0 -11.059,-4.951 -11.059,-11.059c0,-6.11 4.952,-11.061 11.059,-11.061c6.107,-0 11.058,4.951 11.058,11.061" style="fill:#e1e1e1;fill-rule:nonzero;"/><path d="M476.752,1210.05c0,6.108 -4.951,11.059 -11.058,11.059c-6.108,-0 -11.059,-4.951 -11.059,-11.059c0,-6.11 4.951,-11.061 11.059,-11.061c6.107,-0 11.058,4.951 11.058,11.061" style="fill:#e1e1e1;fill-rule:nonzero;"/><path d="M1036.09,1622.49c0,0 18.339,-24 26.963,-24.947c8.624,-0.948 62.602,0.947 70.193,-0c7.583,-0.948 50.268,-18.97 50.268,-18.97c0,0 7.587,2.557 6.639,9.341c-0.948,6.785 -48.372,32.396 -54.064,33.344c-5.691,0.948 -51.219,4.297 -51.219,4.297l-11.439,20.634l-37.341,-23.699Z" style="fill:#b8695e;fill-rule:nonzero;"/><path d="M878.947,1320.2c9.248,-4.145 15.94,-13.506 16.865,-23.6c0.931,-10.088 -3.944,-20.512 -12.284,-26.272l-33.298,-11.188c-4.812,42.979 -9.919,85.928 -15.313,128.841c8.948,-0.469 18.213,-1.955 25.566,-7.075c7.352,-5.12 12.218,-14.705 9.473,-23.233c7.257,-2.448 13.063,-8.803 14.85,-16.251c1.787,-7.452 -0.502,-15.749 -5.859,-21.222" style="fill:#1a2e35;fill-rule:nonzero;"/><path d="M715.676,1295l1.259,-15.303l93.502,-8.083c28.587,-0.102 56.277,31.362 55.167,59.927c-1.232,31.735 -3.987,70.437 -10.127,93.584c-12.344,46.54 -49.219,48.859 -49.219,48.859l-3.306,46.909c-2.477,27.336 -26.077,31.002 -53.416,28.558c-26.729,-2.388 -46.742,-25.545 -45.235,-52.339l11.375,-202.112Z" style="fill:#b8695e;fill-rule:nonzero;"/><path d="M807.996,1396.12c0.007,-0.377 4.139,-0.661 10.801,-0.833c1.685,-0.003 3.297,-0.172 3.693,-1.281c0.515,-1.163 0.003,-3.036 -0.608,-5.057c-1.156,-4.192 -2.365,-8.588 -3.633,-13.196c-5.004,-18.778 -8.443,-34.146 -7.686,-34.338c0.76,-0.195 5.427,14.86 10.431,33.638c1.192,4.624 2.335,9.034 3.418,13.255c0.44,1.959 1.305,4.218 0.199,6.632c-0.578,1.199 -1.893,1.976 -2.993,2.157c-1.1,0.215 -2.041,0.139 -2.87,0.103c-6.656,-0.321 -10.765,-0.71 -10.752,-1.08" style="fill:#1a2e35;fill-rule:nonzero;"/><path d="M806.225,1474.1c0,-0 -33.644,-1.457 -63.239,-23.63c-0,0 12.594,34.758 62.004,35.422l1.235,-11.792Z" style="fill:#935249;fill-rule:nonzero;"/><path d="M886.535,1290.87c10.167,-5.476 15.987,-17.717 14.537,-29.175c-1.45,-11.458 -9.715,-21.609 -20.367,-26.068c-2.167,-0.905 -4.429,-1.526 -6.725,-1.978c-4.188,-3.059 -9.123,-5.093 -14.272,-5.711c-0.099,-6.167 -5.07,-11.452 -10.831,-13.655c-5.76,-2.203 -12.155,-1.906 -18.279,-1.152c-5.271,-8.136 -14.55,-13.53 -24.227,-14.091c-9.678,-0.565 -19.515,3.722 -25.695,11.194c-6.325,-4.684 -14.896,-6.174 -22.43,-3.908c-7.535,2.273 -13.857,8.245 -16.542,15.643c-6.854,-0.521 -13.883,1.946 -18.91,6.636c-1.892,1.764 -3.488,3.832 -4.74,6.088c-2.421,2.54 -4.32,5.565 -5.44,8.895c-11.6,0.092 -22.744,7.99 -26.668,18.906c-3.928,10.92 -0.367,24.106 8.522,31.564c-6.316,5.063 -10.045,13.195 -9.764,21.285c0.281,8.085 4.568,15.94 11.22,20.554c-3.63,8.254 -3.666,18.015 -0.106,26.296c1.54,3.577 4.096,7.065 7.538,8.601c0.102,0.64 0.258,1.265 0.552,1.849c2.368,4.72 9.532,3.505 13.978,0.654c10.807,-6.929 17.453,-18.853 21.562,-31.018c4.112,-12.159 6.117,-24.945 10.111,-37.149c0.089,-0.271 0.185,-0.562 0.284,-0.859c1.681,-5.113 4.531,-9.691 8.228,-13.47c3.431,2.953 6.774,6.025 10.596,8.433c13.621,8.588 32.937,6.764 44.709,-4.222c8.909,9.183 21.11,15.105 33.836,16.423c12.727,1.318 25.569,0.228 36.172,-6.933c2.005,-1.354 4.806,-3.822 6.355,-7.389c0.961,-2.219 -0.974,-5.311 -3.204,-6.243" style="fill:#1a2e35;fill-rule:nonzero;"/><path d="M716.912,1358.33c-0.592,-0.393 -24.406,-12.32 -28.258,13.493c-3.851,25.817 22.86,24.357 23.016,23.623c0.155,-0.729 5.242,-37.116 5.242,-37.116" style="fill:#b8695e;fill-rule:nonzero;"/><path d="M705.243,1384.49c-0.102,-0.099 -0.495,0.248 -1.308,0.482c-0.793,0.228 -2.101,0.274 -3.372,-0.429c-2.58,-1.411 -4.228,-6.081 -3.66,-10.755c0.284,-2.358 1.113,-4.522 2.219,-6.252c1.071,-1.771 2.488,-2.907 3.898,-2.943c1.414,-0.116 2.263,0.852 2.471,1.628c0.238,0.77 -0.004,1.262 0.125,1.328c0.063,0.076 0.621,-0.35 0.572,-1.447c-0.03,-0.532 -0.241,-1.186 -0.773,-1.77c-0.545,-0.595 -1.417,-0.988 -2.392,-1.028c-2.011,-0.161 -4.076,1.404 -5.294,3.3c-1.328,1.889 -2.312,4.317 -2.633,6.963c-0.608,5.225 1.328,10.494 4.898,12.129c1.744,0.743 3.343,0.422 4.215,-0.07c0.895,-0.518 1.117,-1.073 1.034,-1.136" style="fill:#935249;fill-rule:nonzero;"/><path d="M900.197,1257.28c0.023,-0.004 0.076,0.211 0.158,0.641c0.093,0.426 0.176,1.07 0.228,1.915c0.096,1.685 0.023,4.245 -0.997,7.303c-0.998,3.026 -3.006,6.639 -6.656,9.424c-3.58,2.771 -8.769,4.707 -14.487,4.125l0.509,-0.35c-2.012,7.313 -6.428,15.065 -13.381,21.262c-3.484,3.062 -7.623,5.757 -12.406,7.253c-4.753,1.619 -10.11,1.543 -15.161,0.449c-5.02,-1.063 -9.704,-2.972 -13.955,-5.314c-4.231,-2.365 -8.145,-5.097 -11.111,-8.621l0.779,0.099c-7.375,5.417 -15.491,8.826 -23.134,9.509c-7.68,0.575 -14.342,-1.476 -19.293,-3.937c-4.994,-2.497 -8.344,-5.48 -10.444,-7.627c-1.044,-1.09 -1.807,-1.965 -2.279,-2.592c-0.486,-0.618 -0.724,-0.948 -0.697,-0.968c0.072,-0.06 1.086,1.219 3.24,3.293c2.163,2.048 5.542,4.902 10.487,7.263c4.892,2.332 11.481,4.248 18.9,3.614c7.395,-0.724 15.359,-4.126 22.536,-9.453l0.43,-0.321l0.353,0.416c2.798,3.297 6.656,6.002 10.798,8.294c4.165,2.286 8.759,4.149 13.638,5.183c4.925,1.06 10.005,1.129 14.56,-0.407c4.591,-1.42 8.614,-4.013 12.016,-6.979c6.798,-5.998 11.181,-13.562 13.209,-20.664l0.109,-0.393l0.4,0.047c5.43,0.607 10.44,-1.18 13.925,-3.792c3.544,-2.62 5.556,-6.065 6.606,-8.985c1.067,-2.959 1.229,-5.456 1.226,-7.121c-0.02,-1.671 -0.175,-2.556 -0.106,-2.566" style="fill:#375a64;fill-rule:nonzero;"/><path d="M716.439,1242.6c0.182,0.089 -1.807,2.946 -3.396,8.601c-1.552,5.549 -2.441,14.312 1.242,23.557l0.159,0.4l-0.36,0.241c-3.316,2.223 -6.276,5.549 -8.208,9.642c-1.932,4.082 -2.775,8.944 -1.923,13.75c1.1,6.309 4.721,11.828 9.285,15.148l0.443,0.317l-0.307,0.459c-3.392,5.034 -4.918,10.712 -5.054,15.769c-0.231,5.083 0.806,9.552 2.14,13.023c2.752,7.003 6.428,9.943 6.184,10.104c-0.023,0.023 -0.235,-0.155 -0.621,-0.531c-0.37,-0.387 -0.985,-0.909 -1.635,-1.711c-1.345,-1.573 -3.108,-4.08 -4.585,-7.601c-1.456,-3.511 -2.609,-8.076 -2.447,-13.314c0.069,-5.209 1.578,-11.108 5.086,-16.38l0.132,0.776c-4.825,-3.461 -8.637,-9.225 -9.793,-15.857c-0.895,-5.061 0.01,-10.19 2.051,-14.448c2.045,-4.274 5.166,-7.739 8.667,-10.031l-0.198,0.637c-3.703,-9.572 -2.613,-18.533 -0.862,-24.128c0.879,-2.847 1.903,-4.968 2.672,-6.365c0.38,-0.7 0.73,-1.206 0.948,-1.556c0.228,-0.343 0.357,-0.515 0.38,-0.502" style="fill:#375a64;fill-rule:nonzero;"/><path d="M698.035,1392.74c0.205,0.093 -0.934,1.695 -1.119,4.578c-0.063,1.401 0.185,3.184 1.295,4.611c1.073,1.411 3.098,2.471 5.113,2.2c2.034,-0.251 3.382,-2.074 3.788,-3.838c0.459,-1.794 0.149,-3.518 -0.271,-4.905c-0.908,-2.771 -1.839,-4.426 -1.645,-4.515c0.1,-0.053 1.272,1.397 2.441,4.247c0.542,1.411 1.004,3.333 0.539,5.424c-0.235,1.031 -0.674,2.107 -1.47,3.009c-0.776,0.902 -1.942,1.589 -3.217,1.757c-2.57,0.321 -4.895,-0.991 -6.15,-2.721c-1.289,-1.784 -1.437,-3.812 -1.262,-5.341c0.442,-3.138 1.902,-4.588 1.958,-4.506" style="fill:#1a2e35;fill-rule:nonzero;"/><path d="M791.021,1403.85c-2.919,2.501 -4.515,6.471 -4.135,10.296c0.38,3.825 2.722,7.402 6.078,9.281c1.337,0.747 2.883,1.246 4.399,1.011c2.676,-0.406 4.492,-2.857 6.002,-5.106c1.252,-1.867 2.507,-3.736 3.759,-5.606c0.423,-0.627 0.865,-1.357 0.687,-2.094c-0.189,-0.789 -1.004,-1.238 -1.738,-1.592l-14.417,-6.91" style="fill:#935249;fill-rule:nonzero;"/><path d="M797.191,1423.63c-0.047,0.148 -2.788,-0.109 -6.722,-2.342c-1.899,-1.15 -4.089,-3.158 -5.001,-6.21c-0.482,-1.473 -0.426,-3.366 0.079,-4.902c0.45,-1.588 1.18,-3.181 2.243,-4.604c1.027,-1.377 2.312,-2.514 3.703,-3.343l0.479,-0.284l0.469,0.284c9.304,5.701 16.792,9.183 16.621,9.596c-0.162,0.429 -8.047,-2.398 -17.569,-8.03l0.948,-0c-1.183,0.736 -2.269,1.711 -3.158,2.893c-1.731,2.471 -2.864,5.516 -2.157,7.931c0.661,2.527 2.411,4.383 4.076,5.572c3.445,2.342 6.127,3.118 5.989,3.439" style="fill:#1a2e35;fill-rule:nonzero;"/><path d="M451.783,1735.01c-0,-0 93.961,-168.468 109.594,-195.695c18.391,-32.032 34.411,-43.672 48.838,-50.655c15.112,-7.309 31.802,-10.754 48.588,-10.88l46.605,-0.343c0,-0 17.701,26.49 41.718,31.682c33.086,7.155 57.882,-17.41 57.882,-17.41l66.936,27.435l-13.444,123.715c-3.385,31.164 -14.761,60.927 -33.023,86.407l-4.426,5.744l-246.746,-0.212l28.611,-89.016l-52.868,89.228l-98.265,-0Z" style="fill:#375a64;fill-rule:nonzero;"/><path d="M871.944,1519.15c-0,-0 19.448,11.402 34.113,58.777c14.663,47.375 46.266,131.629 46.266,131.629l79.226,-89.952l47.032,29.85c-0,-0 -75.877,131.718 -87.927,147.301c-17.971,23.244 -63.388,36.535 -90.04,5.639c-19.372,-22.458 -65.697,-131.117 -65.697,-131.117l37.027,-152.127Z" style="fill:#375a64;fill-rule:nonzero;"/><path d="M843.407,1587.81c0.056,-0.023 0.307,0.466 0.74,1.417c0.413,0.958 1.083,2.349 1.77,4.208c1.467,3.683 3.32,9.136 5.034,16.03c3.472,13.724 5.79,33.628 2.51,55.167c-3.26,21.545 -11.385,39.867 -18.781,51.94c-3.682,6.077 -7.071,10.728 -9.562,13.813c-1.209,1.572 -2.262,2.702 -2.939,3.495c-0.697,0.779 -1.081,1.169 -1.127,1.129c-0.105,-0.086 1.219,-1.826 3.531,-5.027c2.319,-3.194 5.533,-7.921 9.05,-14.025c7.066,-12.135 14.907,-30.301 18.127,-51.583c3.241,-21.275 1.15,-40.944 -1.995,-54.632c-1.549,-6.87 -3.21,-12.343 -4.479,-16.082c-1.258,-3.739 -2.008,-5.797 -1.879,-5.85" style="fill:#1a2e35;fill-rule:nonzero;"/><path d="M618.263,1572.68c0.059,0.01 0.016,0.604 -0.119,1.724c-0.175,1.315 -0.396,2.927 -0.664,4.889c-0.601,4.244 -1.618,10.361 -3.006,17.895c-2.764,15.069 -7.237,35.782 -13.436,58.335c-6.22,22.553 -12.981,42.639 -18.322,57c-2.666,7.181 -4.922,12.958 -6.577,16.908c-0.776,1.82 -1.413,3.32 -1.929,4.539c-0.459,1.034 -0.726,1.562 -0.782,1.542c-0.056,-0.023 0.105,-0.598 0.459,-1.668c0.436,-1.248 0.974,-2.787 1.628,-4.654c1.516,-4.274 3.564,-10.047 6.058,-17.08c5.037,-14.444 11.6,-34.539 17.807,-57.046c6.186,-22.5 10.833,-43.121 13.902,-58.11c1.457,-7.313 2.652,-13.328 3.537,-17.774c0.397,-1.939 0.721,-3.537 0.985,-4.832c0.244,-1.1 0.399,-1.675 0.459,-1.668" style="fill:#1a2e35;fill-rule:nonzero;"/><path d="M500.259,1734.87c-0,0 8.971,-12.194 13.39,-14.51c4.42,-2.312 10.501,-2.236 13.173,0.159l2.678,2.398c0,-0 13.926,-6.256 20.625,-1.447c-0,-0 13.251,-6.263 19.586,0.908c0,0 10.213,-6.636 14.537,-0.842c4.324,5.797 3.871,15.59 1.784,20.631c-2.088,5.043 -6.009,22.226 -9.051,22.53c0,-0 -8.142,0.868 -9.228,-3.535c-1.087,-4.403 -1.549,-6.523 -1.549,-6.523c-0,-0 -3.112,15.574 -6.861,16.343c-3.752,0.767 -10.9,0.357 -11.144,-6.474c-0,0 -3.478,5.163 -6.874,3.657c-3.395,-1.503 -7.597,-3.99 -7.22,-8.215c0.376,-4.224 0.426,-8.452 0.426,-8.452c-0,-0 -1.86,6.157 -4.935,4.822c-3.075,-1.338 -6.167,-1.05 -7.894,-6.272c-1.727,-5.226 -6.011,-15.178 -6.011,-15.178l-15.432,0Z" style="fill:#b8695e;fill-rule:nonzero;"/><path d="M534.279,1751.16c-0.195,-0.103 0.615,-1.691 1.328,-4.403c0.723,-2.695 1.222,-6.609 0.449,-10.791c-0.773,-4.178 -2.645,-7.653 -4.284,-9.912c-1.641,-2.28 -2.963,-3.469 -2.821,-3.634c0.093,-0.122 1.662,0.823 3.571,3.046c1.906,2.196 4.04,5.806 4.862,10.255c0.826,4.446 0.129,8.585 -0.862,11.313c-0.988,2.762 -2.114,4.205 -2.243,4.126" style="fill:#935249;fill-rule:nonzero;"/><path d="M550.99,1721.55c0.152,-0.043 1.014,2.253 1.783,6.131c0.773,3.874 1.328,9.357 0.928,15.402c-0.413,6.037 -1.694,11.402 -2.982,15.134c-1.282,3.742 -2.445,5.902 -2.59,5.836c-0.426,-0.138 3.485,-9.162 4.225,-21.063c0.862,-11.888 -1.807,-21.361 -1.364,-21.44" style="fill:#935249;fill-rule:nonzero;"/><path d="M570.035,1722.57c0.337,-0.043 1.265,7.373 0.198,16.473c-1.024,9.109 -3.607,16.118 -3.924,16.003c-0.393,-0.116 1.579,-7.198 2.583,-16.159c1.051,-8.951 0.734,-16.293 1.143,-16.317" style="fill:#935249;fill-rule:nonzero;"/><path d="M622.158,1726.1c-0.568,-1.447 -2.008,-2.402 -3.505,-2.834c-3.484,-1.018 -7.316,0.376 -10.1,2.705c-2.788,2.325 -5.49,5.992 -7.383,9.09l19.743,-0.043c-0.195,-3.016 2.351,-6.101 1.245,-8.918" style="fill:#b8695e;fill-rule:nonzero;"/><path d="M1131.99,1452.13l105.951,-0c-0,58.123 -47.828,105.951 -105.951,105.951c-58.123,-0 -105.951,-47.828 -105.951,-105.951c-0,-58.047 47.702,-105.842 105.749,-105.951l0.202,105.951Z" style="fill:#ff735d;fill-rule:nonzero;"/><path d="M1150.84,1435.11l-0.34,-105.951l0.34,-0c57.896,-0 105.625,47.454 105.952,105.346l-105.952,0.605Z" style="fill:#ff735d;fill-rule:nonzero;"/><path d="M644.548,1408l-20.634,-36.363c9.13,-14.818 14.405,-32.258 14.405,-50.94c-0,-53.717 -43.547,-97.264 -97.264,-97.264c-53.721,0 -97.264,43.547 -97.264,97.264c-0,53.717 43.543,97.268 97.264,97.268c22.431,-0 43.071,-7.614 59.523,-20.37l-0.033,0.043l44.003,10.362Z" style="fill:#fafafa;fill-rule:nonzero;"/><path d="M644.548,1408c-2.09,-0.479 -16.019,-3.66 -44.072,-10.071l-0.449,-0.103l0.281,-0.37l0.033,-0.043l0.419,0.42c-5.549,4.297 -12.191,8.532 -20.006,12.059c-7.822,3.472 -16.786,6.302 -26.679,7.62c-4.941,0.631 -10.104,1.037 -15.405,0.78c-2.649,-0.152 -5.348,-0.215 -8.069,-0.443c-2.702,-0.409 -5.444,-0.822 -8.222,-1.242c-11.015,-2.173 -22.278,-6.355 -32.789,-12.875c-10.497,-6.497 -20.221,-15.319 -28.016,-26.157c-7.778,-10.817 -13.681,-23.649 -16.442,-37.588c-2.735,-13.922 -2.507,-28.842 1.149,-43.283c3.68,-14.394 10.56,-28.455 20.855,-40.019l3.974,-4.37c1.305,-1.47 2.864,-2.682 4.281,-4.03c1.479,-1.278 2.817,-2.725 4.409,-3.851l4.671,-3.488c1.509,-1.222 3.177,-2.21 4.835,-3.201c1.649,-1.001 3.293,-1.998 4.935,-2.996c1.727,-0.839 3.448,-1.674 5.169,-2.51c1.731,-0.799 3.399,-1.744 5.216,-2.319c14.133,-5.611 29.205,-7.748 43.616,-6.701c14.411,1.037 28.201,5.172 40.029,11.831c11.868,6.606 21.876,15.428 29.599,25.278c7.749,9.856 13.205,20.727 16.584,31.554c3.359,10.877 4.268,21.661 4.231,31.646c-0.29,10.008 -2.113,19.23 -4.766,27.319c-2.659,8.106 -6.153,15.079 -9.76,20.938l0.006,-0.29c13.021,23.319 19.383,34.714 20.383,36.505c-1.024,-1.774 -7.544,-13.084 -20.885,-36.221l-0.086,-0.146l0.093,-0.148c3.544,-5.853 6.976,-12.8 9.575,-20.856c2.593,-8.046 4.357,-17.198 4.608,-27.124c-0.003,-9.902 -0.938,-20.584 -4.294,-31.346c-3.379,-10.711 -8.809,-21.456 -16.495,-31.197c-7.666,-9.73 -17.582,-18.434 -29.324,-24.947c-11.706,-6.567 -25.341,-10.633 -39.584,-11.644c-14.242,-1.017 -29.129,1.104 -43.088,6.653c-1.793,0.568 -3.441,1.503 -5.152,2.292c-1.695,0.826 -3.396,1.651 -5.104,2.481c-1.618,0.987 -3.243,1.975 -4.875,2.966c-1.635,0.977 -3.28,1.952 -4.773,3.157l-4.611,3.452c-1.575,1.113 -2.893,2.54 -4.356,3.798c-1.398,1.335 -2.94,2.531 -4.228,3.984l-3.928,4.32c-10.17,11.422 -16.961,25.308 -20.607,39.521c-3.617,14.259 -3.855,29.007 -1.166,42.764c2.715,13.777 8.532,26.464 16.205,37.172c7.692,10.729 17.291,19.472 27.666,25.919c10.381,6.474 21.519,10.642 32.419,12.826c2.751,0.426 5.463,0.842 8.138,1.255c2.696,0.231 5.371,0.304 7.994,0.462c5.255,0.278 10.371,-0.109 15.273,-0.716c9.813,-1.272 18.715,-4.043 26.493,-7.449c7.772,-3.465 14.395,-7.633 19.938,-11.871l1.813,-1.387l-1.391,1.807l-0.033,0.043l-0.168,-0.476c27.963,6.784 41.852,10.154 43.933,10.656" style="fill:#1a2e35;fill-rule:nonzero;"/><path d="M513.642,1320.67c-0,5.457 -4.423,9.88 -9.883,9.88c-5.456,-0 -9.879,-4.423 -9.879,-9.88c-0,-5.456 4.423,-9.879 9.879,-9.879c5.46,0 9.883,4.423 9.883,9.879" style="fill:#1a2e35;fill-rule:nonzero;"/><path d="M553.183,1320.67c0,5.457 -4.423,9.88 -9.879,9.88c-5.46,-0 -9.883,-4.423 -9.883,-9.88c0,-5.456 4.423,-9.879 9.883,-9.879c5.456,0 9.879,4.423 9.879,9.879" style="fill:#1a2e35;fill-rule:nonzero;"/><path d="M592.624,1315.73c2.728,4.727 1.11,10.768 -3.617,13.496c-4.726,2.728 -10.767,1.11 -13.496,-3.617c-2.728,-4.723 -1.113,-10.771 3.617,-13.499c4.723,-2.728 10.768,-1.11 13.496,3.62" style="fill:#1a2e35;fill-rule:nonzero;"/><path d="M533.434,769.83c0,-0 17.695,5.641 28.486,24.753c10.691,18.942 7.838,28.293 5.04,39.481c-2.798,11.19 -7.722,33.406 -8,31.973c-0.277,-1.43 -25.526,-96.207 -25.526,-96.207" style="fill:#ffbf9d;fill-rule:nonzero;"/><rect x="82.666" y="539.059" width="769.234" height="571.301" style="fill:#fff;"/><path d="M851.9,1110.36c-0.007,-5.817 -0.278,-225.458 -0.704,-571.301l0.704,0.704c-216.602,0.043 -482.377,0.099 -769.168,0.155l-0.063,-0l0.859,-0.859c-0.03,205.22 -0.06,399.656 -0.083,571.301l-0.776,-0.777c455.467,0.46 762.364,0.77 769.231,0.777c-6.861,0.006 -313.764,0.317 -769.231,0.776l-0.78,0.003l0,-0.779c-0.023,-171.645 -0.052,-366.081 -0.082,-571.301l-0,-0.862l0.925,0c286.791,0.059 552.566,0.116 769.168,0.159l0.703,-0l0,0.703c-0.426,345.843 -0.697,565.487 -0.703,571.301" style="fill:#1a2e35;fill-rule:nonzero;"/><path d="M850.598,618.92c0,0.475 -170.508,0.858 -380.792,0.858c-210.356,0 -380.828,-0.383 -380.828,-0.858c-0,-0.476 170.472,-0.859 380.828,-0.859c210.284,-0 380.792,0.383 380.792,0.859" style="fill:#e1e1e1;fill-rule:nonzero;"/><path d="M132.978,577.232c0,6.253 -5.067,11.32 -11.319,11.32c-6.249,-0 -11.316,-5.067 -11.316,-11.32c-0,-6.249 5.067,-11.316 11.316,-11.316c6.252,-0 11.319,5.067 11.319,11.316" style="fill:#e1e1e1;fill-rule:nonzero;"/><path d="M167.081,577.232c0,6.253 -5.067,11.32 -11.316,11.32c-6.253,-0 -11.32,-5.067 -11.32,-11.32c0,-6.249 5.067,-11.316 11.32,-11.316c6.249,-0 11.316,5.067 11.316,11.316" style="fill:#e1e1e1;fill-rule:nonzero;"/><path d="M201.185,577.232c0,6.253 -5.066,11.32 -11.316,11.32c-6.252,-0 -11.319,-5.067 -11.319,-11.32c-0,-6.249 5.067,-11.316 11.319,-11.316c6.25,-0 11.316,5.067 11.316,11.316" style="fill:#e1e1e1;fill-rule:nonzero;"/><path d="M508.352,526.3c-2.573,-9.302 -7.62,-18.421 -15.954,-23.283c-3.953,-2.309 -8.449,-3.548 -12.469,-5.738c-4.852,-2.642 -8.855,-6.583 -13.397,-9.727c-11.171,-7.739 -25.734,-10.375 -38.906,-7.039c-13.176,3.33 -24.733,12.575 -30.88,24.697c-9.377,-7.151 -25.645,-4.132 -36.739,-0.136c-11.095,3.997 -20.38,17.222 -23.049,28.71l52.066,15.746c10.417,11.379 21.994,21.935 35.56,29.278c13.565,7.346 29.321,11.313 44.574,9.01c15.254,-2.299 29.803,-11.422 36.69,-25.228c5.536,-11.098 5.81,-24.337 2.504,-36.29" style="fill:#1a2e35;fill-rule:nonzero;"/><path d="M545.292,698.573c13.228,-9.249 16.409,-30.034 6.553,-42.817c-2.933,-3.809 -6.947,-7.247 -7.607,-12.007c-0.406,-2.923 0.561,-5.839 1.262,-8.71c4.687,-19.081 -3.089,-40.62 -18.877,-52.31c-0.274,-10.675 -6.256,-33.231 -19.795,-41.859l-61.512,8.647c2.797,64.776 2.609,129.684 -0.562,194.443c-0.489,9.929 -0.852,20.614 4.578,28.938c7.699,11.805 23.762,14.255 37.849,14.615c13.473,0.347 27.214,-0.231 39.931,-4.69c12.72,-4.456 24.426,-13.271 29.75,-25.651c8.208,-19.068 -0.258,-41.192 -11.57,-58.599" style="fill:#1a2e35;fill-rule:nonzero;"/><path d="M357.687,567.537l-1.863,-13.786l81.169,-25.328c25.278,-5.651 55.897,16.812 60.468,42.302c5.08,28.327 10.164,63.104 9.232,84.782c-1.873,43.586 -34.054,52.805 -34.054,52.805l3.293,25.84c3.336,26.153 -15.161,50.057 -41.311,53.396c-26.084,3.336 -49.955,-15.055 -53.387,-41.126l-23.547,-178.885Z" style="fill:#ffbf9d;fill-rule:nonzero;"/><path d="M459.039,639.075c-0.066,-0.334 3.534,-1.387 9.397,-2.834c1.489,-0.33 2.883,-0.796 3.019,-1.853c0.231,-1.13 -0.588,-2.682 -1.523,-4.353c-1.836,-3.488 -3.762,-7.145 -5.78,-10.976c-8.076,-15.64 -14.107,-28.572 -13.477,-28.892c0.635,-0.32 7.693,12.099 15.769,27.742c1.955,3.858 3.822,7.541 5.602,11.062c0.77,1.648 1.975,3.481 1.463,5.83c-0.274,1.176 -1.288,2.12 -2.226,2.49c-0.931,0.407 -1.78,0.522 -2.52,0.651c-5.952,1.011 -9.662,1.467 -9.724,1.133" style="fill:#1a2e35;fill-rule:nonzero;"/><path d="M472.633,708.427c-0,0 -30.054,5.252 -60.558,-8.614c0,-0 17.906,28.307 61.757,19.29l-1.199,-10.676Z" style="fill:#ff9a6c;fill-rule:nonzero;"/><path d="M458.179,653.598c-2.447,-2.563 -6.345,-3.679 -9.998,-2.853c-2.53,0.568 -4.981,2.104 -6.296,4.369c-1.317,2.266 -1.301,5.269 0.341,7.095c1.853,2.058 5.245,2.194 7.97,1.067c2.728,-1.126 4.941,-3.26 7.032,-5.374c0.578,-0.584 1.169,-1.196 1.486,-1.942c0.317,-0.746 0.298,-1.675 -0.261,-2.197" style="fill:#ff9a6c;fill-rule:nonzero;"/><path d="M442.125,645.162c0.955,-0.169 1.705,6.242 7.716,10.163c6.002,3.937 12.756,2.431 12.908,3.323c0.136,0.39 -1.377,1.417 -4.254,1.827c-2.817,0.422 -7.055,-0.01 -10.735,-2.408c-3.669,-2.405 -5.536,-5.962 -6.058,-8.572c-0.551,-2.652 -0.019,-4.32 0.423,-4.333" style="fill:#1a2e35;fill-rule:nonzero;"/><path d="M366.896,524.55c-8.413,2.761 -17.926,25.727 -15.455,34.229c2.471,8.505 10.395,14.675 18.979,16.852c8.585,2.177 17.708,0.875 26.18,-1.698c11.983,-3.64 24.624,-11.894 25.48,-24.389c11.679,11.765 29.766,16.733 45.819,12.584c16.053,-4.149 27.947,-28.7 32.459,-44.65l-133.462,7.072Z" style="fill:#1a2e35;fill-rule:nonzero;"/><path d="M449.973,610.506c-0.195,0.013 -0.099,-2.164 -1.083,-5.847c-0.978,-3.61 -3.432,-8.895 -8.872,-12.961c-2.695,-1.988 -6.078,-3.669 -9.969,-4.33c-3.864,-0.641 -8.214,-0.502 -12.346,1.087c-4.132,1.493 -8.07,4.31 -10.871,8.205c-2.876,3.838 -4.492,8.762 -4.544,13.842c0.049,5.081 1.664,10.009 4.544,13.85c2.798,3.894 6.739,6.712 10.871,8.205c4.132,1.589 8.485,1.731 12.346,1.09c3.891,-0.664 7.274,-2.345 9.969,-4.334c5.44,-4.066 7.894,-9.351 8.872,-12.961c0.984,-3.683 0.888,-5.856 1.083,-5.846c0.06,-0 0.089,0.535 0.093,1.559c0.026,1.02 -0.099,2.543 -0.529,4.449c-0.802,3.759 -3.157,9.361 -8.782,13.767c-2.782,2.154 -6.329,3.997 -10.441,4.766c-4.086,0.747 -8.717,0.651 -13.153,-1.001c-4.426,-1.552 -8.667,-4.541 -11.686,-8.696c-3.102,-4.103 -4.862,-9.398 -4.905,-14.848c0.046,-5.446 1.803,-10.741 4.905,-14.843c3.019,-4.152 7.26,-7.138 11.686,-8.694c4.433,-1.651 9.064,-1.744 13.149,-1.001c4.116,0.77 7.66,2.613 10.445,4.767c5.621,4.406 7.98,10.008 8.782,13.767c0.43,1.905 0.555,3.428 0.529,4.449c-0.004,1.027 -0.033,1.559 -0.093,1.559" style="fill:#375a64;fill-rule:nonzero;"/><path d="M510.756,599.552c-0.194,0.01 -0.095,-2.164 -1.083,-5.847c-0.974,-3.61 -3.432,-8.895 -8.872,-12.961c-2.695,-1.988 -6.077,-3.669 -9.968,-4.333c-3.865,-0.638 -8.215,-0.499 -12.347,1.09c-4.132,1.493 -8.069,4.31 -10.867,8.204c-2.88,3.838 -4.495,8.763 -4.545,13.843c0.046,5.08 1.665,10.009 4.542,13.85c2.801,3.894 6.738,6.712 10.87,8.205c4.132,1.588 8.485,1.727 12.35,1.09c3.888,-0.664 7.27,-2.346 9.968,-4.334c5.441,-4.066 7.895,-9.354 8.869,-12.961c0.988,-3.683 0.889,-5.856 1.083,-5.846c0.06,-0 0.09,0.531 0.096,1.559c0.023,1.02 -0.102,2.543 -0.528,4.449c-0.803,3.759 -3.161,9.361 -8.783,13.767c-2.784,2.153 -6.329,3.996 -10.444,4.766c-4.086,0.743 -8.717,0.651 -13.149,-1.001c-4.43,-1.555 -8.671,-4.541 -11.69,-8.697c-3.101,-4.102 -4.859,-9.397 -4.905,-14.847c0.046,-5.446 1.807,-10.741 4.908,-14.843c3.019,-4.156 7.257,-7.138 11.687,-8.694c4.432,-1.651 9.063,-1.744 13.149,-1.001c4.112,0.77 7.66,2.613 10.441,4.766c5.621,4.407 7.983,10.009 8.786,13.767c0.426,1.906 0.551,3.429 0.528,4.45c-0.006,1.027 -0.036,1.559 -0.096,1.559" style="fill:#375a64;fill-rule:nonzero;"/><path d="M446.345,597.145c-0.205,-0.039 -0.238,-1.169 0.571,-2.751c0.779,-1.559 2.566,-3.518 5.242,-4.36c2.682,-0.829 5.268,-0.231 6.791,0.608c1.569,0.845 2.183,1.79 2.035,1.942c-0.166,0.198 -1.028,-0.36 -2.507,-0.823c-1.457,-0.465 -3.63,-0.759 -5.807,-0.085c-2.174,0.683 -3.795,2.156 -4.727,3.372c-0.958,1.215 -1.347,2.167 -1.598,2.097" style="fill:#375a64;fill-rule:nonzero;"/><path d="M400.591,616.246c0.168,0.442 -4.017,2.256 -9.344,4.043c-5.332,1.787 -9.761,2.867 -9.893,2.411c-0.135,-0.456 4.049,-2.266 9.344,-4.043c5.295,-1.777 9.724,-2.854 9.893,-2.411" style="fill:#375a64;fill-rule:nonzero;"/><path d="M821.349,690.225c7.098,-2.745 4.165,-10.127 4.165,-10.127l-26.388,7.95c-0,0 14.005,-5.674 21.182,-11.547c7.174,-5.87 3.597,-10.979 3.597,-10.979l-27.19,10.497l-15.366,9.053l-38.49,58.754c-0,0 30.077,14.705 35.402,10.464c9.357,-7.455 14.467,-24.102 16.554,-32.561c3.769,-1.093 15.65,-4.631 18.857,-6.768c3.825,-2.553 5.648,-6.378 5.648,-6.378l-20.954,3.993c3.036,-0.885 22.464,-7.544 24.006,-9.919c2.709,-4.181 1.005,-6.037 1.005,-6.037l-26.319,4.102l2.712,-1.979c-0,0 14.738,-5.872 21.579,-8.518" style="fill:#ffbf9d;fill-rule:nonzero;"/><path d="M724.422,751.391l-88.557,81.079c-10.996,-2.534 -145.838,-83.144 -145.838,-83.144l-21.311,103.722c-0,-0 138.003,63.444 175.978,55.748c6.2,-1.258 16.399,-2.048 22.794,-10.269c30.378,-39.042 94.833,-135.639 94.833,-135.639l-37.899,-11.497Z" style="fill:#ffbf9d;fill-rule:nonzero;"/><path d="M784.591,747.328l-15.973,-7.709l11.544,-20.922l9.04,-19.144l14.031,-26.051l-21.383,8.026c-2.527,1.08 -4.747,2.775 -6.454,4.928l-35.188,48.595l-15.6,15.897l15.055,40.502l17.691,-27.617l10.346,-2.411c10.351,-2.411 16.891,-14.094 16.891,-14.094" style="fill:#ffbf9d;fill-rule:nonzero;"/><path d="M758.893,714.42c7.349,-3.686 15.038,-6.688 22.939,-8.964c2.583,-0.743 5.272,-1.417 7.931,-1.027c2.655,0.389 5.294,2.087 6.005,4.68c0.809,2.943 -1.114,6.064 -3.673,7.729c-2.557,1.665 -5.645,2.253 -8.598,3.022c-2.953,0.773 -6.008,1.866 -7.967,4.205c-1.843,2.203 -2.431,5.156 -3.402,7.861c-3.155,8.813 -11.181,15.699 -20.373,17.48" style="fill:#ffbf9d;fill-rule:nonzero;"/><path d="M751.756,749.407c-0.03,-0.139 1.42,-0.43 3.855,-1.404c2.414,-0.984 5.859,-2.742 9.205,-6.005c1.658,-1.622 3.31,-3.59 4.654,-5.959c1.417,-2.365 2.273,-5.07 3.234,-8.135c0.525,-1.506 1.202,-3.111 2.385,-4.466c1.172,-1.351 2.728,-2.341 4.356,-3.042c3.28,-1.44 6.897,-1.787 10.094,-3.111c1.609,-0.654 3.023,-1.559 4.047,-2.814c1.03,-1.232 1.668,-2.768 1.592,-4.231c-0.149,-3.036 -3.359,-5.005 -6.174,-5.17c-2.943,-0.238 -5.806,0.704 -8.472,1.444c-2.665,0.776 -5.126,1.569 -7.359,2.345c-4.459,1.559 -8,3.019 -10.441,4.049c-2.441,1.031 -3.788,1.612 -3.838,1.513c-0.046,-0.092 1.212,-0.859 3.584,-2.064c2.371,-1.206 5.866,-2.831 10.315,-4.535c2.226,-0.849 4.69,-1.711 7.366,-2.55c2.655,-0.78 5.589,-1.85 8.961,-1.635c1.675,0.102 3.402,0.67 4.859,1.737c1.45,1.047 2.629,2.791 2.728,4.776c0.155,4.02 -3.085,7.27 -6.566,8.578c-3.518,1.431 -7.089,1.758 -10.088,3.075c-1.499,0.631 -2.844,1.493 -3.838,2.62c-1.001,1.116 -1.635,2.53 -2.157,3.96c-0.941,2.9 -1.949,5.903 -3.471,8.314c-1.464,2.457 -3.237,4.469 -5.014,6.104c-3.574,3.29 -7.217,4.944 -9.751,5.773c-1.278,0.413 -2.292,0.651 -2.989,0.747c-0.697,0.109 -1.067,0.139 -1.077,0.086" style="fill:#ff9a6c;fill-rule:nonzero;"/><path d="M480.009,1041.16l-181.501,0c-0,0 -26.801,33.724 -44.466,68.865l258.7,1.067c5.076,-8.327 -32.733,-69.932 -32.733,-69.932" style="fill:#1a2e35;fill-rule:nonzero;"/><path d="M533.676,876.128c-6.143,-81.251 -26.305,-132.302 -26.305,-132.302l-31.438,-9.672c-4.753,20.763 -38.596,27.624 -57.863,18.537l-20.389,-10.659c-65.433,-9.813 -62.044,-4.386 -77.172,4.707c-13.146,7.897 -11.934,66.84 -11.934,66.84c0,-0 -32.614,153.58 -30.834,178.214c1.781,24.634 20.767,49.364 20.767,49.364l181.501,0c18.275,0 23.491,-41.321 22.219,-56.313c-1.272,-14.996 33.466,-82.011 31.448,-108.716" style="fill:#ff735d;fill-rule:nonzero;"/><path d="M361.311,927.28c-0.069,0.092 0.974,1.05 3.042,2.573c2.068,1.516 5.215,3.524 9.394,5.476c4.165,1.959 9.43,3.729 15.491,4.644c6.051,0.856 12.911,0.806 19.805,-0.855c13.929,-3.237 24.406,-11.445 30.81,-17.879c3.241,-3.261 5.556,-6.174 7.085,-8.225c1.49,-2.084 2.23,-3.29 2.128,-3.366c-0.275,-0.214 -3.568,4.41 -10.151,10.619c-6.549,6.088 -16.878,13.873 -30.308,16.988c-13.407,3.243 -26.13,0.376 -34.315,-3.168c-8.314,-3.537 -12.77,-7.128 -12.981,-6.807" style="fill:#1a2e35;fill-rule:nonzero;"/><g opacity="0.3"><path d="M446.033,913.827c-1.377,13.701 -7.934,27.012 -18.649,35.663c-10.711,8.654 -25.598,12.251 -38.837,8.466c-13.242,-3.789 -24.234,-15.241 -26.53,-28.819c9.338,4.251 18.821,8.548 28.965,10.084c21.618,3.27 44.709,-7.63 55.923,-26.398c-0.492,0.519 -0.984,1.041 -1.48,1.559" style="fill-rule:nonzero;"/></g><path d="M238.854,872.385l91.464,42.88c-0,-0 37.285,-82.483 40.492,-93.757c3.2,-11.273 13.265,-29.129 2.953,-52.64c-10.312,-23.511 -37.952,-32.151 -53.255,-22.13c-34.229,22.421 -81.654,125.647 -81.654,125.647" style="fill:#ff735d;fill-rule:nonzero;"/><path d="M526.456,876.736c4.271,-0 53.307,25.651 53.307,25.651l27.924,-92.488c-41.697,-27.781 -75.917,-59.52 -100.316,-66.073l12.822,76.428l6.263,56.482Z" style="fill:#ff735d;fill-rule:nonzero;"/><path d="M238.854,872.385c0.023,-0.056 0.651,0.168 1.813,0.641c1.341,0.568 3.013,1.278 5.067,2.15c4.588,2.035 10.847,4.816 18.484,8.205c15.736,7.174 37.099,16.914 60.703,27.676c2.537,1.169 5.047,2.325 7.405,3.412l-1.156,0.413c10.557,-21.751 19.805,-41.216 26.355,-55.26c3.164,-6.874 5.747,-12.485 7.646,-16.614c0.833,-1.814 1.513,-3.3 2.062,-4.496c0.485,-1.02 0.763,-1.545 0.815,-1.522c0.053,0.02 -0.119,0.588 -0.505,1.651c-0.39,1.06 -0.961,2.629 -1.774,4.624c-1.595,4 -4.029,9.751 -7.157,16.849c-6.273,14.19 -15.336,33.747 -25.863,55.537l-0.377,0.773l-0.779,-0.36c-2.358,-1.087 -4.869,-2.243 -7.409,-3.409c-23.521,-10.946 -44.805,-20.848 -60.488,-28.145c-7.541,-3.597 -13.721,-6.55 -18.249,-8.713c-1.995,-0.991 -3.627,-1.804 -4.928,-2.448c-1.117,-0.578 -1.691,-0.908 -1.665,-0.964" style="fill:#1a2e35;fill-rule:nonzero;"/><path d="M518.04,800.797c0.119,-0.033 0.77,2.002 1.896,5.691c1.219,3.954 2.844,9.226 4.812,15.617c3.964,13.149 9.738,31.686 10.002,53.027c-0.169,10.672 -2.335,20.63 -4.875,29.42c-2.544,8.809 -5.49,16.508 -8,22.942c-2.537,6.425 -4.697,11.574 -6.184,15.135c-1.489,3.561 -2.341,5.516 -2.457,5.473c-0.056,-0.02 0.079,-0.538 0.39,-1.506c0.396,-1.153 0.872,-2.54 1.443,-4.208c1.434,-3.881 3.349,-9.054 5.668,-15.326c2.362,-6.474 5.179,-14.187 7.617,-22.943c2.431,-8.737 4.515,-18.57 4.68,-29.004c-0.261,-20.961 -5.78,-39.438 -9.453,-52.667c-1.873,-6.639 -3.362,-12.029 -4.287,-15.778c-0.479,-1.873 -0.8,-3.339 -1.018,-4.334c-0.208,-0.994 -0.294,-1.526 -0.234,-1.539" style="fill:#1a2e35;fill-rule:nonzero;"/><path d="M440.713,782.366c-1.411,-13.457 -8.502,-25.906 -18.055,-35.488c-4.74,-4.753 -10.434,-9.502 -11.356,-16.151c-1.192,-8.615 6.266,-16.684 5.057,-25.295c-1.509,-10.745 -14.962,-15.419 -19.768,-25.149c-6.464,-13.083 4.796,-30.091 -2.137,-42.933c-4.175,-7.739 -14.131,-11.897 -16.132,-20.459c-1.298,-5.539 9.268,-13.628 11.722,-25.651c5.52,-27.039 8.324,-47.957 -17.935,-63.696l-15.336,-21.02c-17.192,8.383 -31.633,27.26 -31.93,46.986c-0.139,9.324 4.637,18.671 0.578,27.064c-5.665,11.713 -18.861,18.927 -22.844,31.31c-5.701,17.721 9.998,37.549 3.144,54.86c-4.043,10.203 -14.698,16.029 -21.383,24.736c-10.481,13.642 -9.397,34.857 2.411,47.365c-16.713,11.254 -24.446,34.226 -17.942,53.295c2.735,8.019 8.925,15.973 17.384,16.439c12.115,0.67 19.025,-13.041 27.894,-21.321c13.783,-12.869 37.935,-12.238 51.028,1.334c9.331,9.675 13.09,24.228 23.957,32.132c10.943,7.96 27.187,6.517 37.701,-1.998c10.516,-8.516 15.352,-22.9 13.942,-36.36" style="fill:#1a2e35;fill-rule:nonzero;"/><path d="M321.346,909.442c-17.321,28.462 -29.404,44.832 -29.404,44.832l155.335,94.602l-18.101,42.044l-201.471,-82.922c-0,-0 -19.854,-20.439 -12.849,-43.214l32.122,-88.656l74.368,33.314Z" style="fill:#ffbf9d;fill-rule:nonzero;"/><path d="M254.153,968.73c0.363,0.483 7.703,-5.684 18.589,-9.654c10.851,-4.096 20.433,-4.205 20.397,-4.81c0.089,-0.452 -9.817,-1.215 -21.061,3.013c-11.276,4.125 -18.288,11.171 -17.925,11.451" style="fill:#ff9a6c;fill-rule:nonzero;"/><path d="M567.797,1077.69l-38.741,-18.534l-75.613,-5.998l-6.167,-4.281l-18.101,42.048c0,-0 19.819,9.476 30.2,10.322l63.57,-1.926l33.235,3.488l11.617,-25.119Z" style="fill:#ffbf9d;fill-rule:nonzero;"/><path d="M785.751,928.447l-217.967,1.771c-7.068,-0 -13.823,3.395 -14.883,10.388l-23.821,158.862l-112.27,-0c-3.614,-0 -6.547,2.93 -6.547,6.547c0,3.616 2.933,6.543 6.547,6.543l358.573,-0l24.508,-167.665c1.311,-8.654 -5.39,-16.446 -14.14,-16.446" style="fill:#e1e1e1;fill-rule:nonzero;"/><path d="M785.751,928.447c-0,0 1.186,-0.148 3.435,0.324c2.18,0.505 5.615,1.853 8.327,5.519c1.351,1.797 2.375,4.192 2.692,6.957c0.357,2.807 -0.449,5.767 -0.799,8.967c-0.915,6.421 -1.966,13.814 -3.145,22.124c-4.799,33.308 -11.712,81.307 -20.211,140.319l-0.083,0.575l-0.584,-0c-92.786,0.056 -214.72,0.125 -347.871,0.208l-9.361,-0c-1.443,0.059 -3.455,-0.023 -4.955,-0.942c-1.549,-0.852 -2.751,-2.282 -3.352,-3.937c-1.308,-3.326 0.254,-7.399 3.385,-9.05c1.493,-0.902 3.482,-0.981 4.912,-0.922l4.611,0.004c12.281,-0 24.436,0.003 36.432,0.006c23.997,0.007 47.372,0.013 69.896,0.023l-0.839,0.72c8.574,-56.891 16.571,-109.967 23.748,-157.58c0.248,-3.012 1.612,-6.276 4.033,-8.297c2.365,-2.101 5.361,-3.217 8.334,-3.68c3.032,-0.459 5.916,-0.215 8.789,-0.307c2.874,-0.02 5.728,-0.04 8.558,-0.06c11.317,-0.075 22.263,-0.148 32.816,-0.221c21.093,-0.132 40.601,-0.257 58.315,-0.37c35.388,-0.181 63.599,-0.327 83.025,-0.426c9.651,-0.016 17.109,-0.03 22.209,-0.039c2.494,0.013 4.396,0.019 5.737,0.026c1.289,0.013 1.946,0.059 1.946,0.059c-0,0 -0.657,0.057 -1.946,0.093c-1.337,0.026 -3.243,0.066 -5.734,0.119c-5.103,0.072 -12.558,0.181 -22.209,0.32c-19.425,0.218 -47.636,0.529 -83.022,0.922c-17.714,0.178 -37.225,0.37 -58.318,0.581c-10.55,0.099 -21.496,0.205 -32.812,0.311c-2.831,0.026 -5.685,0.056 -8.561,0.079c-2.867,0.099 -5.817,-0.122 -8.572,0.314c-2.771,0.436 -5.516,1.486 -7.6,3.355c-2.144,1.863 -3.273,4.466 -3.544,7.439c-7.105,47.626 -15.026,100.709 -23.514,157.613l-0.106,0.724l-0.733,-0c-22.524,0.006 -45.899,0.016 -69.896,0.023c-11.996,0.003 -24.151,0.007 -36.432,0.007l-4.611,-0c-1.628,-0.047 -2.841,0.019 -4.063,0.703c-2.391,1.268 -3.58,4.37 -2.583,6.91c0.459,1.255 1.378,2.355 2.56,3.002c1.226,0.697 2.448,0.763 4.096,0.717l9.361,0c133.151,0.079 255.085,0.152 347.871,0.205l-0.664,0.578c8.746,-58.979 15.858,-106.948 20.796,-140.236c1.245,-8.301 2.355,-15.683 3.316,-22.098c0.39,-3.21 1.212,-6.153 0.892,-8.829c-0.278,-2.675 -1.239,-5.014 -2.53,-6.777c-2.583,-3.607 -5.919,-4.995 -8.057,-5.559c-2.199,-0.529 -3.392,-0.43 -3.385,-0.516" style="fill:#1a2e35;fill-rule:nonzero;"/><path d="M653.877,1018.48c-0,7.537 6.11,13.645 13.648,13.645c7.537,-0 13.645,-6.108 13.645,-13.645c-0,-7.538 -6.108,-13.648 -13.645,-13.648c-7.538,-0 -13.648,6.11 -13.648,13.648" style="fill:#fff;fill-rule:nonzero;"/><path d="M537.913,1111.09c0.307,0.053 7.247,-40.399 15.494,-90.341c8.248,-49.955 14.686,-90.48 14.378,-90.533c-0.307,-0.049 -7.243,40.393 -15.494,90.351c-8.248,49.939 -14.685,90.47 -14.378,90.523" style="fill:#1a2e35;fill-rule:nonzero;"/></g></g><defs><linearGradient id="_Linear1" x1="0" y1="0" x2="1" y2="0" gradientUnits="userSpaceOnUse" gradientTransform="matrix(1416.67,2041.67,-2041.67,1416.67,208.333,-4.54747e-13)"><stop offset="0" style="stop-color:#ffd2c0;stop-opacity:1"/><stop offset="1" style="stop-color:#bcffb5;stop-opacity:1"/></linearGradient></defs></svg>