<?xml version="1.0" encoding="UTF-8" standalone="no"?><!DOCTYPE svg PUBLIC "-//W3C//DTD SVG 1.1//EN" "http://www.w3.org/Graphics/SVG/1.1/DTD/svg11.dtd"><svg width="100%" height="100%" viewBox="0 0 125 217" version="1.1" xmlns="http://www.w3.org/2000/svg" xmlns:xlink="http://www.w3.org/1999/xlink" xml:space="preserve" xmlns:serif="http://www.serif.com/" style="fill-rule:evenodd;clip-rule:evenodd;stroke-linejoin:round;stroke-miterlimit:2;"><g id="logo"><g><path d="M92.068,186.254c14.117,2.311 23.403,6.228 23.403,10.673c0,7.103 -23.716,12.861 -52.971,12.861c-29.255,-0 -52.971,-5.758 -52.971,-12.861c-0,-4.445 9.286,-8.362 23.403,-10.673c-19.604,2.561 -32.932,7.589 -32.932,13.372c-0,8.381 27.982,15.175 62.5,15.175c34.518,0 62.5,-6.794 62.5,-15.175c-0,-5.783 -13.328,-10.811 -32.932,-13.372Z" style="fill:url(#_Linear1);"/><path d="M80.346,186.254c8.521,1.394 14.126,3.759 14.126,6.442c-0,4.287 -14.315,7.762 -31.972,7.762c-17.657,0 -31.972,-3.475 -31.972,-7.762c0,-2.683 5.605,-5.048 14.126,-6.442c-11.833,1.546 -19.877,4.58 -19.877,8.071c0,5.059 16.889,9.159 37.723,9.159c20.834,0 37.723,-4.1 37.723,-9.159c-0,-3.491 -8.044,-6.525 -19.877,-8.071Z" style="fill:url(#_Linear2);"/><path d="M69.157,186.254c3.179,0.521 5.27,1.403 5.27,2.403c-0,1.6 -5.34,2.896 -11.927,2.896c-6.587,-0 -11.927,-1.296 -11.927,-2.896c0,-1 2.091,-1.882 5.27,-2.403c-4.415,0.577 -7.415,1.709 -7.415,3.011c-0,1.887 6.3,3.417 14.072,3.417c7.772,-0 14.072,-1.53 14.072,-3.417c0,-1.302 -3.001,-2.434 -7.415,-3.011Z" style="fill:url(#_Linear3);"/></g><path d="M94.698,77.606l-55.445,63.26c-4.427,-5.946 -7.561,-13.129 -8.762,-20.2c-1.737,-10.223 -0.592,-20.568 2.007,-30.664c1.709,-6.637 4.046,-13.167 6.605,-19.484c5.478,-13.52 12.029,-26.646 16.267,-40.606c2.771,-9.131 4.51,-18.773 4.216,-28.264c-0,-0 -5.115,17.414 -7.363,22.061c-5.895,12.185 -8.879,19.725 -15.36,31.609c-7.98,14.633 -15.141,28.389 -18.584,44.729c-2.811,13.34 -4.333,27.796 -1.167,41.324c2.876,12.296 11.658,23.216 22.503,29.495c8.927,5.169 19.407,7.321 29.512,6.194c6.788,-0.758 13.406,-2.994 19.271,-6.79c12.882,-8.333 20.013,-22.636 21.694,-37.598c1.983,-17.658 -2.525,-36.274 -11.297,-51.631c-3.709,-6.493 -8.225,-12.519 -13.382,-17.931c3.051,4.172 6.751,9.977 9.285,14.496Zm0,0l-53.729,65.424c1.225,1.452 2.532,2.81 3.909,4.052c16.475,14.852 40.958,9.219 52.332,-8.934c7.147,-11.404 8.496,-25.81 5.668,-38.969c-1.562,-7.269 -4.697,-14.992 -8.18,-21.573Zm-10.703,45.016c0,3.034 -0.819,5.387 -2.456,7.059c-1.638,1.673 -3.75,2.509 -6.336,2.509c-2.586,-0 -4.693,-0.836 -6.322,-2.509c-1.63,-1.672 -2.444,-4.025 -2.444,-7.059c-0,-2.862 0.797,-5.172 2.392,-6.93c1.595,-1.759 3.728,-2.638 6.4,-2.638c2.638,-0 4.758,0.879 6.361,2.638c1.604,1.758 2.405,4.068 2.405,6.93Zm-4.37,-0c0,-2.241 -0.371,-4.077 -1.112,-5.508c-0.741,-1.431 -1.836,-2.147 -3.284,-2.147c-1.483,0 -2.59,0.716 -3.323,2.147c-0.733,1.431 -1.099,3.267 -1.099,5.508c0,2.293 0.371,4.142 1.112,5.547c0.741,1.405 1.836,2.107 3.284,2.107c1.448,0 2.547,-0.702 3.297,-2.107c0.75,-1.405 1.125,-3.254 1.125,-5.547Zm-15.722,-19.265c-0,3.034 -0.819,5.387 -2.457,7.059c-1.638,1.672 -3.749,2.509 -6.335,2.509c-2.586,-0 -4.694,-0.837 -6.323,-2.509c-1.629,-1.672 -2.444,-4.025 -2.444,-7.059c0,-2.862 0.798,-5.172 2.392,-6.931c1.595,-1.758 3.728,-2.637 6.4,-2.637c2.638,-0 4.759,0.879 6.362,2.637c1.603,1.759 2.405,4.069 2.405,6.931Zm-4.37,-0c-0,-2.241 -0.371,-4.077 -1.112,-5.508c-0.742,-1.431 -1.836,-2.147 -3.285,-2.147c-1.482,0 -2.59,0.716 -3.322,2.147c-0.733,1.431 -1.099,3.267 -1.099,5.508c-0,2.293 0.37,4.141 1.112,5.546c0.741,1.405 1.836,2.108 3.284,2.108c1.448,0 2.547,-0.703 3.297,-2.108c0.75,-1.405 1.125,-3.253 1.125,-5.546Z" style="fill:url(#_Linear4);"/></g><defs><linearGradient id="_Linear1" x1="0" y1="0" x2="1" y2="0" gradientUnits="userSpaceOnUse" gradientTransform="matrix(1.4939e-15,24.3972,-24.3972,1.4939e-15,62.5,190.404)"><stop offset="0" style="stop-color:#ff00e3;stop-opacity:1"/><stop offset="1" style="stop-color:#f37273;stop-opacity:1"/></linearGradient><linearGradient id="_Linear2" x1="0" y1="0" x2="1" y2="0" gradientUnits="userSpaceOnUse" gradientTransform="matrix(1.4939e-15,24.3972,-24.3972,1.4939e-15,62.5,190.404)"><stop offset="0" style="stop-color:#ff00e3;stop-opacity:1"/><stop offset="1" style="stop-color:#f37273;stop-opacity:1"/></linearGradient><linearGradient id="_Linear3" x1="0" y1="0" x2="1" y2="0" gradientUnits="userSpaceOnUse" gradientTransform="matrix(1.4939e-15,24.3972,-24.3972,1.4939e-15,62.5,190.404)"><stop offset="0" style="stop-color:#ff00e3;stop-opacity:1"/><stop offset="1" style="stop-color:#f37273;stop-opacity:1"/></linearGradient><linearGradient id="_Linear4" x1="0" y1="0" x2="1" y2="0" gradientUnits="userSpaceOnUse" gradientTransform="matrix(5.84048e-15,95.3823,-95.3823,5.84048e-15,62.5,69.9212)"><stop offset="0" style="stop-color:#f37273;stop-opacity:1"/><stop offset="1" style="stop-color:#ff00e3;stop-opacity:1"/></linearGradient></defs></svg>